<?xml version="1.0" encoding="UTF-8"?>
<svg version="1.1" xmlns="http://www.w3.org/2000/svg" width="849" height="849">
<path d="M0 0 C1.88386414 0.00273422 1.88386414 0.00273422 3.80578613 0.00552368 C22.39057743 0.05091663 40.59983729 0.51139642 59 3.3125 C60.7329834 3.56193359 60.7329834 3.56193359 62.50097656 3.81640625 C147.42882547 16.25498461 225.81780379 54.43495595 289 112.3125 C289.52126465 112.78864746 290.0425293 113.26479492 290.57958984 113.75537109 C298.764214 121.23675904 306.82606992 128.68406681 314.06640625 137.1015625 C316.24595981 139.5937389 318.4977328 142.01088668 320.75 144.4375 C326.00389508 150.20726091 330.82992589 156.25023333 335.5703125 162.44580078 C336.52473926 163.69196659 337.48309267 164.93513464 338.4453125 166.17529297 C381.73213888 221.97652604 409.69503409 288.9579731 420.75 358.5625 C420.94875732 359.80346436 421.14751465 361.04442871 421.35229492 362.32299805 C424.48450768 382.97304708 425.37544364 403.44142463 425.3125 424.3125 C425.30976578 426.19636414 425.30976578 426.19636414 425.30697632 428.11828613 C425.26158337 446.70307743 424.80110358 464.91233729 422 483.3125 C421.75056641 485.0454834 421.75056641 485.0454834 421.49609375 486.81347656 C411.88264783 552.45194898 387.08875996 616.56722345 348 670.3125 C347.53029785 670.95944824 347.0605957 671.60639648 346.57666016 672.27294922 C335.97545609 686.79345062 324.76586144 700.72024042 312.41894531 713.79199219 C310.15390859 716.21915129 307.96167045 718.7117495 305.75 721.1875 C244.77267397 788.326298 155.05732109 831.10797965 66.5 845.125 C65.27434326 845.3199707 64.04868652 845.51494141 62.78588867 845.71582031 C42.20458371 848.80240364 21.79668891 849.6877193 1 849.625 C-0.88386414 849.62226578 -0.88386414 849.62226578 -2.80578613 849.61947632 C-21.39057743 849.57408337 -39.59983729 849.11360358 -58 846.3125 C-59.7329834 846.06306641 -59.7329834 846.06306641 -61.50097656 845.80859375 C-146.41901609 833.37145208 -224.82387013 795.18448703 -288 737.3125 C-288.52126465 736.83635254 -289.0425293 736.36020508 -289.57958984 735.86962891 C-297.764214 728.38824096 -305.82606992 720.94093319 -313.06640625 712.5234375 C-315.24595981 710.0312611 -317.4977328 707.61411332 -319.75 705.1875 C-325.00389508 699.41773909 -329.82992589 693.37476667 -334.5703125 687.17919922 C-335.52473926 685.93303341 -336.48309267 684.68986536 -337.4453125 683.44970703 C-380.73213888 627.64847396 -408.69503409 560.6670269 -419.75 491.0625 C-419.94875732 489.82153564 -420.14751465 488.58057129 -420.35229492 487.30200195 C-423.48450768 466.65195292 -424.37544364 446.18357537 -424.3125 425.3125 C-424.31067719 424.05659058 -424.30885437 422.80068115 -424.30697632 421.50671387 C-424.26158337 402.92192257 -423.80110358 384.71266271 -421 366.3125 C-420.75056641 364.5795166 -420.75056641 364.5795166 -420.49609375 362.81152344 C-411.32724953 300.20869263 -388.42856491 238.21772977 -352 186.3125 C-351.62311035 185.77254395 -351.2462207 185.23258789 -350.85791016 184.67626953 C-338.94694009 167.64621857 -326.01713829 151.6555838 -312 136.3125 C-311.10395069 135.32311222 -310.20812723 134.33351987 -309.3125 133.34375 C-301.92792075 125.20537928 -294.42912511 117.26603349 -286.07421875 110.109375 C-283.79842282 108.1378757 -281.59077333 106.10115605 -279.375 104.0625 C-273.17439706 98.47628607 -266.62170457 93.38444392 -260 88.3125 C-259.35724121 87.81814453 -258.71448242 87.32378906 -258.05224609 86.81445312 C-201.88565828 43.72243759 -135.62497378 15.66041974 -65.75 4.5625 C-64.50903564 4.36374268 -63.26807129 4.16498535 -61.98950195 3.96020508 C-41.33945292 0.82799232 -20.87107537 -0.06294364 0 0 Z " fill="#C83939" transform="translate(424,-0.3125)"/>
<path d="M0 0 C3.51968001 2.04521947 7.07769529 3.90596687 10.74755859 5.6652832 C18.38496768 9.41289484 25.53576193 13.9496327 32.74560547 18.44897461 C34.85118092 19.76153519 36.96230416 21.06455668 39.07568359 22.36450195 C82.81486564 49.35435436 124.30354123 80.63921375 163.40917969 113.96557617 C166.79742591 116.85060704 170.22629499 119.67783171 173.68505859 122.4777832 C177.21292783 125.34704877 180.63475782 128.29184013 183.99755859 131.3527832 C187.55560798 134.57602412 191.14469899 137.75170252 194.81005859 140.8527832 C195.68275391 141.5952832 196.55544922 142.3377832 197.45458984 143.1027832 C200.2297873 145.01259651 201.63190191 145.80764027 204.99755859 145.8527832 C207.51953323 144.81135603 209.75098983 143.72843179 212.12255859 142.4152832 C235.89695885 129.95440845 270.43327932 114.14029842 297.56005859 122.6027832 C306.1556757 125.89815384 312.07005084 130.56472485 316.11865234 138.86450195 C318.44779812 144.25310961 318.57001501 149.17368623 318.43505859 154.9777832 C318.41306396 156.50000488 318.41306396 156.50000488 318.390625 158.05297852 C318.18475969 166.30594828 317.21007593 173.87252029 314.99755859 181.8527832 C314.72347168 182.87009521 314.72347168 182.87009521 314.44384766 183.90795898 C301.05918044 232.68836768 271.49943482 276.72329151 242.99755859 317.8527832 C242.220979 318.97910156 242.220979 318.97910156 241.42871094 320.12817383 C234.21336891 330.57912722 226.61547217 340.70750167 218.88037109 350.77856445 C215.98967171 354.54409934 213.14077602 358.33706449 210.31689453 362.15283203 C203.9972162 370.68482507 197.30090448 378.86716386 190.50878906 387.02563477 C188.57788596 389.36018708 186.6899183 391.72700958 184.81005859 394.1027832 C181.34249693 398.46687256 177.75111302 402.71706375 174.13793945 406.96044922 C171.16971078 410.45088055 168.25524181 413.97843378 165.37255859 417.5402832 C161.74921364 421.99182129 157.97791987 426.27660775 154.11474609 430.52075195 C152.2170469 432.6110221 150.35022445 434.72264435 148.49755859 436.8527832 C145.86066223 439.88033088 143.1873929 442.872156 140.49755859 445.8527832 C139.36833984 447.10768555 139.36833984 447.10768555 138.21630859 448.38793945 C136.78168789 449.98168182 135.34436725 451.57299977 133.90380859 453.16137695 C133.27474609 453.86391602 132.64568359 454.56645508 131.99755859 455.2902832 C131.44068359 455.90774414 130.88380859 456.52520508 130.31005859 457.16137695 C128.78728576 458.93066238 128.78728576 458.93066238 127.99755859 461.8527832 C128.43658302 463.79805957 128.43658302 463.79805957 129.29052734 465.8449707 C129.58926758 466.62573975 129.88800781 467.40650879 130.19580078 468.2109375 C130.52225586 469.04149658 130.84871094 469.87205566 131.18505859 470.7277832 C131.84230824 472.45998452 132.49725487 474.19306142 133.14990234 475.92700195 C133.46942871 476.77311035 133.78895508 477.61921875 134.11816406 478.4909668 C141.63256475 498.67261927 147.38017306 525.43109206 139.32177734 546.2980957 C133.77986114 556.98958006 125.95731632 563.18201696 114.70849609 567.09106445 C81.36199847 576.46075759 43.40694639 558.69899207 13.99755859 544.8527832 C13.12583008 544.44447266 12.25410156 544.03616211 11.35595703 543.61547852 C-14.55271885 531.36828794 -39.37298553 516.03690986 -63.00244141 499.8527832 C-64.21719232 499.02842763 -65.43204255 498.20421841 -66.64697266 497.38012695 C-98.84383237 475.46781832 -129.7603544 451.55307699 -159.36523438 426.25170898 C-161.09777467 424.77132487 -162.83328802 423.29446963 -164.56884766 421.81762695 C-165.77610344 420.78794223 -166.98313557 419.75799524 -168.18994141 418.7277832 C-168.77525635 418.22907715 -169.36057129 417.73037109 -169.96362305 417.21655273 C-174.37392614 413.44019579 -178.63363952 409.52294793 -182.81884766 405.49731445 C-185.36493831 403.57977569 -186.84729426 403.19103875 -190.00244141 402.8527832 C-192.6443817 403.4599523 -192.6443817 403.4599523 -195.32666016 404.58325195 C-196.34719482 404.97254883 -197.36772949 405.3618457 -198.41918945 405.76293945 C-199.4985376 406.18446289 -200.57788574 406.60598633 -201.68994141 407.0402832 C-212.02758142 410.93125291 -222.14088333 413.89700426 -233.00244141 415.8527832 C-233.93443359 416.04227539 -234.86642578 416.23176758 -235.82666016 416.42700195 C-250.00558111 418.3279889 -265.27680614 418.4610611 -277.37744141 410.0402832 C-278.61311168 409.00970343 -279.82316678 407.94744619 -281.00244141 406.8527832 C-281.55673828 406.33973633 -282.11103516 405.82668945 -282.68212891 405.2980957 C-291.8619036 395.75295684 -292.55409191 382.14010383 -292.33447266 369.6262207 C-290.15726173 317.06852812 -254.92616136 264.53564008 -226.68994141 222.1652832 C-226.18401459 221.4060556 -225.67808777 220.646828 -225.15682983 219.86459351 C-218.61338409 210.0650333 -211.91717855 200.39386694 -205.00244141 190.8527832 C-204.38651123 190.00176025 -203.77058105 189.1507373 -203.13598633 188.27392578 C-191.05620592 171.65567201 -178.44915145 155.48027892 -165.42626953 139.5925293 C-164.15017836 138.03329993 -162.88056759 136.46877221 -161.61181641 134.90356445 C-156.04680708 128.04739289 -150.31523173 121.34365391 -144.55078125 114.65551758 C-143.0240345 112.87792407 -141.50602433 111.09326306 -139.99072266 109.3059082 C-133.19122205 101.29834636 -126.1845698 93.51881386 -119.00244141 85.8527832 C-120.50943808 81.01453073 -122.14128199 76.43149158 -124.31494141 71.8527832 C-127.78600914 64.39680387 -130.38897504 56.64111324 -133.00244141 48.8527832 C-133.4684375 47.47413086 -133.4684375 47.47413086 -133.94384766 46.06762695 C-134.70615248 43.67694325 -135.37089588 41.28122613 -136.00244141 38.8527832 C-136.42009766 37.35618164 -136.42009766 37.35618164 -136.84619141 35.8293457 C-138.89852211 27.3729831 -139.31697112 19.21868598 -139.37744141 10.5402832 C-139.39121826 9.44329102 -139.40499512 8.34629883 -139.41918945 7.21606445 C-139.35143915 -4.72244314 -136.42151752 -13.92374518 -128.44384766 -22.90112305 C-97.31552911 -52.68577317 -29.586063 -17.25784979 0 0 Z " fill="#FEFEFE" transform="translate(415.00244140625,158.147216796875)"/>
<path d="M0 0 C2.05332877 1.37648622 4.13056173 2.7175612 6.22216797 4.03515625 C7.09204346 4.65583984 7.96191895 5.27652344 8.8581543 5.91601562 C8.8581543 6.57601562 8.8581543 7.23601562 8.8581543 7.91601562 C6.46219691 9.44052251 4.06556634 10.84602617 1.58862305 12.22851562 C-7.64169471 17.51884708 -16.48889973 23.29929032 -25.31787109 29.22949219 C-27.83442685 30.91942775 -30.35588469 32.60183986 -32.87817383 34.28320312 C-42.42369488 40.66053378 -51.85477137 47.16799812 -61.1418457 53.91601562 C-62.47832153 54.88522949 -62.47832153 54.88522949 -63.84179688 55.87402344 C-66.1972883 57.58905383 -68.54628161 59.31243961 -70.8918457 61.04101562 C-71.69678467 61.63285645 -72.50172363 62.22469727 -73.33105469 62.83447266 C-78.48395242 66.64044239 -83.52108198 70.53688547 -88.42700195 74.65820312 C-90.1418457 75.91601562 -90.1418457 75.91601562 -92.1418457 75.91601562 C-90.1618457 79.54601562 -88.1818457 83.17601562 -86.1418457 86.91601562 C-80.42016249 85.34881228 -75.7572538 82.48287089 -70.7043457 79.47851562 C-54.24053978 69.90322193 -37.31500869 61.67121418 -19.1418457 55.91601562 C-17.66654995 55.43826016 -16.19129013 54.9603937 -14.71606445 54.48242188 C-0.95815033 50.0773215 17.17302006 45.63714152 30.85424805 52.58789062 C39.1707112 58.09977653 44.24589315 64.13393134 46.8581543 73.91601562 C47.17126925 77.39831173 47.1916023 80.8587903 47.1706543 84.35351562 C47.16501465 85.33562012 47.159375 86.31772461 47.15356445 87.32958984 C47.01768734 95.54275578 46.01346752 102.96168983 43.8581543 110.91601562 C43.56013916 112.03991699 43.56013916 112.03991699 43.25610352 113.18652344 C33.89470105 148.00953816 16.19800569 181.65613407 -3.1418457 211.91601562 C-3.99493063 213.28876861 -4.84637067 214.6625446 -5.6965332 216.03710938 C-19.51094418 238.27862246 -34.34588584 260.02944714 -50.1418457 280.91601562 C-53.25367584 277.99441647 -54.93227375 274.69052387 -56.8293457 270.91601562 C-70.4460318 244.55644147 -86.79274457 219.57386895 -103.59887695 195.16748047 C-105.47243706 192.43362426 -107.31401815 189.6806048 -109.1418457 186.91601562 C-112.71224873 187.57503861 -115.31916826 189.0783072 -118.3918457 190.97851562 C-119.72989258 191.80029297 -119.72989258 191.80029297 -121.0949707 192.63867188 C-121.77043945 193.06019531 -122.4459082 193.48171875 -123.1418457 193.91601562 C-122.88081055 194.50278076 -122.61977539 195.0895459 -122.35083008 195.6940918 C-92.11347922 263.88037709 -92.11347922 263.88037709 -103.01293945 293.38867188 C-107.12126243 302.5861977 -113.8448553 309.16543488 -123.1418457 312.91601562 C-124.26204102 313.43808594 -125.38223633 313.96015625 -126.53637695 314.49804688 C-132.48455626 316.69537591 -138.62768362 316.40567962 -144.8918457 316.35351562 C-146.18372803 316.34449219 -147.47561035 316.33546875 -148.80664062 316.32617188 C-195.40837281 315.49135824 -241.23442338 289.33409296 -280.1418457 265.91601562 C-281.69369105 264.99374006 -283.24575874 264.07183848 -284.7980957 263.15039062 C-296.69654726 256.03327548 -308.19006048 248.31298707 -319.68676758 240.56884766 C-322.49914439 238.67547146 -325.31871342 236.79330257 -328.1418457 234.91601562 C-326.06139389 232.66222626 -324.13327759 231.2277046 -321.39575195 229.85742188 C-320.65156006 229.47811523 -319.90736816 229.09880859 -319.140625 228.70800781 C-318.33665283 228.30227539 -317.53268066 227.89654297 -316.7043457 227.47851562 C-306.23227092 222.07189557 -296.15759689 216.12126298 -286.1418457 209.91601562 C-285.26657227 209.37460937 -284.39129883 208.83320312 -283.48950195 208.27539062 C-263.77264133 196.0274714 -244.74688739 182.7889693 -226.1418457 168.91601562 C-226.74964258 166.01138635 -227.65358327 163.8144785 -229.2043457 161.29101562 C-231.1418457 157.91601562 -231.1418457 157.91601562 -231.1418457 155.91601562 C-231.813125 156.28251221 -232.4844043 156.64900879 -233.17602539 157.02661133 C-256.71543317 169.78541614 -280.63361448 180.92388783 -307.1418457 185.91601562 C-308.15891602 186.11582031 -309.17598633 186.315625 -310.22387695 186.52148438 C-323.6149385 188.33205628 -336.53566782 187.17948457 -348.1418457 179.91601562 C-356.8708501 173.08606943 -360.56491944 163.68222446 -362.1418457 152.91601562 C-366.10032315 105.32222862 -338.90902185 56.37904655 -315.1418457 16.91601562 C-314.51407227 15.86542969 -313.88629883 14.81484375 -313.23950195 13.73242188 C-311.24048244 10.43863261 -309.19957416 7.17326219 -307.1418457 3.91601562 C-306.28067139 2.54968994 -306.28067139 2.54968994 -305.40209961 1.15576172 C-291.11438858 -21.47030446 -291.11438858 -21.47030446 -283.26293945 -32.18164062 C-280.58135828 -35.85091284 -278.0431902 -39.61130102 -275.5168457 -43.38867188 C-275.0630957 -43.948125 -274.6093457 -44.50757813 -274.1418457 -45.08398438 C-273.4818457 -45.08398438 -272.8218457 -45.08398438 -272.1418457 -45.08398438 C-271.79629639 -44.45234375 -271.45074707 -43.82070313 -271.09472656 -43.16992188 C-257.41434091 -18.24670576 -242.34687883 5.54902652 -226.1418457 28.91601562 C-225.54645996 29.77469238 -224.95107422 30.63336914 -224.33764648 31.51806641 C-218.8058641 39.47329632 -213.23985958 47.3793858 -207.1418457 54.91601562 C-204.07897919 53.74569486 -201.25679171 52.49137613 -198.4543457 50.79101562 C-195.1418457 48.91601562 -195.1418457 48.91601562 -193.1418457 48.91601562 C-193.66186157 47.89954956 -193.66186157 47.89954956 -194.19238281 46.86254883 C-229.40693501 -22.18684836 -229.40693501 -22.18684836 -222.38793945 -55.68164062 C-221.47303133 -58.29002574 -220.45445891 -60.6547384 -219.1418457 -63.08398438 C-218.5643457 -64.15648437 -217.9868457 -65.22898438 -217.3918457 -66.33398438 C-170.44193064 -123.7172139 -43.07063623 -28.90047136 0 0 Z " fill="#B54343" transform="translate(582.141845703125,313.083984375)"/>
<path d="M0 0 C3.35952979 1.62185537 4.93005974 4.61992324 6.89160156 7.66723633 C7.3419426 8.3469751 7.79228363 9.02671387 8.25627136 9.72705078 C9.71924479 11.94190318 11.16509034 14.16735636 12.61035156 16.39379883 C13.61193947 17.91985925 14.61430154 19.44541185 15.61743164 20.97045898 C18.46523485 25.30906492 21.29029974 29.66212307 24.11035156 34.01879883 C24.77856934 35.0474707 25.44678711 36.07614258 26.13525391 37.13598633 C33.03856072 47.79233627 39.53670552 58.66425884 45.79882812 69.70874023 C47.06891927 71.94582185 48.35091043 74.17575233 49.63378906 76.40551758 C60.71761407 95.82563401 69.76432699 115.90283639 77.11035156 137.01879883 C77.38105469 137.79368652 77.65175781 138.56857422 77.93066406 139.36694336 C84.79042077 159.29182879 90.32677182 185.0274632 82.43457031 205.46411133 C76.89265411 216.15559568 69.07010928 222.34803258 57.82128906 226.25708008 C24.47479144 235.62677321 -13.48026064 217.8650077 -42.88964844 204.01879883 C-43.76137695 203.61048828 -44.63310547 203.20217773 -45.53125 202.78149414 C-71.43992589 190.53430357 -96.26019256 175.20292549 -119.88964844 159.01879883 C-121.10439935 158.19444326 -122.31924958 157.37023403 -123.53417969 156.54614258 C-155.73272892 134.6326841 -186.65105402 110.71679393 -216.25683594 85.41333008 C-217.97558547 83.94540284 -219.6981384 82.48201641 -221.42089844 81.01879883 C-228.70448419 74.81905648 -235.85882858 68.50437143 -242.88964844 62.01879883 C-242.76855469 60.17504883 -242.76855469 60.17504883 -241.88964844 58.01879883 C-239.22949219 56.67504883 -239.22949219 56.67504883 -235.82714844 55.51879883 C-231.85675991 54.11415973 -228.09147312 52.71707884 -224.38964844 50.70629883 C-220.87606605 49.01225018 -219.64453869 48.50450605 -215.88964844 49.01879883 C-213.11230469 50.71411133 -213.11230469 50.71411133 -209.95214844 53.14379883 C-174.96202465 79.22984691 -134.35497163 101.61104159 -93.57714844 117.08129883 C-92.41626709 117.52223877 -91.25538574 117.96317871 -90.05932617 118.41748047 C-71.87825002 125.14730499 -54.56923196 129.24901105 -35.20214844 129.51879883 C-33.38541626 129.56472168 -33.38541626 129.56472168 -31.53198242 129.61157227 C-19.16831029 129.61493401 -8.91680769 126.21011355 0.01660156 117.47973633 C7.62547245 108.5364739 9.48080969 98.10349077 9.36035156 86.70629883 C9.35285889 85.77060059 9.34536621 84.83490234 9.33764648 83.87084961 C9.23614833 77.36476123 8.73017198 71.3352414 7.11035156 65.01879883 C6.81108401 63.67398895 6.51302 62.32891096 6.21582031 60.98364258 C3.27896659 48.31675817 -1.508397 36.622836 -6.70458984 24.73120117 C-8.0649974 21.61745417 -9.39777941 18.49253773 -10.7277832 15.36572266 C-11.772797 12.91287458 -12.83004094 10.46537223 -13.88964844 8.01879883 C-11.98384914 6.64938015 -10.06458271 5.2986872 -8.13964844 3.95629883 C-7.07230469 3.20219727 -6.00496094 2.4480957 -4.90527344 1.67114258 C-1.88964844 0.01879883 -1.88964844 0.01879883 0 0 Z " fill="#FEFEFE" transform="translate(471.8896484375,498.981201171875)"/>
<path d="M0 0 C6.2280087 5.16469014 10.79149307 11.60199996 11.93164062 19.76928711 C12.06322248 22.6076595 12.06604935 25.4094028 12 28.25 C11.98533691 29.26481445 11.97067383 30.27962891 11.95556641 31.32519531 C11.7497011 39.57816507 10.77501734 47.14473708 8.5625 55.125 C8.37977539 55.80320801 8.19705078 56.48141602 8.00878906 57.18017578 C-5.37587816 105.96058447 -34.93562378 149.99550831 -63.4375 191.125 C-63.95521973 191.87587891 -64.47293945 192.62675781 -65.00634766 193.40039062 C-72.22168968 203.85134402 -79.81958643 213.97971846 -87.5546875 224.05078125 C-90.44538689 227.81631614 -93.29428257 231.60928128 -96.11816406 235.42504883 C-102.43784239 243.95704187 -109.13415411 252.13938066 -115.92626953 260.29785156 C-117.85717263 262.63240387 -119.74514029 264.99922638 -121.625 267.375 C-125.09256166 271.73908935 -128.68394557 275.98928054 -132.29711914 280.23266602 C-135.26534782 283.72309735 -138.17981678 287.25065058 -141.0625 290.8125 C-144.68584495 295.26403808 -148.45713872 299.54882455 -152.3203125 303.79296875 C-154.21801169 305.88323889 -156.08483415 307.99486115 -157.9375 310.125 C-161.3202876 314.00894132 -164.76608371 317.83364347 -168.2265625 321.6484375 C-170.87154022 324.6111864 -173.41481886 327.65283417 -175.9296875 330.7265625 C-177.4375 332.125 -177.4375 332.125 -180.4375 332.125 C-191.62034297 314.37373342 -191.62034297 314.37373342 -189.89160156 306.70263672 C-187.18080018 301.50168057 -182.90690609 297.39319906 -178.96630859 293.10742188 C-174.35875106 287.67336869 -170.57556012 281.66445604 -166.6887207 275.70425415 C-165.24978109 273.49966461 -163.79970169 271.30283618 -162.34570312 269.1081543 C-160.50342987 266.32708823 -158.66465014 263.54379828 -156.83056641 260.75732422 C-154.91990851 257.85490435 -152.99931441 254.95927597 -151.07421875 252.06640625 C-124.92354574 212.5386939 -93.62483819 162.19667488 -93.125 113.3125 C-93.09599609 112.37857422 -93.06699219 111.44464844 -93.03710938 110.48242188 C-92.94928906 100.74787817 -95.81882798 92.93277989 -102.50390625 85.81640625 C-112.24242649 77.29766026 -125.30997149 78.34739437 -137.4375 79.125 C-142.95735775 79.79977219 -148.17845233 81.38191284 -153.4375 83.125 C-154.22608398 83.37749512 -155.01466797 83.62999023 -155.82714844 83.89013672 C-177.32753118 90.8709415 -197.78401499 100.8771426 -217.08032227 112.60644531 C-218.27806274 113.3233252 -218.27806274 113.3233252 -219.5 114.0546875 C-220.53833984 114.69253174 -220.53833984 114.69253174 -221.59765625 115.34326172 C-223.4375 116.125 -223.4375 116.125 -226.4375 115.125 C-227.82421875 113.12890625 -227.82421875 113.12890625 -229.125 110.6875 C-229.78048828 109.48287109 -229.78048828 109.48287109 -230.44921875 108.25390625 C-231.4375 106.125 -231.4375 106.125 -231.4375 104.125 C-229.20449951 102.2893196 -226.96033985 100.57278443 -224.625 98.875 C-223.90795898 98.34632324 -223.19091797 97.81764648 -222.45214844 97.27294922 C-220.90995555 96.13671886 -219.36577066 95.00318832 -217.81982422 93.87207031 C-215.48793552 92.16198673 -213.16642158 90.43876136 -210.84765625 88.7109375 C-121.3359037 22.125 -121.3359037 22.125 -105.4375 22.125 C-105.4375 21.465 -105.4375 20.805 -105.4375 20.125 C-104.88964844 19.91746094 -104.34179688 19.70992188 -103.77734375 19.49609375 C-98.48524597 17.4394899 -93.32045641 15.1742269 -88.1875 12.75 C-85.60546341 11.53888186 -83.02183635 10.33120203 -80.4375 9.125 C-79.32503906 8.60550781 -78.21257812 8.08601563 -77.06640625 7.55078125 C-53.96103981 -2.81805811 -23.68863809 -12.92107532 0 0 Z " fill="#D7D7D7" transform="translate(721.4375,284.875)"/>
<path d="M0 0 C4 8 8 16 12 24 C11.16855469 24.76376953 11.16855469 24.76376953 10.3203125 25.54296875 C7.45330928 28.57890314 5.20346953 31.85587993 2.875 35.3125 C2.15594482 36.36993408 2.15594482 36.36993408 1.42236328 37.44873047 C-0.05717972 39.62887916 -1.52957932 41.81369055 -3 44 C-3.44214844 44.65564941 -3.88429688 45.31129883 -4.33984375 45.98681641 C-7.25115546 50.30843299 -10.13540535 54.64728881 -13 59 C-13.36802734 59.5583252 -13.73605469 60.11665039 -14.11523438 60.69189453 C-44.01826854 106.20409779 -84.19207785 168.73367343 -76.5 225.703125 C-74.20867929 235.8578418 -69.77459615 244.12483562 -61 250 C-44.69554619 258.29082736 -26.96446266 255.39602134 -10 251 C-9.33564941 250.82871582 -8.67129883 250.65743164 -7.98681641 250.48095703 C10.36522618 245.58362908 27.94805631 237.45824412 44.5769043 228.40380859 C45.39457275 227.95859863 46.21224121 227.51338867 47.0546875 227.0546875 C47.77124512 226.65749512 48.48780273 226.26030273 49.22607422 225.85107422 C51 225 51 225 53 225 C54.54296875 227.046875 54.54296875 227.046875 56.1875 229.75 C56.73792969 230.63171875 57.28835938 231.5134375 57.85546875 232.421875 C59.16148709 235.36375932 59.12218919 236.07520565 58 239 C56.6184082 240.421875 56.6184082 240.421875 54.80078125 241.75 C54.10162598 242.26570557 53.4024707 242.78141113 52.68212891 243.31274414 C51.90015137 243.86953857 51.11817383 244.42633301 50.3125 245 C49.48669434 245.5973999 48.66088867 246.1947998 47.81005859 246.81030273 C18.04926237 268.11138174 -13.09199377 288.6041298 -46.0625 304.57421875 C-47.97462649 305.50231206 -49.87186772 306.46194128 -51.75 307.45703125 C-56.56631902 310.0046878 -60.76050204 311.6402083 -66.1875 312.34765625 C-66.785625 312.56292969 -67.38375 312.77820313 -68 313 C-68.309375 313.65871094 -68.61875 314.31742188 -68.9375 314.99609375 C-69.288125 315.65738281 -69.63875 316.31867188 -70 317 C-71.65700897 317.3784312 -73.32648705 317.7029423 -75 318 C-76.90689852 318.61231626 -78.80357404 319.25698927 -80.69140625 319.92578125 C-131.08387153 337.47912588 -131.08387153 337.47912588 -153.59375 328.26171875 C-157.47187785 326.22821989 -160.78992602 323.97975477 -164 321 C-164.55429688 320.48695313 -165.10859375 319.97390625 -165.6796875 319.4453125 C-174.8594622 309.90017363 -175.55165051 296.28732063 -175.33203125 283.7734375 C-173.15482032 231.21574491 -137.92371995 178.68285687 -109.6875 136.3125 C-109.18157318 135.5532724 -108.67564636 134.7940448 -108.15438843 134.0118103 C-101.61094268 124.2122501 -94.91473714 114.54108374 -88 105 C-87.38406982 104.14897705 -86.76813965 103.2979541 -86.13354492 102.42114258 C-74.05376451 85.80288881 -61.44671005 69.62749572 -48.42382812 53.73974609 C-47.14773696 52.18051673 -45.87812619 50.615989 -44.609375 49.05078125 C-39.04436568 42.19460969 -33.31279032 35.49087071 -27.54833984 28.80273438 C-26.02159309 27.02514087 -24.50358292 25.24047985 -22.98828125 23.453125 C-17.8740656 17.42830712 -12.69598614 11.468583 -7.375 5.625 C-6.86582031 5.059021 -6.35664063 4.49304199 -5.83203125 3.90991211 C-2.23513263 0 -2.23513263 0 0 0 Z " fill="#D7D7D7" transform="translate(298,244)"/>
<path d="M0 0 C0.66 0 1.32 0 2 0 C2.51832397 0.94746094 2.51832397 0.94746094 3.04711914 1.9140625 C16.72750479 26.83727862 31.79496687 50.63301089 48 74 C48.59538574 74.85867676 49.19077148 75.71735352 49.80419922 76.60205078 C57.50578293 87.71636055 57.50578293 87.71636055 65.98828125 98.23828125 C67 100 67 100 66.75683594 101.91137695 C65.86387516 104.37566064 64.83697902 105.42726693 62.90234375 107.1796875 C62.26925293 107.77136719 61.63616211 108.36304688 60.98388672 108.97265625 C60.3085791 109.60042969 59.63327148 110.22820312 58.9375 110.875 C43.60364265 125.72051794 36.45605775 144.98656879 35.6875 166.25 C35.91831494 176.7597734 37.84598039 187.6412231 42.23046875 197.21484375 C43 199 43 199 43 201 C18.82090179 214.20099829 -5.7130868 225.86122795 -33 231 C-34.52560547 231.29970703 -34.52560547 231.29970703 -36.08203125 231.60546875 C-49.4730928 233.41604066 -62.39382211 232.26346894 -74 225 C-82.7290044 218.17005381 -86.42307373 208.76620883 -88 198 C-91.95847745 150.406213 -64.76717615 101.46303093 -41 62 C-40.37222656 60.94941406 -39.74445313 59.89882813 -39.09765625 58.81640625 C-37.09863674 55.52261699 -35.05772846 52.25724657 -33 49 C-32.42588379 48.08911621 -31.85176758 47.17823242 -31.26025391 46.23974609 C-16.97254288 23.61367991 -16.97254288 23.61367991 -9.12109375 12.90234375 C-6.43951257 9.23307153 -3.90134449 5.47268335 -1.375 1.6953125 C-0.92125 1.13585937 -0.4675 0.57640625 0 0 Z " fill="#A61414" transform="translate(308,268)"/>
<path d="M0 0 C6.21279147 5.00631473 9.71073276 10.68307641 11.77734375 18.421875 C12.0904587 21.9041711 12.11079175 25.36464968 12.08984375 28.859375 C12.0842041 29.84147949 12.07856445 30.82358398 12.07275391 31.83544922 C11.9368768 40.04861516 10.93265698 47.46754921 8.77734375 55.421875 C8.47932861 56.54577637 8.47932861 56.54577637 8.17529297 57.69238281 C-1.1861095 92.51539753 -18.88280485 126.16199344 -38.22265625 156.421875 C-39.07574117 157.79462799 -39.92718121 159.16840397 -40.77734375 160.54296875 C-54.59175473 182.78448183 -69.42669639 204.53530652 -85.22265625 225.421875 C-88.33448639 222.50027585 -90.0130843 219.19638325 -91.91015625 215.421875 C-104.5284212 190.99507333 -119.46172317 167.59138428 -135.06079102 144.97924805 C-138.58424909 139.86831351 -141.97621419 134.71351395 -145.22265625 129.421875 C-144.23265625 128.431875 -144.23265625 128.431875 -143.22265625 127.421875 C-142.76375 126.95652344 -142.30484375 126.49117187 -141.83203125 126.01171875 C-140.72197113 124.91513023 -139.58433846 123.84600134 -138.42578125 122.80078125 C-123.82700245 109.22391697 -115.71366873 89.62987192 -114.88671875 69.84375 C-114.85761726 67.95330414 -114.84491709 66.06254285 -114.84765625 64.171875 C-114.84709229 63.17623535 -114.84652832 62.1805957 -114.84594727 61.15478516 C-114.97166245 52.65149268 -116.5795008 45.46810726 -119.22265625 37.421875 C-119.58306663 35.76085325 -119.9271005 34.09565387 -120.22265625 32.421875 C-30.95127885 -21.97595194 -30.95127885 -21.97595194 0 0 Z " fill="#A40404" transform="translate(617.22265625,368.578125)"/>
<path d="M0 0 C2.69612652 2.64661502 5.26713906 5.25012233 7.5625 8.25 C19.35293811 22.01548612 38.70736232 30.6758743 56.57714844 32.22314453 C71.86758895 33.09633653 85.97979104 31.31361668 100 25 C114.06325479 53.49222071 131.8343294 89.81319444 122.25 122.4375 C118.71433263 132.00967264 112.62676786 139.72554992 103.28515625 144.078125 C102.53105469 144.38234375 101.77695312 144.6865625 101 145 C99.87980469 145.52207031 98.75960937 146.04414062 97.60546875 146.58203125 C91.65728944 148.77936028 85.51416209 148.48966399 79.25 148.4375 C77.95811768 148.42847656 76.66623535 148.41945313 75.33520508 148.41015625 C28.73347289 147.57534261 -17.09257768 121.41807733 -56 98 C-57.55184534 97.07772443 -59.10391304 96.15582285 -60.65625 95.234375 C-72.55470155 88.11725986 -84.04821478 80.39697144 -95.54492188 72.65283203 C-98.35729868 70.75945584 -101.17686772 68.87728694 -104 67 C-101.91954819 64.74621064 -99.99143189 63.31168898 -97.25390625 61.94140625 C-96.50971436 61.56209961 -95.76552246 61.18279297 -94.9987793 60.79199219 C-94.19480713 60.38625977 -93.39083496 59.98052734 -92.5625 59.5625 C-82.09042522 54.15587995 -72.01575119 48.20524735 -62 42 C-61.12472656 41.45859375 -60.24945313 40.9171875 -59.34765625 40.359375 C-44.89360525 31.38066117 -30.89519878 21.81633409 -17 12 C-15.25796365 10.77322284 -13.51578179 9.54665227 -11.7734375 8.3203125 C-7.84472053 5.55282972 -3.92076127 2.77874087 0 0 Z " fill="#AE0000" transform="translate(358,481)"/>
<path d="M0 0 C13.92708599 12.69317622 25.45059353 30.51124514 26.71435547 49.77978516 C27.12245448 74.76161363 23.16072817 96.87303819 5.44775391 115.6940918 C-9.46836141 131.02391568 -28.68581925 140.33847106 -50.33496094 140.70385742 C-70.39009655 140.66092047 -88.95857266 135.7087315 -104.44677734 122.32299805 C-105.45611328 121.49155273 -105.45611328 121.49155273 -106.48583984 120.64331055 C-110.94594881 116.88479175 -114.8098815 112.87772249 -118.44677734 108.32299805 C-118.98302734 107.66299805 -119.51927734 107.00299805 -120.07177734 106.32299805 C-123.91964881 100.72609409 -126.47485512 95.12353725 -128.57177734 88.69799805 C-128.83039551 87.90965576 -129.08901367 87.12131348 -129.35546875 86.30908203 C-136.31220959 64.39512583 -134.09580955 41.99081426 -123.69677734 21.51049805 C-118.2848911 12.16772768 -110.08736423 4.83210256 -102.44677734 -2.67700195 C-101.83318359 -3.34989258 -101.21958984 -4.0227832 -100.58740234 -4.71606445 C-73.69466615 -29.35138118 -25.47807205 -22.24668825 0 0 Z " fill="#C63E3E" transform="translate(476.44677734375,373.677001953125)"/>
</svg>
