<?xml version="1.0" encoding="UTF-8"?>
<svg version="1.1" xmlns="http://www.w3.org/2000/svg" width="300" height="300">
<path d="M0 0 C1.54721768 1.22217195 3.08893224 2.4513436 4.625 3.6875 C12.19705868 9.68425276 20.66352642 11.68044865 30.31640625 10.78515625 C35.72471285 9.76928471 40.43018089 7.49980108 45.38671875 5.17578125 C58.27275037 -0.6219699 72.01601714 1.7141615 85 6 C94.42333663 10.06128465 99.80654023 17.83747972 103.83325195 26.96630859 C105.718443 31.868042 106.73465301 36.85909667 107.75 42 C110.44876448 54.90980939 113.66590974 67.64339007 117.01660156 80.39648438 C117.20669296 81.12332932 117.39678436 81.85017426 117.59263611 82.5990448 C118.11081113 84.57823584 118.63302427 86.5563684 119.15551758 88.53442383 C122.58793459 102.62033292 121.63314782 115.39050823 115.3125 128.5 C113.08968415 130.90304416 111.60172757 131.84995018 108.75 133.3125 C100.40402286 137.61568033 93.56873743 146.35439762 90 155 C90.24165805 158.53760527 91.9106995 160.26076779 94.3125 162.75 C97.76900204 166.55356885 99.98850587 170.29635464 102 175 C102.391875 175.86625 102.78375 176.7325 103.1875 177.625 C107.13402184 189.16098693 105.69448978 201.97211572 101 213 C94.43396641 225.96196268 84.33384018 234.24012957 70.55078125 238.8125 C65.34177912 240.1215686 60.3514989 240.16988885 55 240 C54.75378906 241.2375 54.50757813 242.475 54.25390625 243.75 C52.9394782 249.6608729 50.95708513 255.2989171 48.9375 261 C48.57333984 262.04800781 48.20917969 263.09601563 47.83398438 264.17578125 C45.1369646 271.8630354 45.1369646 271.8630354 44 273 C42.3804366 273.09603022 40.75666917 273.12187855 39.13426208 273.12025452 C38.08111816 273.12162918 37.02797424 273.12300385 35.94291687 273.12442017 C34.77766983 273.12082489 33.61242279 273.11722961 32.41186523 273.11352539 C30.58285172 273.11374443 30.58285172 273.11374443 28.71688843 273.1139679 C25.36372489 273.11338893 22.01062226 273.10835968 18.65746951 273.10139394 C15.15674438 273.09515983 11.65601852 273.09455656 8.1552887 273.09336853 C1.52190344 273.09025538 -5.11146541 273.08204222 -11.74484342 273.07201904 C-19.29490207 273.06085739 -26.84496149 273.05534732 -34.39502633 273.05032361 C-49.93002706 273.03985959 -65.46501142 273.02226047 -81 273 C-80.93125955 272.19002438 -80.86251909 271.38004875 -80.79169559 270.54552841 C-80.70156413 269.47554737 -80.61143267 268.40556633 -80.51856995 267.30316162 C-80.42920449 266.245686 -80.33983904 265.18821037 -80.24776554 264.09869003 C-79.91263121 259.90731862 -79.67547312 255.71479898 -79.46484375 251.515625 C-79.42186661 250.68915466 -79.37888947 249.86268433 -79.33460999 249.01116943 C-79.20048231 246.42420004 -79.06893706 243.83710734 -78.9375 241.25 C-78.84587577 239.47394942 -78.75408016 237.69790767 -78.66210938 235.921875 C-78.43943238 231.61468251 -78.21906784 227.3073775 -78 223 C-79.10448486 222.85087158 -80.20896973 222.70174316 -81.34692383 222.5480957 C-93.44933649 220.73228895 -101.63840707 211.64668986 -108.98828125 202.53515625 C-110.49226456 200.41166616 -111.78607061 198.30007674 -113 196 C-113.50466797 195.04867187 -113.50466797 195.04867187 -114.01953125 194.078125 C-118.49586692 183.53114233 -117.0192351 169.29697952 -113.2578125 158.828125 C-108.41760748 147.94517955 -100.37052227 139.73688466 -90 134 C-90.41974584 128.12355818 -91.42841134 122.48124585 -92.75 116.75 C-92.89469727 116.06486328 -93.03939453 115.37972656 -93.18847656 114.67382812 C-94.37059194 109.77819879 -96.25225716 107.28528098 -100 104 C-104.18741193 97.50951151 -103.88990828 88.22438387 -102.3515625 80.921875 C-99.63672235 71.31551756 -95.17413143 62.84499849 -89.74609375 54.50390625 C-84.47054221 46.37964297 -80.07841552 38.17222183 -76 29.375 C-68.88550933 14.11991208 -60.25862327 -2.04843316 -44 -9 C-29.22529707 -12.75952733 -12.14122064 -8.97302121 0 0 Z " fill="#11100C" transform="translate(148,27)"/>
<path d="M0 0 C2.07362684 0.00313674 4.14578921 -0.02028423 6.21923828 -0.0456543 C18.9164811 -0.10789245 30.98626892 1.76638462 42.78564453 6.69067383 C43.54417725 6.99811523 44.30270996 7.30555664 45.08422852 7.62231445 C54.55922562 11.51094987 62.57691238 15.73056978 70.47314453 22.31567383 C71.10220703 22.79907227 71.73126953 23.2824707 72.37939453 23.78051758 C81.33643396 30.87150712 85.53126743 40.01612629 86.97314453 51.19067383 C86.50551924 60.44965467 81.58959594 68.26898126 74.91064453 74.35473633 C56.40314967 89.24377867 30.65278714 92.2538509 7.66845703 89.84692383 C-12.90797292 87.35244827 -31.48697556 80.70946357 -47.52685547 67.31567383 C-48.55810547 66.57317383 -49.58935547 65.83067383 -50.65185547 65.06567383 C-56.90582208 59.08361881 -61.84051633 51.15753717 -62.86279297 42.45629883 C-62.99740894 32.49471667 -61.03600357 25.65532224 -54.27685547 18.19067383 C-45.65858658 10.0951106 -33.9939648 4.92752712 -22.52685547 2.31567383 C-21.27001953 1.96891602 -20.01318359 1.6221582 -18.71826172 1.26489258 C-12.53901009 -0.09231889 -6.29584158 -0.01982595 0 0 Z " fill="#FCE12C" transform="translate(140.52685546875,106.684326171875)"/>
<path d="M0 0 C1.54650844 1.21092622 3.09218446 2.42303139 4.62548828 3.65063477 C13.09218084 10.42276353 20.95943836 14.8386387 32.17578125 14.390625 C39.85298191 13.32877152 47.03088979 10.18544636 53.96484375 6.83203125 C64.11334706 2.68302702 77.99901228 4.19215266 88 8 C99.17849069 13.53749307 103.91584355 22.63176388 108 34 C109.16261849 38.31848771 110.03158079 42.67183254 110.875 47.0625 C113.11503698 58.12733074 115.71394162 69.03864423 118.64013672 79.94165039 C122.59655248 94.75017819 126.03114456 109.39168133 119.05078125 123.984375 C116.23789609 128.47609675 112.74509716 130.89502025 107.8125 132.5625 C100.26964445 135.43489177 93.50054982 139.85086495 86.62890625 144.03198242 C85.44596066 144.73497692 84.23079211 145.38460394 83 146 C83.2165625 145.29875 83.433125 144.5975 83.65625 143.875 C86.85562613 132.97342208 86.91671669 124.28219177 81.41796875 114.05859375 C78.36806745 109.06845023 75.58723952 105.64141694 71 102 C71 101.34 71 100.68 71 100 C72.72265625 98.7734375 72.72265625 98.7734375 75.0625 97.375 C85.96138542 90.33185235 91.30870379 80.44363358 94.23828125 68.04296875 C97.11335776 54.18850598 94.75914182 40.5653566 87.66796875 28.4140625 C83.7130052 22.6900169 78.70106678 18.97736397 72 17 C62.33135559 15.76745326 55.56092719 17.81164286 47.84765625 23.62109375 C38.99351312 31.52354395 33.70442613 43.69283944 32.81494141 55.44506836 C32.73342547 57.9668749 32.72671154 60.47708346 32.75 63 C32.74226563 63.83789062 32.73453125 64.67578125 32.7265625 65.5390625 C32.74439986 71.30052877 33.58142611 76.41577262 35 82 C34.38181396 81.88406494 33.76362793 81.76812988 33.12670898 81.64868164 C21.08613087 79.4126541 9.25722678 77.38727415 -3 77 C-1.13168762 72.27273518 0.87167612 67.60713923 2.87890625 62.9375 C7.45814981 50.93892453 6.63319297 34.74776063 1.671875 23.02734375 C-2.60416337 15.28451726 -7.90294549 9.35215994 -16.453125 6.55078125 C-25.21798541 4.65531297 -31.23824361 6.32151203 -39 10.6875 C-49.35445517 18.66905919 -54.7851179 30.24712416 -57 43 C-58.32775848 59.7836971 -54.57782476 72.98673105 -44 86 C-44.66386719 86.45890625 -45.32773438 86.9178125 -46.01171875 87.390625 C-47.83428078 88.65710606 -49.65181209 89.93085045 -51.46484375 91.2109375 C-53.21631004 92.44694915 -54.97883393 93.66738677 -56.75 94.875 C-65.19650532 102.85225502 -67.24391904 111.81796059 -68 123 C-73.18264996 119.27188123 -78.03962394 115.30967189 -82.75390625 111.00390625 C-84.22159377 109.69447373 -85.72934825 108.42828105 -87.27734375 107.21484375 C-91.38887557 103.95089715 -93.98294939 101.52255204 -94.8203125 96.22265625 C-94.90925781 95.12244141 -94.90925781 95.12244141 -95 94 C-95.11988281 92.72962891 -95.11988281 92.72962891 -95.2421875 91.43359375 C-95.88529743 78.1363503 -88.80360597 66.33516402 -81.74609375 55.49609375 C-76.46454126 47.3776731 -72.07810498 39.17014567 -68 30.375 C-61.37072878 16.18075968 -53.46101168 0.18440467 -38 -6 C-25.6477481 -8.93805656 -10.67609333 -7.13684199 0 0 Z " fill="#FBDE28" transform="translate(143,27)"/>
<path d="M0 0 C3.16746823 2.14910261 4.66292628 4.42967769 6 8 C6.69888158 13.64626293 6.34740284 19.33862035 6 25 C2.37 25 -1.26 25 -5 25 C-5 28.3 -5 31.6 -5 35 C-10.445 35.495 -10.445 35.495 -16 36 C-16 40.95 -16 45.9 -16 51 C-13.03 51.33 -10.06 51.66 -7 52 C-6.505 56.95 -6.505 56.95 -6 62 C-1.32798795 63.20568053 3.21496292 63.09382426 8 63 C8.09087891 62.04287109 8.09087891 62.04287109 8.18359375 61.06640625 C8.26738281 60.24011719 8.35117188 59.41382813 8.4375 58.5625 C8.51871094 57.73878906 8.59992188 56.91507813 8.68359375 56.06640625 C9 54 9 54 10 53 C13.6691577 52.85689713 17.32715441 52.95778338 21 53 C21 48.05 21 43.1 21 38 C18.03 37.505 18.03 37.505 15 37 C15.66 34.03 16.32 31.06 17 28 C21 28 21 28 24 30 C23.01 28.8553125 23.01 28.8553125 22 27.6875 C20 25 20 25 20 22 C23.55743512 23.318821 26.82934049 24.9623083 30.1628418 26.76708984 C49.42644187 37.03046368 70.51240818 39.13777351 92 40 C91.71125 40.70382813 91.4225 41.40765625 91.125 42.1328125 C86.93819909 53.26853991 86.35471491 63.87416696 90.60546875 75.109375 C94.29610438 82.75943205 99.29623029 90.06286216 107 94 C107.75410156 94.38929688 108.50820312 94.77859375 109.28515625 95.1796875 C119.05764098 99.45422833 130.94461694 99.72417409 141.0625 96.375 C151.24304722 91.95470189 158.55087164 84.52436342 163.4375 74.5625 C166.99916008 64.69469719 166.44259148 51.86526072 162.25390625 42.3203125 C157.60036357 33.70908399 150.94034989 27.16676941 142 23 C142.99 21.68 143.98 20.36 145 19 C150.08080986 20.30995545 153.33762798 22.61982332 157.0625 26.1875 C157.58908203 26.68580322 158.11566406 27.18410645 158.65820312 27.69750977 C167.3852876 36.09637524 171.92505417 44.87825464 172.52612305 57.19946289 C172.73417569 69.64212824 169.4008888 80.40396158 161.09765625 89.88671875 C151.86898075 99.18413671 141.42631021 104.0705636 128.3125 104.25 C116.39074455 104.1246398 106.10780851 100.8877073 97.3984375 92.4921875 C95.74412372 90.7778986 94.11488323 89.03882279 92.51953125 87.26953125 C86.29786405 81.66520777 80.30756402 81.62288568 72.3125 81.5625 C59.09463593 81.22982853 46.6026191 79.01191656 33.9375 75.25 C27.36492538 73.37950314 21.04042755 72.76130729 14.625 75.375 C10.94530568 79.05469432 9.04483287 83.25888309 7 88 C-5.8949116 88.7448922 -16.68672664 87.86977869 -26.91894531 79.06982422 C-36.22620453 70.56451846 -42.62286971 61.7789782 -43.31640625 48.7265625 C-43.64185851 34.54548151 -40.79123313 22.74098533 -30.6875 12.125 C-23.13992663 5.05703832 -10.72253764 -2.26822912 0 0 Z " fill="#C7CBC8" transform="translate(78,160)"/>
<path d="M0 0 C0.99 0.495 0.99 0.495 2 1 C-0.97 5.62 -3.94 10.24 -7 15 C-6.34 15 -5.68 15 -5 15 C-5.33 16.134375 -5.66 17.26875 -6 18.4375 C-6.45648308 21.67910767 -6.1880112 22.72976067 -4.28515625 25.46484375 C-2.82249618 27.05089167 -1.32257892 28.60349862 0.21484375 30.1171875 C2 32 2 32 2 34 C-1.6777936 33.44833096 -2.98564312 32.19790622 -5.25 29.3125 C-9.51118105 24.2174104 -14.27517751 19.29724957 -21 18 C-21.66 18.99 -22.32 19.98 -23 21 C-22.43152344 21.27972656 -21.86304688 21.55945313 -21.27734375 21.84765625 C-10.71435719 27.33194477 -5.60998054 34.03195906 -1 45 C1.82009972 54.78981015 1.24133983 67.14371564 -3.26953125 76.25390625 C-9.6760954 86.42053063 -17.46586854 92.75476709 -28.84765625 96.62890625 C-40.21410242 98.58863835 -51.50928176 97.55483996 -61.421875 91.52734375 C-70.87474305 84.81834512 -76.67311372 75.30398603 -79 64 C-79.98448934 54.93660843 -78.98060992 47.23298839 -75 39 C-73.03118273 37.03118273 -69.33403622 37.41174522 -66.625 37.125 C-59.87052585 36.35717076 -53.49400016 35.06377124 -47 33 C-45.00376988 42.04174818 -44.90287391 51.45496987 -44.75 60.6875 C-44.7286499 61.37046143 -44.7072998 62.05342285 -44.68530273 62.75708008 C-44.65185775 67.59444161 -44.65185775 67.59444161 -46.4921875 69.73828125 C-46.98976562 70.15464844 -47.48734375 70.57101563 -48 71 C-48.36528977 74.4093712 -48.6140629 76.88023824 -46.9375 79.9375 C-43.88023824 81.6140629 -41.4093712 81.36528977 -38 81 C-35.91666667 80.08333333 -35.91666667 80.08333333 -35 78 C-34.33323122 74.54250051 -34.33323122 74.54250051 -35 71 C-35.845625 70.38125 -36.69125 69.7625 -37.5625 69.125 C-38.7690625 68.073125 -38.7690625 68.073125 -40 67 C-40.28385732 62.80351477 -39.31910201 58.95730602 -38 55 C-38.45375 55.45375 -38.9075 55.9075 -39.375 56.375 C-40.58333333 57.58333333 -41.79166667 58.79166667 -43 60 C-43.24311625 55.98093674 -43.45778248 51.96142503 -43.64697266 47.93945312 C-43.71514166 46.57348845 -43.79087363 45.20787826 -43.87451172 43.84277344 C-43.99385648 41.87286589 -44.08315641 39.90121176 -44.171875 37.9296875 C-44.2661377 36.15440674 -44.2661377 36.15440674 -44.36230469 34.34326172 C-43.91820436 30.24520925 -42.55164853 28.19123842 -40 25 C-37.66796875 23.34765625 -37.66796875 23.34765625 -35.1875 22.0625 C-30.28921124 19.31397568 -26.76409996 16.12353656 -23 12 C-21.66666667 10.66666667 -20.33333333 9.33333333 -19 8 C-18.34 8.66 -17.68 9.32 -17 10 C-16.10796875 9.44570312 -15.2159375 8.89140625 -14.296875 8.3203125 C-13.11463883 7.58845201 -11.93234407 6.85668616 -10.75 6.125 C-10.16347656 5.76019531 -9.57695312 5.39539063 -8.97265625 5.01953125 C-2.40009492 0.95783605 -2.40009492 0.95783605 0 0 Z " fill="#4A6066" transform="translate(244,162)"/>
<path d="M0 0 C8.81508284 5.08562471 14.0441682 11.67702255 17.06640625 21.5390625 C20.298356 36.86257248 18.52642055 52.42850077 9.890625 65.6875 C6.25768642 70.53141811 1.92435709 75.48579702 -3.75 77.875 C-8.62821397 77.49772806 -12.2777943 75.01390707 -16.375 72.5625 C-21.18697008 69.72282045 -25.578204 67.44274256 -31 65.9375 C-34.77699828 64.61981037 -36.60247662 63.54405114 -38.4375 59.9375 C-42.29239314 47.22013195 -41.21891121 29.9669228 -35.390625 18.109375 C-27.7251876 4.59607815 -15.92418753 -4.77725626 0 0 Z " fill="#FCFCFC" transform="translate(217.75,47.125)"/>
<path d="M0 0 C7.41716444 6.47430456 13.15825183 14.60086538 14.02075195 24.67724609 C14.40706464 38.5814246 13.78963325 50.90035955 6.3828125 63.15625 C2.7822943 66.55572403 -2.43132006 66.89375876 -7.15625 67.484375 C-13.38109064 68.36342827 -19.18161022 69.98188004 -25.16015625 71.90234375 C-28.13320792 72.60393743 -29.41241682 72.84852547 -32.15625 71.609375 C-40.18306841 65.18439974 -42.82150562 55.42660702 -44.15625 45.609375 C-45.18850658 30.83626029 -42.45477273 18.36375756 -33.15625 6.609375 C-24.34230827 -2.38278982 -11.49536157 -8.38596049 0 0 Z " fill="#FDFDFD" transform="translate(132.15625,38.390625)"/>
<path d="M0 0 C9.90103277 3.2105124 19.76508006 3.63888144 30.09790039 4.02392578 C32.14971048 4.10377019 34.19939097 4.20661495 36.25 4.3125 C37.46002686 4.3626123 38.67005371 4.41272461 39.91674805 4.46435547 C45.04417619 5.382491 48.17195469 7.81945064 51.61328125 11.6328125 C54.57285211 15.90774819 54.79803396 20.01641675 54.30078125 25.0703125 C52.70305272 31.8009012 49.55740645 36.97606708 43.70703125 40.73828125 C30.24154384 48.35786485 12.36629973 48.20354275 -2.51171875 44.4453125 C-12.99334073 41.34649272 -23.42376701 36.61597584 -29.01171875 26.75390625 C-31.99437059 20.13614747 -33.37134211 13.49732764 -30.74609375 6.546875 C-24.1076163 -6.43597013 -12.13462895 -4.24948096 0 0 Z " fill="#FDE22C" transform="translate(118.69921875,238.9296875)"/>
<path d="M0 0 C3.63 0 7.26 0 11 0 C11.226875 1.44375 11.45375 2.8875 11.6875 4.375 C13.68962061 14.13706392 17.74511238 21.30193598 26 27 C37.69158282 34.51451822 50.77810486 36.34866556 64.375 36.4375 C65.37289551 36.4475708 66.37079102 36.4576416 67.39892578 36.46801758 C77.75887665 36.34659172 87.10047316 33.98025251 95 27 C99.15581418 21.76307903 101.01398043 16.97309476 101.5625 10.3125 C101.68818359 8.82169922 101.68818359 8.82169922 101.81640625 7.30078125 C101.87699219 6.54152344 101.93757813 5.78226562 102 5 C102.70125 5.39832031 103.4025 5.79664063 104.125 6.20703125 C111.55948715 10.35862666 118.43630821 13.92953853 127 15 C123.86582117 26.49198903 119.91324315 37.74942593 116 49 C76.73 49 37.46 49 -3 49 C-2.34 41.41 -1.68 33.82 -1 26 C-0.7484416 21.18004608 -0.51740365 16.38345694 -0.375 11.5625 C-0.33632812 10.42619141 -0.29765625 9.28988281 -0.2578125 8.11914062 C-0.16646388 5.41293765 -0.08234323 2.70649195 0 0 Z " fill="#A88F0C" transform="translate(73,251)"/>
<path d="M0 0 C1.60294922 0.01353516 1.60294922 0.01353516 3.23828125 0.02734375 C4.04652344 0.03894531 4.85476562 0.05054687 5.6875 0.0625 C4.6975 0.7225 3.7075 1.3825 2.6875 2.0625 C2.32398437 2.97708984 2.32398437 2.97708984 1.953125 3.91015625 C-0.01275147 7.25335975 -3.26266853 8.66640842 -6.5625 10.5 C-21.34705634 18.82175912 -28.12128409 30.81504398 -32.84741211 46.88085938 C-33.38371267 49.39654535 -33.4421046 51.70116275 -33.4453125 54.2734375 C-33.44660156 55.27117187 -33.44789062 56.26890625 -33.44921875 57.296875 C-33.44341797 58.85148437 -33.44341797 58.85148437 -33.4375 60.4375 C-33.44136719 61.46617188 -33.44523437 62.49484375 -33.44921875 63.5546875 C-33.44282143 68.5190049 -33.27248826 73.17658959 -32.3125 78.0625 C-31.51576603 85.19689058 -31.33865772 90.53613123 -35.6875 96.5 C-36.62722656 97.61181641 -36.62722656 97.61181641 -37.5859375 98.74609375 C-42.17612162 104.90441769 -41.55501664 111.59722965 -41.4375 118.9375 C-41.42847656 120.00742188 -41.41945313 121.07734375 -41.41015625 122.1796875 C-41.38669342 124.80752439 -41.35386459 127.43489406 -41.3125 130.0625 C-46.45309111 126.27091984 -51.34775231 122.3761647 -56.06640625 118.06640625 C-57.53409377 116.75697373 -59.04184825 115.49078105 -60.58984375 114.27734375 C-64.70137557 111.01339715 -67.29544939 108.58505204 -68.1328125 103.28515625 C-68.22175781 102.18494141 -68.22175781 102.18494141 -68.3125 101.0625 C-68.43238281 99.79212891 -68.43238281 99.79212891 -68.5546875 98.49609375 C-69.19779743 85.1988503 -62.11610597 73.39766402 -55.05859375 62.55859375 C-49.77704126 54.4401731 -45.39060498 46.23264567 -41.3125 37.4375 C-34.68322878 23.24325968 -26.77351168 7.24690467 -11.3125 1.0625 C-7.48640514 0.11252782 -3.93544592 -0.04324666 0 0 Z " fill="#EDCA02" transform="translate(116.3125,19.9375)"/>
<path d="M0 0 C4.9076122 3.79096621 8.39147689 8.37992016 11 14 C11.37253906 14.70898438 11.74507813 15.41796875 12.12890625 16.1484375 C17.54051622 28.10300446 16.63322362 44.12098562 12.22265625 56.24609375 C10.40946058 60.33012872 8.38324149 64.22002272 6 68 C6.86238281 67.96519531 7.72476563 67.93039063 8.61328125 67.89453125 C16.28745387 67.72435424 23.59853101 68.17735783 31.1875 69.375 C32.40723511 69.56412964 32.40723511 69.56412964 33.65161133 69.75708008 C37.48843047 70.40184589 40.55055402 71.13249316 44 73 C43.78778809 72.46415283 43.57557617 71.92830566 43.35693359 71.3762207 C41.19953984 65.51890297 40.52015607 60.40522725 40.625 54.1875 C40.63515137 53.3116626 40.64530273 52.4358252 40.65576172 51.53344727 C40.9807216 37.89898697 44.80255943 26.22341263 54.25 16.125 C60.45138709 10.35843471 66.41535343 6.80368274 75 6.375 C83.16815744 6.7734467 89.32897736 9.84257754 94.875 15.8125 C103.87443434 27.15685737 106.26481016 40.75651287 105 55 C102.77550043 68.22782777 97.37130811 79.31186361 87 88 C82.64516129 91 82.64516129 91 80 91 C80 91.66 80 92.32 80 93 C80.57621094 93.22300781 81.15242187 93.44601563 81.74609375 93.67578125 C88.92202269 97.89179496 93.49209397 107.65378772 95.6875 115.4375 C96.5058112 122.14765185 96.52491297 128.98923422 93 135 C90.890625 135.75390625 90.890625 135.75390625 89 136 C89.2165625 135.3709375 89.433125 134.741875 89.65625 134.09375 C92.73934499 124.61608761 92.93986022 117.30597809 89 108 C84.61204435 99.86165491 78.38234028 94.41012383 71 89 C70.35417969 88.51789063 69.70835937 88.03578125 69.04296875 87.5390625 C62.65714077 83.17054401 55.18330921 80.74141779 48 78 C47.2678125 77.68933594 46.535625 77.37867187 45.78125 77.05859375 C34.20599728 72.21018746 21.505649 71.4438688 9.125 71.5625 C8.42689209 71.56620605 7.72878418 71.56991211 7.00952148 71.57373047 C-12.28630473 71.7192595 -32.15026372 75.39237272 -46.52734375 89.421875 C-47.25630859 90.20304687 -47.25630859 90.20304687 -48 91 C-48.763125 91.804375 -49.52625 92.60875 -50.3125 93.4375 C-54.1400914 99.24976842 -55.38798946 105.14548192 -56 112 C-56.33 112 -56.66 112 -57 112 C-57.144375 111.2575 -57.28875 110.515 -57.4375 109.75 C-57.92086497 107.11598642 -57.92086497 107.11598642 -58.62890625 105.08984375 C-59.48445059 100.27177828 -55.98732025 95.55113879 -53.48828125 91.625 C-49.92953938 86.71410213 -46.21693593 83.39893722 -41.015625 80.2890625 C-39.05269297 79.03369899 -37.57609339 77.70577196 -36 76 C-36.45890625 75.52691406 -36.9178125 75.05382812 -37.390625 74.56640625 C-47.2639966 63.92556669 -49.57356043 51.66496001 -49.31640625 37.3671875 C-47.93737908 22.69161436 -41.53417899 11.04631822 -31 1 C-21.57168908 -6.01126839 -10.01084784 -5.72048448 0 0 Z M-34.5 8.5 C-44.46321316 20.34098061 -46.99588796 32.94096691 -46 48 C-44.2308181 59.31791709 -40.72882057 66.65710875 -33 75 C-28.07092778 73.93203435 -23.18837987 72.78932662 -18.3125 71.5 C-12.58997124 70.01610936 -6.91451011 69.33708535 -1.03125 68.8203125 C2.8951181 67.75776443 3.87363704 66.42292574 6 63 C7.49617585 59.84649868 7.49617585 59.84649868 8.6875 56.5 C9.31205078 54.84484375 9.31205078 54.84484375 9.94921875 53.15625 C13.63989597 42.07049835 14.05511398 27.01729831 9.265625 16.2578125 C5.197732 9.00089228 -0.08539337 2.24040054 -8 -1 C-18.84006418 -2.11348091 -26.94430242 0.49594235 -34.5 8.5 Z M61 14 C60.01 14.639375 59.02 15.27875 58 15.9375 C49.43427201 23.58798582 44.62673389 35.18287196 43.82861328 46.41113281 C42.87019855 60.16183882 42.87019855 60.16183882 46.30078125 73.2109375 C49.34403013 76.41509379 53.19758944 77.41244906 57.3359375 78.7109375 C62.63333714 80.57462821 67.12745377 83.41262088 71.90625 86.328125 C74.78556837 87.88412028 76.7453148 88.8421641 80 89 C89.41898464 84.58600524 95.45703976 75.21407602 99 65.8671875 C99.495 64.44792969 99.495 64.44792969 100 63 C100.2475 62.32195312 100.495 61.64390625 100.75 60.9453125 C104.32970022 49.36100486 102.72438893 34.89582422 97.3125 24.1875 C93.1371716 17.08336114 88.0033687 12.40101061 80 10 C72.67208777 9.11010361 67.15698203 9.90444654 61 14 Z " fill="#161407" transform="translate(134,36)"/>
<path d="M0 0 C1.86328125 0.20703125 1.86328125 0.20703125 4 1 C5.23046875 3.07421875 5.23046875 3.07421875 6.1875 5.6875 C6.51105469 6.53699219 6.83460938 7.38648438 7.16796875 8.26171875 C11.14783288 21.35976926 9.63083942 34.85829109 3.4921875 46.9765625 C-3.27261666 58.39806906 -12.85902052 65.63584732 -25.44921875 69.8125 C-30.65822088 71.1215686 -35.6485011 71.16988885 -41 71 C-41.25007812 72.2375 -41.50015625 73.475 -41.7578125 74.75 C-43.06998376 80.63516881 -44.93080437 86.29750798 -46.875 92 C-47.38353516 93.57201172 -47.38353516 93.57201172 -47.90234375 95.17578125 C-48.41087891 96.66658203 -48.41087891 96.66658203 -48.9296875 98.1875 C-49.38190674 99.53908203 -49.38190674 99.53908203 -49.84326172 100.91796875 C-51 103 -51 103 -53.12939453 103.80078125 C-53.74669434 103.86652344 -54.36399414 103.93226563 -55 104 C-52.97359864 96.12667751 -50.52967236 88.47266584 -47.8125 80.8125 C-47.44447266 79.76513672 -47.07644531 78.71777344 -46.69726562 77.63867188 C-45.80158738 75.09122337 -44.90246184 72.54505148 -44 70 C-44.57572754 69.96189209 -45.15145508 69.92378418 -45.74462891 69.88452148 C-50.88651833 69.44617728 -54.76393344 68.5374688 -59.375 66.0625 C-60.37273437 65.53785156 -61.37046875 65.01320313 -62.3984375 64.47265625 C-64.31027094 63.39043221 -66.17207886 62.21861409 -68 61 C-68.07476562 61.83402344 -68.14953125 62.66804688 -68.2265625 63.52734375 C-69.26808739 72.44157145 -71.14852569 78.77931011 -78.04296875 84.77734375 C-86.75873541 91.08663325 -96.05958317 92.5441266 -106.625 92.4375 C-107.67316895 92.43065186 -108.72133789 92.42380371 -109.80126953 92.41674805 C-126.05036657 92.08398927 -140.77368558 87.90307475 -152.79296875 76.52734375 C-157.35910035 71.29851694 -160.25056557 65.32347778 -160.3125 58.3125 C-160.209375 57.219375 -160.10625 56.12625 -160 55 C-163.63 55 -167.26 55 -171 55 C-170.97679687 56.63324219 -170.95359375 58.26648438 -170.9296875 59.94921875 C-170.56738122 97.13476244 -170.56738122 97.13476244 -174 104 C-174.99 104 -175.98 104 -177 104 C-176.94013916 103.36288086 -176.88027832 102.72576172 -176.81860352 102.06933594 C-175.93553647 92.14273905 -175.4430676 82.2012091 -174.9375 72.25 C-174.84587577 70.47394942 -174.75408016 68.69790767 -174.66210938 66.921875 C-174.43943238 62.61468251 -174.21906784 58.3073775 -174 54 C-175.10448486 53.85087158 -176.20896973 53.70174316 -177.34692383 53.5480957 C-189.44933649 51.73228895 -197.63840707 42.64668986 -204.98828125 33.53515625 C-211.93553336 23.72625687 -212.41724004 14.72908125 -212 3 C-211.34 2.67 -210.68 2.34 -210 2 C-209.90203125 2.94359375 -209.8040625 3.8871875 -209.703125 4.859375 C-208.22522533 17.54892734 -206.01593081 28.39256677 -197 38 C-196.34128906 38.7115625 -195.68257812 39.423125 -195.00390625 40.15625 C-184.78233816 50.20902155 -172.67042344 51.8069645 -159 52 C-158.88140625 51.24976563 -158.7628125 50.49953125 -158.640625 49.7265625 C-157.49529157 44.85191169 -154.5257634 41.39113722 -150.875 38.0625 C-142.24251904 34.8722353 -132.73741125 37.69346924 -124.1875 39.9375 C-122.01475414 40.48997992 -119.84158949 41.04081599 -117.66796875 41.58984375 C-116.72203857 41.83597412 -115.7761084 42.08210449 -114.80151367 42.33569336 C-110.06722544 43.45830759 -105.52873544 44.11396103 -100.6640625 44.17578125 C-99.68179688 44.19962891 -98.69953125 44.22347656 -97.6875 44.24804688 C-95.6538561 44.29084678 -93.61993722 44.32218891 -91.5859375 44.34179688 C-83.69482009 44.56386366 -78.29496271 45.97920212 -72.41796875 51.3671875 C-71.68191406 52.19476563 -70.94585937 53.02234375 -70.1875 53.875 C-62.13948714 62.24394589 -53.11012333 66.57461155 -41.57421875 67.1796875 C-35.38747328 67.29728139 -29.82808607 67.28552395 -24 65 C-22.94425781 64.5978125 -22.94425781 64.5978125 -21.8671875 64.1875 C-11.29930141 59.88869888 -3.5853379 53.1706758 1.546875 42.90625 C7.06051241 29.40093589 6.60358591 16.36759048 1 3 C0.67 2.01 0.34 1.02 0 0 Z M-153 44 C-157.09518832 49.5890306 -157.99604736 55.21250203 -157 62 C-154.78358958 70.77383768 -150.57817193 76.23354184 -142.890625 80.87890625 C-130.98690329 87.21433147 -120.15800141 89.23785193 -106.75 89.375 C-105.73180176 89.38909912 -104.71360352 89.40319824 -103.66455078 89.41772461 C-93.43707657 89.35181088 -84.8318101 86.78453317 -77 80 C-72.04845898 73.88131003 -70.17406561 67.90755705 -71 60 C-73.00296668 54.32492775 -76.61350179 50.69324911 -82 48 C-84.08806259 47.83496794 -86.18055793 47.72486304 -88.2734375 47.640625 C-123.01783083 45.99108458 -123.01783083 45.99108458 -135 40 C-141.83289051 39.37603844 -147.87004662 38.87004662 -153 44 Z " fill="#17160B" transform="translate(244,196)"/>
<path d="M0 0 C1.54721768 1.22217195 3.08893224 2.4513436 4.625 3.6875 C12.19705868 9.68425276 20.66352642 11.68044865 30.31640625 10.78515625 C35.72471285 9.76928471 40.43018089 7.49980108 45.38671875 5.17578125 C58.27275037 -0.6219699 72.01601714 1.7141615 85 6 C94.42333663 10.06128465 99.80654023 17.83747972 103.83325195 26.96630859 C105.718443 31.868042 106.73465301 36.85909667 107.75 42 C110.44876448 54.90980939 113.66590974 67.64339007 117.01660156 80.39648438 C117.20669296 81.12332932 117.39678436 81.85017426 117.59263611 82.5990448 C118.11081113 84.57823584 118.63302427 86.5563684 119.15551758 88.53442383 C122.58793459 102.62033292 121.63314782 115.39050823 115.3125 128.5 C112.60557363 131.42640688 109.89155634 132.72761693 106.37890625 134.52734375 C99.83697994 138.57710766 95.43986313 145.26360136 92 152 C91.01 152 90.02 152 89 152 C89 148.00992254 90.89529869 145.66921198 93 142.4375 C95.87202627 138.51868868 95.87202627 138.51868868 97 134 C97.81984375 133.69707031 98.6396875 133.39414063 99.484375 133.08203125 C100.56203125 132.66308594 101.6396875 132.24414062 102.75 131.8125 C103.81734375 131.40644531 104.8846875 131.00039062 105.984375 130.58203125 C110.06834726 128.43953285 112.15136552 125.91352331 114.01171875 121.71875 C114.23472656 120.9865625 114.45773437 120.254375 114.6875 119.5 C114.91824219 118.7678125 115.14898437 118.035625 115.38671875 117.28125 C118.4807193 105.77235624 116.58412425 95.65108832 113.75 84.25 C113.42442278 82.9014338 113.09980334 81.55263603 112.77612305 80.20361328 C110.94559238 72.62006023 108.98448769 65.08124396 106.890625 57.56640625 C105.97061246 53.88232096 105.25288577 50.19590456 104.55786133 46.46435547 C102.10676426 33.34271116 98.97853741 19.30757379 87.375 11.1875 C76.66660343 5.19565617 62.57583868 3.88319138 50.8125 7.1875 C46.01081553 8.86849172 41.32721425 10.88393047 36.6640625 12.9140625 C28.29781499 16.32435108 19.44302593 15.96686898 11.07421875 12.671875 C6.33962393 10.09702547 2.28343153 6.70978319 -1.93164062 3.37084961 C-7.96494342 -1.27562751 -13.48290986 -3.50506388 -21 -5 C-21.82628906 -5.18691406 -22.65257813 -5.37382812 -23.50390625 -5.56640625 C-33.39859244 -7.2852015 -42.60264071 -6.1662496 -51 -0.5625 C-63.45773863 9.61009131 -70.04260009 25.76745461 -76.90234375 39.90234375 C-80.36008402 47.00494905 -84.15600303 53.69902295 -88.44946289 60.3215332 C-90.97588998 64.23898847 -93.07785503 68.12505372 -94.90356445 72.42041016 C-96 74 -96 74 -98.12182617 74.72412109 C-98.74162354 74.81516113 -99.3614209 74.90620117 -100 75 C-98.0005747 67.60212637 -93.97550438 60.97895729 -89.8046875 54.609375 C-84.49070987 46.46389369 -80.09335121 38.20536469 -76 29.375 C-68.88558493 14.11991009 -60.25857604 -2.04845335 -44 -9 C-29.22529707 -12.75952733 -12.14122064 -8.97302121 0 0 Z " fill="#1F1E16" transform="translate(148,27)"/>
<path d="M0 0 C0.70125 0.39832031 1.4025 0.79664063 2.125 1.20703125 C9.55948715 5.35862666 16.43630821 8.92953853 25 10 C22.97364709 17.87313427 20.52912454 25.52768413 17.8125 33.1875 C16.554375 36.755625 15.29625 40.32375 14 44 C3.44 44 -7.12 44 -18 44 C-17.113125 41.1125 -16.22625 38.225 -15.3125 35.25 C-15.04477783 34.34668945 -14.77705566 33.44337891 -14.5012207 32.51269531 C-12.89747354 27.51083765 -11.46502312 25.03564963 -7 22 C-5.4327999 20.01842472 -5.4327999 20.01842472 -4.25 17.9375 C-3.63898438 16.93009766 -3.63898438 16.93009766 -3.015625 15.90234375 C-1.14589058 12.40018735 -0.75883221 9.21439112 -0.4375 5.3125 C-0.35371094 4.31863281 -0.26992187 3.32476562 -0.18359375 2.30078125 C-0.09271484 1.16189453 -0.09271484 1.16189453 0 0 Z " fill="#D9B900" transform="translate(175,256)"/>
<path d="M0 0 C8.74346114 2.56058505 17.97173537 3.08451254 27 4 C27 4.33 27 4.66 27 5 C25.27499268 4.9685791 25.27499268 4.9685791 23.51513672 4.93652344 C19.23254944 4.86390937 14.95001617 4.81812271 10.66699219 4.78027344 C8.81631304 4.76020661 6.96569691 4.73294655 5.11523438 4.69824219 C2.44906023 4.64950567 -0.21627287 4.62698213 -2.8828125 4.609375 C-3.70492218 4.58872986 -4.52703186 4.56808472 -5.37405396 4.54681396 C-10.72865217 4.54474087 -13.76800459 5.41740117 -18 9 C-21.00045149 13.50067724 -20.56353304 17.72590873 -20 23 C-18.19012841 29.71256171 -13.87975525 33.58526011 -8 37 C-1.72292988 39.95935534 4.28675547 41.12552032 11.18359375 41.1328125 C12.35857422 41.13410156 13.53355469 41.13539063 14.74414062 41.13671875 C15.96294922 41.13285156 17.18175781 41.12898438 18.4375 41.125 C19.65244141 41.12886719 20.86738281 41.13273437 22.11914062 41.13671875 C23.29541016 41.13542969 24.47167969 41.13414062 25.68359375 41.1328125 C26.75150146 41.13168457 27.81940918 41.13055664 28.91967773 41.12939453 C32.02138449 40.99910171 34.95209459 40.57524895 38 40 C29.54300981 47.44215137 16.40936907 45.58249747 5.95214844 45.1953125 C-7.04849177 44.33519737 -20.58777767 39.7887588 -29.5625 29.97265625 C-33.80106341 24.1561494 -35.7703116 17.64294848 -35.453125 10.4609375 C-34.46520978 5.0955359 -32.06917111 0.53194913 -27.66796875 -2.7265625 C-18.75469585 -6.98092116 -8.71572088 -2.95063467 0 0 Z " fill="#EAC700" transform="translate(122,240)"/>
<path d="M0 0 C-1.46592567 3.69703233 -3.32275769 5.17064315 -6.625 7.3125 C-21.08618582 17.15442934 -29.51955207 29.52525104 -33 47 C-33.37559859 53.39622304 -32.81802644 59.66029507 -32 66 C-31.34 66 -30.68 66 -30 66 C-29.34 68.97 -28.68 71.94 -28 75 C-31.3 74.34 -34.6 73.68 -38 73 C-38.33 72.01 -38.66 71.02 -39 70 C-40.32 70 -41.64 70 -43 70 C-43.57824248 53.9055844 -41.3845741 38.44064044 -37 23 C-36.61703091 21.63155423 -36.23421906 20.26306444 -35.8515625 18.89453125 C-34.9210046 15.59044116 -33.96746436 12.29349568 -33 9 C-32.2575 8.87625 -31.515 8.7525 -30.75 8.625 C-28.14338024 8.03258642 -26.34202831 7.24434142 -24 6 C-22.02660268 5.15309496 -20.04690265 4.32078697 -18.0625 3.5 C-17.04285156 3.0771875 -16.02320313 2.654375 -14.97265625 2.21875 C-13.99167969 1.8165625 -13.01070312 1.414375 -12 1 C-11.12859375 0.61070313 -10.2571875 0.22140625 -9.359375 -0.1796875 C-6.03806785 -1.33444661 -3.39554693 -0.66579352 0 0 Z " fill="#EFCD02" transform="translate(206,34)"/>
<path d="M0 0 C3.49406769 1.66762322 4.82670681 2.74006022 7 6 C7.54270941 10.1090855 7.4975681 12.24066781 5.203125 15.7421875 C1.07225608 20.43705772 -4.44834302 23.50372865 -9.6875 26.8125 C-10.74517578 27.49248047 -11.80285156 28.17246094 -12.89257812 28.87304688 C-23.33402454 35.56491317 -23.33402454 35.56491317 -30 35 C-32.75329021 33.20437595 -34.52627461 31.94745078 -36 29 C-36.48428187 25.47166063 -36.67930988 23.02193556 -34.66015625 19.984375 C-33.16399659 18.25235017 -31.63500498 16.60094238 -30 15 C-29.67 15.99 -29.34 16.98 -29 18 C-29.495 18.350625 -29.99 18.70125 -30.5 19.0625 C-32.79395236 22.02552179 -32.38888282 24.37042697 -32 28 C-31.08333333 30.08333333 -31.08333333 30.08333333 -29 31 C-25.5906288 31.36528977 -23.11976176 31.6140629 -20.0625 29.9375 C-18.34010208 26.79665674 -18.50851759 24.50181214 -19 21 C-20.62626404 19.61767557 -22.2925002 18.28062485 -24 17 C-24.625 14.5 -24.625 14.5 -24 12 C-20.44857587 8.85760644 -16.55854411 6.29165349 -12.5625 3.75 C-10.92474609 2.69039062 -10.92474609 2.69039062 -9.25390625 1.609375 C-5.76977044 -0.11387104 -3.82534385 -0.43826429 0 0 Z " fill="#CDC8C4" transform="translate(228,212)"/>
<path d="M0 0 C0.66 0.33 1.32 0.66 2 1 C-0.97 5.62 -3.94 10.24 -7 15 C-6.34 15 -5.68 15 -5 15 C-5.33 16.134375 -5.66 17.26875 -6 18.4375 C-6.45648308 21.67910767 -6.1880112 22.72976067 -4.28515625 25.46484375 C-2.82249618 27.05089167 -1.32257892 28.60349862 0.21484375 30.1171875 C2 32 2 32 2 34 C-1.6777936 33.44833096 -2.98564312 32.19790622 -5.25 29.3125 C-9.23201405 24.55121009 -14.45158414 18.65747147 -21 18 C-23.74685495 20.07980554 -23.74685495 20.07980554 -25.33984375 21.67578125 C-27.40502042 23.32306334 -29.52754187 24.10891103 -32 25 C-32.22151549 26.79008467 -32.42682213 28.58218162 -32.625 30.375 C-32.74101562 31.37273437 -32.85703125 32.37046875 -32.9765625 33.3984375 C-32.98429688 34.25695312 -32.99203125 35.11546875 -33 36 C-32.34 36.66 -31.68 37.32 -31 38 C-30.43358058 45.13688469 -30.43358058 45.13688469 -32.3125 48 C-34 49 -34 49 -37 49 C-37.1546875 50.3921875 -37.1546875 50.3921875 -37.3125 51.8125 C-38.02265731 55.10504753 -38.46042107 55.96833686 -41 58 C-41.66 58.66 -42.32 59.32 -43 60 C-43.24311625 55.98093674 -43.45778248 51.96142503 -43.64697266 47.93945312 C-43.71514166 46.57348845 -43.79087363 45.20787826 -43.87451172 43.84277344 C-43.99385648 41.87286589 -44.08315641 39.90121176 -44.171875 37.9296875 C-44.2347168 36.74616699 -44.29755859 35.56264648 -44.36230469 34.34326172 C-43.91820436 30.24520925 -42.55164853 28.19123842 -40 25 C-37.66796875 23.34765625 -37.66796875 23.34765625 -35.1875 22.0625 C-30.28921124 19.31397568 -26.76409996 16.12353656 -23 12 C-21.66666667 10.66666667 -20.33333333 9.33333333 -19 8 C-18.34 8.66 -17.68 9.32 -17 10 C-16.10796875 9.44570312 -15.2159375 8.89140625 -14.296875 8.3203125 C-13.11463883 7.58845201 -11.93234407 6.85668616 -10.75 6.125 C-10.16347656 5.76019531 -9.57695312 5.39539063 -8.97265625 5.01953125 C-2.40009492 0.95783605 -2.40009492 0.95783605 0 0 Z " fill="#100F0A" transform="translate(244,162)"/>
<path d="M0 0 C0 0.66 0 1.32 0 2 C-1.6875 3.19140625 -1.6875 3.19140625 -4 4.5625 C-11.7764178 9.63247948 -17.58820079 15.86861659 -20.36328125 24.859375 C-22.64544885 36.11620171 -21.68433104 44.93260503 -16.078125 54.92578125 C-13.17830745 59.21554894 -9.9045229 62.63022697 -6 66 C-4.9920863 66.99202317 -3.98925649 67.98937069 -3 69 C-13.96061388 65.06997809 -23.56377252 56.23533671 -29.4375 46.25 C-32.44553364 39.52221048 -32.99055773 31.25099624 -30.9375 24.1875 C-26.11201702 12.31942023 -16.65989865 6.60609536 -5.63671875 1.1015625 C-3 0 -3 0 0 0 Z " fill="#E9C701" transform="translate(112,113)"/>
<path d="M0 0 C3.79000783 3.79000783 2.78132828 9.97820438 2.85351562 15.09448242 C2.71883768 19.64103774 2.57473555 22.22199174 -0.17578125 25.9453125 C-4.28140308 28.65967935 -8.45968184 30.2886004 -13.375 30.75 C-17.86409112 29.82122253 -19.37337287 28.74095379 -22 25 C-23.25 21.6875 -23.25 21.6875 -23 18 C-18.64324846 9.39407104 -7.98466169 4.67768896 0 0 Z " fill="#CBC8C5" transform="translate(196,198)"/>
<path d="M0 0 C3.55743512 1.318821 6.82934049 2.9623083 10.1628418 4.76708984 C29.42644187 15.03046368 50.51240818 17.13777351 72 18 C71.34 19.98 70.68 21.96 70 24 C43.97671414 24.79482887 19.93379697 20.59171687 -3 8 C-2.67 7.01 -2.34 6.02 -2 5 C-1.360625 5.33 -0.72125 5.66 -0.0625 6 C1.76794567 7.07271225 1.76794567 7.07271225 3 7 C2.505 6.401875 2.01 5.80375 1.5 5.1875 C0 3 0 3 0 0 Z " fill="#959896" transform="translate(98,182)"/>
<path d="M0 0 C0.33 0 0.66 0 1 0 C1.33 6.27 1.66 12.54 2 19 C2.99 15.535 2.99 15.535 4 12 C8.00200378 10.39919849 11.04556236 11.70720308 15 13 C15.02730408 14.56240032 15.04653226 16.1249427 15.0625 17.6875 C15.07410156 18.55761719 15.08570313 19.42773438 15.09765625 20.32421875 C15 23 15 23 14 28 C10.37 28.33 6.74 28.66 3 29 C2.855625 30.464375 2.71125 31.92875 2.5625 33.4375 C2.125 37.875 2.125 37.875 1 39 C-4.3654663 39.4857159 -8.97510856 39.06149392 -14 37 C-13.67 35.68 -13.34 34.36 -13 33 C-12.34 33.66 -11.68 34.32 -11 35 C-7.98173347 35.27240673 -5.03629378 35.08675125 -2 35 C-2 29.72 -2 24.44 -2 19 C-4.2584375 19.0309375 -4.2584375 19.0309375 -6.5625 19.0625 C-10.82520221 19.06856359 -14.80529195 18.72951444 -19 18 C-19 16.68 -19 15.36 -19 14 C-15.37 14 -11.74 14 -8 14 C-7.67 10.7 -7.34 7.4 -7 4 C-5.02 4 -3.04 4 -1 4 C-0.67 2.68 -0.34 1.36 0 0 Z " fill="#0B0E0F" transform="translate(85,185)"/>
<path d="M0 0 C9.57424457 5.45562893 14.46183352 14.27165341 17.4375 24.5625 C20.35515891 37.39375133 18.59455953 48.70322781 14.6875 61 C13.6975 60.34 12.7075 59.68 11.6875 59 C11.9040625 58.22398438 12.120625 57.44796875 12.34375 56.6484375 C16.24847732 41.49954168 16.41285469 26.1315351 8.32421875 12.3828125 C4.61486615 6.98256169 -0.02836184 3.95735451 -6.3125 2 C-15.06571246 0.92550386 -20.74354197 2.73232749 -27.78125 7.765625 C-37.72513406 16.54325106 -41.00068391 29.17746071 -41.86352539 41.89550781 C-42.05870643 45.26281727 -42.19667303 48.62903564 -42.3125 52 C-43.3025 51.67 -44.2925 51.34 -45.3125 51 C-45.84259455 35.52909248 -44.42836038 21.99712303 -34.2734375 9.48828125 C-24.90158973 -0.52932989 -13.33517106 -5.94922654 0 0 Z " fill="#15130B" transform="translate(220.3125,45)"/>
<path d="M0 0 C0.33 0 0.66 0 1 0 C1.09796875 0.94359375 1.1959375 1.8871875 1.296875 2.859375 C2.77477467 15.54892734 4.98406919 26.39256677 14 36 C14.65871094 36.7115625 15.31742188 37.423125 15.99609375 38.15625 C25.73679743 47.73609802 37.92382863 49.78823861 51 51 C51 51.66 51 52.32 51 53 C47.37 53 43.74 53 40 53 C40.02320313 54.63324219 40.04640625 56.26648438 40.0703125 57.94921875 C40.43261878 95.13476244 40.43261878 95.13476244 37 102 C36.01 102 35.02 102 34 102 C34.05986084 101.36288086 34.11972168 100.72576172 34.18139648 100.06933594 C35.06446353 90.14273905 35.5569324 80.2012091 36.0625 70.25 C36.15412423 68.47394942 36.24591984 66.69790767 36.33789062 64.921875 C36.56056762 60.61468251 36.78093216 56.3073775 37 52 C35.89551514 51.85087158 34.79103027 51.70174316 33.65307617 51.5480957 C21.55066351 49.73228895 13.36159293 40.64668986 6.01171875 31.53515625 C-0.82267196 21.88560708 -1.76996355 12.6086812 -1 1 C-0.67 0.67 -0.34 0.34 0 0 Z " fill="#0D0D0C" transform="translate(33,198)"/>
<path d="M0 0 C0.33 0 0.66 0 1 0 C1.09796875 0.845625 1.1959375 1.69125 1.296875 2.5625 C2.64804556 12.81275945 4.47298553 19.75521798 12.6796875 26.40234375 C24.42827405 34.49185873 37.35674031 36.25158406 51.25 36.375 C52.77693481 36.39590698 52.77693481 36.39590698 54.3347168 36.41723633 C64.63791738 36.35253146 73.05950291 33.72869432 81 27 C85.01776841 21.84901486 85.71760767 17.00068049 86.5078125 10.57421875 C87 8 87 8 89 6 C89.43859814 13.99223275 89.61189106 20.25954383 85 27 C84.46375 27.86625 83.9275 28.7325 83.375 29.625 C75.27425818 37.72574182 65.70240841 40.21380871 54.57470703 40.38012695 C35.85704547 40.34891599 19.21143399 37.80812175 5.140625 24.37890625 C-0.65938605 17.93327353 -1.44217468 11.90538654 -1.23828125 3.40625 C-1 1 -1 1 0 0 Z " fill="#110F00" transform="translate(86,248)"/>
<path d="M0 0 C2.64 0.33 5.28 0.66 8 1 C8 1.33 8 1.66 8 2 C6.02 2 4.04 2 2 2 C2.01160156 2.71027344 2.02320312 3.42054688 2.03515625 4.15234375 C2.04417969 5.07144531 2.05320312 5.99054688 2.0625 6.9375 C2.07410156 7.85402344 2.08570312 8.77054688 2.09765625 9.71484375 C2 12 2 12 1 13 C-0.47648876 13.09823996 -1.95775417 13.12973519 -3.4375 13.125 C-4.24058594 13.12757813 -5.04367188 13.13015625 -5.87109375 13.1328125 C-8 13 -8 13 -10 12 C-10 13.32 -10 14.64 -10 16 C-4.39 16.33 1.22 16.66 7 17 C7 22.28 7 27.56 7 33 C7.66 33.33 8.32 33.66 9 34 C7.22950311 34.05410687 5.45853151 34.09284119 3.6875 34.125 C2.20830078 34.15980469 2.20830078 34.15980469 0.69921875 34.1953125 C-2 34 -2 34 -5 32 C-5.1875 28.375 -5.1875 28.375 -5 25 C-7.97 25 -10.94 25 -14 25 C-14 24.67 -14 24.34 -14 24 C-12.02 23.67 -10.04 23.34 -8 23 C-9.65 22.67 -11.3 22.34 -13 22 C-13.07622858 18.03611362 -12.9681648 14.8726592 -12 11 C-8.37 11 -4.74 11 -1 11 C-1.020625 9.9275 -1.04125 8.855 -1.0625 7.75 C-1.0142016 4.85209576 -0.86844115 2.71387859 0 0 Z " fill="#1E2A30" transform="translate(76,187)"/>
<path d="M0 0 C4.27876075 2.45632562 4.27876075 2.45632562 6 5 C6.80895451 8.1727081 6.75893972 10.82050252 6 14 C3.9375 17.0625 3.9375 17.0625 1 19 C-3.30274909 19.69151325 -5.20945312 19.51557405 -8.875 17.125 C-11.77371342 14.22628658 -11.95733329 13.37180992 -12.4375 9.1875 C-12.38977417 5.4444314 -12.04281326 5.04892944 -9.375 2 C-5.66538851 -0.19828829 -4.20058953 -0.87512282 0 0 Z " fill="#060606" transform="translate(194,92)"/>
<path d="M0 0 C3 2.0625 3 2.0625 5 5 C5.57167363 9.00171543 5.36938628 11.22764686 3.625 14.875 C1.81282687 17.24476486 0.92739851 17.85606192 -1.98828125 18.30859375 C-7.95029273 18.63925993 -7.95029273 18.63925993 -10.73828125 16.94140625 C-12.72823479 14.87297567 -13.89901734 12.82363986 -14.25 9.9609375 C-14.02833441 6.26189291 -13.32065244 4.38866962 -10.9375 1.5 C-7.13567908 -0.44135536 -4.18242297 -0.9612827 0 0 Z " fill="#060606" transform="translate(133,85)"/>
<path d="M0 0 C1.86328125 0.20703125 1.86328125 0.20703125 4 1 C5.23046875 3.07421875 5.23046875 3.07421875 6.1875 5.6875 C6.67283203 6.96173828 6.67283203 6.96173828 7.16796875 8.26171875 C11.14783288 21.35976926 9.63083942 34.85829109 3.4921875 46.9765625 C-2.83816725 57.66455681 -11.44179613 64.49214451 -23 69 C-24.98962246 69.39052984 -26.98904701 69.7408105 -29 70 C-29 69.34 -29 68.68 -29 68 C-29.66 67.67 -30.32 67.34 -31 67 C-30.030625 66.7525 -29.06125 66.505 -28.0625 66.25 C-16.19896782 62.80574872 -6.49679228 56.72286105 0 46 C6.03481514 33.93036972 7.27856086 20.95918527 3.0625 8.125 C2.39552291 6.40855 1.71191522 4.69830378 1 3 C0.67 2.01 0.34 1.02 0 0 Z " fill="#202020" transform="translate(244,196)"/>
<path d="M0 0 C6.19312331 3.53892761 10.35898148 8.90132318 13.32421875 15.328125 C13.69675781 16.07191406 14.06929687 16.81570312 14.453125 17.58203125 C18.27181765 26.29716605 17.6930385 35.01542625 17.32421875 44.328125 C16.66421875 44.328125 16.00421875 44.328125 15.32421875 44.328125 C15.22625 43.15636719 15.12828125 41.98460937 15.02734375 40.77734375 C13.74297874 26.75984372 11.58746243 14.80439309 0.69921875 4.953125 C-5.12307651 0.96944929 -9.70919963 0.83195858 -16.67578125 1.328125 C-20.11544907 2.15619318 -22.41939431 3.17079665 -25.42578125 5.015625 C-26.16828125 5.44875 -26.91078125 5.881875 -27.67578125 6.328125 C-28.33578125 5.998125 -28.99578125 5.668125 -29.67578125 5.328125 C-21.35580302 -4.00033544 -11.04989731 -4.92648483 0 0 Z " fill="#15140C" transform="translate(131.67578125,34.671875)"/>
<path d="M0 0 C-3.10479699 3.10479699 -7.10699817 3.6844997 -11.3671875 4.39453125 C-20.68754481 6.53793686 -30.11462954 12.3564994 -35.5625 20.26953125 C-40.38088273 28.52374939 -40.42526053 35.62748677 -39 45 C-35.46503305 57.46879253 -23.32393235 65.39395982 -13 72 C-13.33 72.66 -13.66 73.32 -14 74 C-26.89064492 65.72850284 -38.71734382 57.61553409 -43 42 C-44.09369927 32.69083875 -42.74206138 24.96921512 -37.0703125 17.4375 C-29.99260761 9.62104477 -11.23309085 -3.74436362 0 0 Z " fill="#EED426" transform="translate(121,110)"/>
<path d="M0 0 C3.74397271 1.52409509 7.06075309 3.53365858 9.828125 6.46875 C10.3712464 9.7953686 10.47059782 11.55093168 8.515625 14.34375 C6.828125 15.46875 6.828125 15.46875 3.828125 15.46875 C2.80200551 13.81803604 1.80504357 12.14904994 0.828125 10.46875 C-4.4404368 5.2001882 -13.12247926 5.08883574 -20.171875 4.46875 C-14.43612662 -1.45818999 -8.06942948 -1.97381728 0 0 Z " fill="#CFB302" transform="translate(186.171875,146.53125)"/>
<path d="M0 0 C2.85677139 2.09032053 3.78961859 3.0649715 4.5625 6.5 C3.76470985 10.04573402 1.98743012 11.07950921 -1 13 C-1.66 13 -2.32 13 -3 13 C-3.20625 12.2575 -3.4125 11.515 -3.625 10.75 C-5.47084311 7.05831379 -7.3973406 5.9978384 -11 4 C-13.77449384 3.29327004 -16.52665814 2.99723401 -19.375 2.75 C-20.11105469 2.67265625 -20.84710938 2.5953125 -21.60546875 2.515625 C-23.40217018 2.32895472 -25.20094113 2.16238536 -27 2 C-19.92212987 -5.56599911 -8.8607796 -4.30170628 0 0 Z " fill="#CFB302" transform="translate(133,142)"/>
<path d="M0 0 C0.33 0 0.66 0 1 0 C1 3.96 1 7.92 1 12 C1.66 12 2.32 12 3 12 C1.76688403 20.31893165 -0.21611941 31.3739017 -7 37 C-7.99 37.495 -7.99 37.495 -9 38 C-6.03 38.33 -3.06 38.66 0 39 C0 39.33 0 39.66 0 40 C-1.17433594 40.02578125 -2.34867188 40.0515625 -3.55859375 40.078125 C-13.52185809 40.39478285 -22.72484022 41.51006048 -32.36328125 44.0625 C-35.57272389 44.88985363 -38.72432025 45.51245697 -42 46 C-42 45.01 -42 44.02 -42 43 C-34.92952167 40.76063628 -28.18015152 38.94836982 -20.828125 38.0546875 C-14.00551907 37.33105347 -14.00551907 37.33105347 -7.88671875 34.52734375 C-6.41324756 32.37872168 -5.72861199 30.50412437 -5 28 C-4.63132813 26.96230469 -4.26265625 25.92460938 -3.8828125 24.85546875 C-1.18128705 16.55526469 -0.26415534 8.69071074 0 0 Z " fill="#15140B" transform="translate(146,67)"/>
<path d="M0 0 C2.375 1.6875 2.375 1.6875 4 4 C4.60817046 7.64902278 4.51417751 9.26828585 2.375 12.3125 C-0.57951586 14.41176127 -2.36924173 15 -6 15 C-9.45244657 13.08197413 -10.71622156 11.78456393 -12.0625 8.0625 C-11.98173455 4.10499279 -10.7540538 2.7540538 -8 0 C-5.02898609 -1.48550695 -3.16565278 -0.82306972 0 0 Z " fill="#BE070A" transform="translate(188,211)"/>
<path d="M0 0 C2.5 1.625 2.5 1.625 4 4 C4.5625 6.9375 4.5625 6.9375 4 10 C1.51397551 13.36344489 0.08574477 14.80057749 -4.0625 15.5625 C-7 15 -7 15 -9.375 13.5 C-11.80664499 9.75900771 -11.49174842 7.42573582 -11 3 C-8.88563468 -1.22873063 -4.1705953 -0.74684705 0 0 Z " fill="#BE0507" transform="translate(228,215)"/>
<path d="M0 0 C1.71413086 0.42925781 1.71413086 0.42925781 3.46289062 0.8671875 C6.24921414 1.56668294 9.03200648 2.277744 11.8125 3 C11.1525 3.33 10.4925 3.66 9.8125 4 C9.8125 4.66 9.8125 5.32 9.8125 6 C-1.57263578 4.36254392 -1.57263578 4.36254392 -6.6875 2.375 C-12.75459837 0.20501591 -19.97739368 -0.49221585 -25.91015625 2.265625 C-28.33798784 4.11460823 -29.20184685 5.34836677 -30.375 8.125 C-32.00313594 11.90781797 -32.00313594 11.90781797 -34.1875 13 C-34.65501788 15.35599235 -34.65501788 15.35599235 -34.8125 18.0625 C-34.88726562 18.98160156 -34.96203125 19.90070313 -35.0390625 20.84765625 C-35.08804688 21.55792969 -35.13703125 22.26820313 -35.1875 23 C-35.5175 23 -35.8475 23 -36.1875 23 C-36.1875 19.7 -36.1875 16.4 -36.1875 13 C-39.8175 13 -43.4475 13 -47.1875 13 C-47.1875 12.67 -47.1875 12.34 -47.1875 12 C-43.2275 12 -39.2675 12 -35.1875 12 C-34.8575 10.35 -34.5275 8.7 -34.1875 7 C-26.66460088 -7.17777141 -13.31405826 -3.46305909 0 0 Z " fill="#1A1708" transform="translate(120.1875,236)"/>
<path d="M0 0 C2.91517292 1.07401108 4.77810176 1.77810176 7 4 C7.42834085 7.85506762 7.55897202 10.12800365 5.4375 13.4375 C2.05782196 15.60396028 -0.05983987 15.56288002 -4 15 C-6.4375 13.4375 -6.4375 13.4375 -8 11 C-8.73283481 5.03263086 -8.73283481 5.03263086 -6.625 2.0625 C-5 1 -5 1 -3 1 C-3 2.32 -3 3.64 -3 5 C-2.01 5 -1.02 5 0 5 C0 3.35 0 1.7 0 0 Z " fill="#BA0407" transform="translate(203,229)"/>
<path d="M0 0 C1.66434188 1.42657875 3.32798477 2.85386618 4.98828125 4.28515625 C6.28569876 5.3911102 7.59491307 6.4834426 8.91796875 7.55859375 C9.52253906 8.05488281 10.12710938 8.55117187 10.75 9.0625 C11.30171875 9.50722656 11.8534375 9.95195312 12.421875 10.41015625 C14 12 14 12 17 17 C12.38 17.99 7.76 18.98 3 20 C2.49550598 17.41747107 1.99625699 14.83411297 1.5 12.25 C1.35691406 11.52039063 1.21382812 10.79078125 1.06640625 10.0390625 C0.41111121 6.60656468 0 3.50830509 0 0 Z " fill="#A1890C" transform="translate(59,140)"/>
<path d="M0 0 C2.93446886 1.41791563 5.43332409 2.98332607 8 5 C6.64909235 11.49878391 4.92169754 17.75103319 2.875 24.0625 C2.59785156 24.92810547 2.32070312 25.79371094 2.03515625 26.68554688 C1.36031038 28.7915314 0.68188659 30.89628687 0 33 C-0.33 33 -0.66 33 -1 33 C-1.13379211 21.95471804 -0.76370639 11.01919215 0 0 Z " fill="#EBEBEB" transform="translate(87,174)"/>
<path d="M0 0 C0.6875 1.8125 0.6875 1.8125 1 4 C-1.19958104 6.68188121 -3.95486024 8.42158423 -6.875 10.25 C-7.71804687 10.79140625 -8.56109375 11.3328125 -9.4296875 11.890625 C-12.45481199 13.19630183 -13.90126939 12.95516428 -17 12 C-17.33 10.68 -17.66 9.36 -18 8 C-5.36660546 -1.68664743 -5.36660546 -1.68664743 0 0 Z " fill="#0F1010" transform="translate(154,213)"/>
<path d="M0 0 C0.763125 0.20625 1.52625 0.4125 2.3125 0.625 C2.6425 2.275 2.9725 3.925 3.3125 5.625 C-9.21691176 13.97794118 -9.21691176 13.97794118 -13.6875 13.625 C-14.6875 12.625 -14.6875 12.625 -15.01953125 10.26171875 C-14.6875 7.625 -14.6875 7.625 -12.82421875 5.89453125 C-11.61185547 5.17330078 -11.61185547 5.17330078 -10.375 4.4375 C-9.57449219 3.94894531 -8.77398437 3.46039063 -7.94921875 2.95703125 C-7.20285156 2.51746094 -6.45648438 2.07789063 -5.6875 1.625 C-2.6875 -0.375 -2.6875 -0.375 0 0 Z " fill="#131415" transform="translate(127.6875,209.375)"/>
<path d="M0 0 C0.66 0.33 1.32 0.66 2 1 C1.19196794 5.23779747 0.37388118 9.47349013 -0.45361328 13.70751953 C-0.73373708 15.14838808 -1.0110978 16.58979666 -1.28564453 18.03173828 C-1.68058026 20.10336867 -2.08538722 22.17285861 -2.4921875 24.2421875 C-2.73308105 25.4885498 -2.97397461 26.73491211 -3.22216797 28.01904297 C-4 31 -4 31 -6 33 C-6.33 23.43 -6.66 13.86 -7 4 C-4.69 2.68 -2.38 1.36 0 0 Z " fill="#ECECEC" transform="translate(207,189)"/>
<path d="M0 0 C0.66 0.33 1.32 0.66 2 1 C-0.23339508 4.57343213 -2.54249804 7.62183199 -5.4375 10.6875 C-14.20445135 20.54561697 -16.17661775 32.83031236 -16.625 45.5625 C-16.66367188 46.47580078 -16.70234375 47.38910156 -16.7421875 48.33007812 C-16.83530252 50.55319924 -16.92112166 52.77633613 -17 55 C-19.72535991 52.27464009 -19.7060363 49.67796443 -20 46 C-20.06574219 45.26523438 -20.13148438 44.53046875 -20.19921875 43.7734375 C-20.85447982 29.89997906 -14.29714666 15.49216864 -5.1875 5.3125 C-3.47875934 3.51789297 -1.75183651 1.75183651 0 0 Z " fill="#F0D526" transform="translate(192,45)"/>
<path d="M0 0 C0.66 0.33 1.32 0.66 2 1 C0.86370543 4.4088837 0.24087849 4.7566282 -2.625 6.6875 C-10.55612439 12.46203958 -17.66539274 20.36002132 -19.40234375 30.30322266 C-20.15587176 35.85202512 -20.61580512 41.41483855 -21 47 C-21.33 47 -21.66 47 -22 47 C-22.06058594 46.31292969 -22.12117188 45.62585938 -22.18359375 44.91796875 C-22.26738281 44.01691406 -22.35117187 43.11585938 -22.4375 42.1875 C-22.51871094 41.29417969 -22.59992187 40.40085938 -22.68359375 39.48046875 C-22.93489767 36.87256441 -22.93489767 36.87256441 -24 34 C-21.27523953 20.432572 -14.03248341 9.2517872 -2.5 1.5 C-1.675 1.005 -0.85 0.51 0 0 Z " fill="#232323" transform="translate(56,162)"/>
<path d="M0 0 C-0.3125 1.875 -0.3125 1.875 -1 4 C-4.41344304 6.2756287 -7.70220087 7.15420627 -11.625 8.125 C-12.33978516 8.30385742 -13.05457031 8.48271484 -13.79101562 8.66699219 C-18.97949729 9.90178497 -23.65427033 10.38183783 -29 10 C-28.34 8.35 -27.68 6.7 -27 5 C-25.42412109 4.83564453 -25.42412109 4.83564453 -23.81640625 4.66796875 C-16.15002957 3.81898919 -7.28990746 0 0 0 Z " fill="#344549" transform="translate(197,195)"/>
<path d="M0 0 C3.46345564 1.15448521 4.92046602 2.71476873 6.9921875 5.6796875 C8.96564416 10.22322725 8.35826552 15.15147329 8 20 C5.36 19.67 2.72 19.34 0 19 C0.99 18.01 1.98 17.02 3 16 C2.505 15.21625 2.01 14.4325 1.5 13.625 C-0.43415935 8.95078158 -0.26602877 4.98557619 0 0 Z " fill="#8F9290" transform="translate(76,160)"/>
<path d="M0 0 C0.66 0.33 1.32 0.66 2 1 C-2.95 8.425 -2.95 8.425 -8 16 C-11.465 14.02 -11.465 14.02 -15 12 C-13.50843611 7.65287629 -10.26304428 5.92002193 -6.5 3.6875 C-5.90574219 3.31560547 -5.31148437 2.94371094 -4.69921875 2.56054688 C-3.17369803 1.63593669 -1.5896236 0.80945307 0 0 Z " fill="#CFB100" transform="translate(242,166)"/>
<path d="M0 0 C0.66 0.33 1.32 0.66 2 1 C0.26893983 4.36029328 -1.66930723 6.68068165 -4.4375 9.1875 C-10.5485364 15.13057979 -12.38668908 22.72030262 -13 31 C-13.33 31 -13.66 31 -14 31 C-14.144375 30.2575 -14.28875 29.515 -14.4375 28.75 C-14.92086497 26.11598642 -14.92086497 26.11598642 -15.62890625 24.08984375 C-16.48997182 19.24068501 -12.96633584 14.43008566 -10.34765625 10.5546875 C-7.26785927 6.47075539 -4.23239604 2.94985179 0 0 Z " fill="#1B1804" transform="translate(91,117)"/>
<path d="M0 0 C-0.58007812 0.68964844 -1.16015625 1.37929687 -1.7578125 2.08984375 C-6.12762838 7.34660245 -10.19548252 12.54859801 -13.7109375 18.41796875 C-14.13632813 18.94003906 -14.56171875 19.46210938 -15 20 C-15.99 20 -16.98 20 -18 20 C-18 16.00992254 -16.10470131 13.66921198 -14 10.4375 C-11.12797373 6.51868868 -11.12797373 6.51868868 -10 2 C-3.375 -1.125 -3.375 -1.125 0 0 Z " fill="#191707" transform="translate(255,159)"/>
<path d="M0 0 C0.66 0.33 1.32 0.66 2 1 C2 1.66 2 2.32 2 3 C1.154375 3.7425 0.30875 4.485 -0.5625 5.25 C-3.33329498 7.77750341 -3.33329498 7.77750341 -3.0625 11.125 C-1.84204261 14.42741412 -1.04000924 15.31110598 2 17 C3.64797236 17.71162443 5.31165408 18.39031953 7 19 C7 19.33 7 19.66 7 20 C-0.13840513 20.60494959 -0.13840513 20.60494959 -3.9375 17.9375 C-6.50863721 14.2755773 -7.30484815 12.49651023 -7 8 C-4.96929678 5.00904177 -2.60327472 2.49940341 0 0 Z " fill="#C7C0BD" transform="translate(180,208)"/>
<path d="M0 0 C0.33 0 0.66 0 1 0 C1.39957104 7.45865945 0.16500037 12.75249945 -4 19 C-4.66 19.66 -5.32 20.32 -6 21 C-6.99 21 -7.98 21 -9 21 C-8.64250078 16.11417738 -7.16066327 13.61468545 -4.27734375 9.87890625 C-2.18643635 6.80329017 -1.17184719 3.51554156 0 0 Z " fill="#FFFCEA" transform="translate(262,131)"/>
<path d="M0 0 C0.85479049 2.46939474 1.00169985 3.98992231 0.5625 6.59375 C-0.11365663 10.68825402 -0.34847928 14.73492702 -0.5625 18.875 C-0.60568359 19.65875 -0.64886719 20.4425 -0.69335938 21.25 C-0.79853351 23.16650649 -0.89967925 25.08323333 -1 27 C-1.99 26.67 -2.98 26.34 -4 26 C-4.3853211 8.55351682 -4.3853211 8.55351682 -2 1 C-1.34 0.67 -0.68 0.34 0 0 Z " fill="#1C1C1A" transform="translate(179,70)"/>
<path d="M0 0 C0.99 0.33 1.98 0.66 3 1 C2.60167969 1.43570313 2.20335938 1.87140625 1.79296875 2.3203125 C-1.50970394 6.03280589 -3.84950614 9.4839629 -6 14 C-6.99 14.495 -6.99 14.495 -8 15 C-8.46751788 17.35599235 -8.46751788 17.35599235 -8.625 20.0625 C-8.69976562 20.98160156 -8.77453125 21.90070313 -8.8515625 22.84765625 C-8.90054688 23.55792969 -8.94953125 24.26820313 -9 25 C-9.33 25 -9.66 25 -10 25 C-10 21.7 -10 18.4 -10 15 C-13.63 15 -17.26 15 -21 15 C-21 14.67 -21 14.34 -21 14 C-17.04 14 -13.08 14 -9 14 C-8.67 12.35 -8.34 10.7 -8 9 C-6.9140625 7.05078125 -6.9140625 7.05078125 -5.625 5.3125 C-4.99464844 4.44044922 -4.99464844 4.44044922 -4.3515625 3.55078125 C-3 2 -3 2 0 0 Z " fill="#242219" transform="translate(94,234)"/>
<path d="M0 0 C4.6613779 -0.32521241 7.24064446 0.18048334 11 3 C13.51250583 6.76875875 13.53016086 8.53150134 13 13 C11.54006686 15.32978877 9.93880985 17.0127199 8 19 C7.01 18.34 6.02 17.68 5 17 C5.66 16.46375 6.32 15.9275 7 15.375 C9.25893152 13.11790102 9.25893152 13.11790102 9.4375 9.9375 C9.20866047 7.06889411 9.20866047 7.06889411 7.875 5.1875 C5.33323785 3.57771731 2.9601892 3.32890991 0 3 C0 2.01 0 1.02 0 0 Z " fill="#C5BBB9" transform="translate(222,212)"/>
<path d="M0 0 C0.33 0 0.66 0 1 0 C1.55414497 10.85200575 0.28981287 19.64590146 -3 30 C-3.99 29.34 -4.98 28.68 -6 28 C-5.79503906 27.154375 -5.59007812 26.30875 -5.37890625 25.4375 C-3.59288214 18.08894364 -3.59288214 18.08894364 -2.4375 10.625 C-1.98322356 6.86099522 -1.12741892 3.60774056 0 0 Z " fill="#292509" transform="translate(238,76)"/>
<path d="M0 0 C-0.33 0.99 -0.66 1.98 -1 3 C-3.58987338 3.86627829 -6.03397329 4.53741658 -8.6875 5.125 C-9.39583984 5.29386719 -10.10417969 5.46273437 -10.83398438 5.63671875 C-14.8681465 6.58286573 -18.90305749 7.36771596 -23 8 C-23 7.01 -23 6.02 -23 5 C-20.75023648 4.35334337 -18.50018033 3.70770477 -16.25 3.0625 C-14.99703125 2.70285156 -13.7440625 2.34320313 -12.453125 1.97265625 C-8.07179939 0.73854983 -4.56408097 -0.12678003 0 0 Z " fill="#1A1914" transform="translate(127,105)"/>
<path d="M0 0 C0.99 0.33 1.98 0.66 3 1 C-0.54039134 3.9156164 -4.1626772 6.50127818 -8 9 C-6.35 9 -4.7 9 -3 9 C-3.66 10.32 -4.32 11.64 -5 13 C-6.66611905 13.042721 -8.33382885 13.04063832 -10 13 C-11 12 -11 12 -11.3359375 9.640625 C-11 7 -11 7 -9.1015625 5.234375 C-8.28429687 4.74453125 -7.46703125 4.2546875 -6.625 3.75 C-5.81289062 3.24984375 -5.00078125 2.7496875 -4.1640625 2.234375 C-2.79578143 1.45391143 -1.40891915 0.70445957 0 0 Z " fill="#0E0F0F" transform="translate(124,210)"/>
<path d="M0 0 C1.65 0 3.3 0 5 0 C5 3.96 5 7.92 5 12 C2.36 12 -0.28 12 -3 12 C-2.67 10.02 -2.34 8.04 -2 6 C-0.35 6 1.3 6 3 6 C3 4.68 3 3.36 3 2 C2.01 2 1.02 2 0 2 C0 1.34 0 0.68 0 0 Z " fill="#1C272C" transform="translate(92,199)"/>
<path d="M0 0 C3.19376532 1.59688266 4.57591496 4.83383035 6 8 C6 8.99 6 9.98 6 11 C5.38125 10.34 4.7625 9.68 4.125 9 C2.24362573 6.7715451 2.24362573 6.7715451 0 7 C-0.18175781 7.56589844 -0.36351563 8.13179687 -0.55078125 8.71484375 C-0.80214844 9.44832031 -1.05351563 10.18179688 -1.3125 10.9375 C-1.55613281 11.66839844 -1.79976563 12.39929688 -2.05078125 13.15234375 C-3 15 -3 15 -6 16 C-3.81395349 5.53488372 -3.81395349 5.53488372 -2 1 C-1.34 0.67 -0.68 0.34 0 0 Z " fill="#151515" transform="translate(96,181)"/>
<path d="M0 0 C5.05462789 0.84801704 7.89211722 4.11514652 11 8 C11.9375 10.9375 11.9375 10.9375 12 13 C8 13 8 13 6.3671875 11.42578125 C1.35016143 4.32051658 1.35016143 4.32051658 0 0 Z " fill="#FFFDF0" transform="translate(207,131)"/>
<path d="M0 0 C-3.09813262 3.09813262 -7.09333629 3.69594732 -11.3515625 4.375 C-14.55221675 5.13031664 -17.14341806 6.42813905 -20.0625 7.9375 C-21.59583984 8.72447266 -21.59583984 8.72447266 -23.16015625 9.52734375 C-24.09730469 10.01332031 -25.03445312 10.49929687 -26 11 C-27.33201408 11.66929867 -28.66475098 12.33717854 -30 13 C-28.75215495 9.25646484 -27.13241317 8.75682333 -23.72924805 7.04272461 C-23.01422119 6.69862549 -22.29919434 6.35452637 -21.5625 6 C-20.83909424 5.64623291 -20.11568848 5.29246582 -19.37036133 4.92797852 C-5.3534154 -1.7844718 -5.3534154 -1.7844718 0 0 Z " fill="#EDD11E" transform="translate(121,110)"/>
<path d="M0 0 C1.859375 0.23828125 1.859375 0.23828125 4 1 C9.00522581 8.09073656 8.42895749 16.73065276 8 25 C7.67 25 7.34 25 7 25 C6.74605469 23.94941406 6.49210938 22.89882812 6.23046875 21.81640625 C4.4264196 14.43140971 2.55985487 7.16759364 0 0 Z " fill="#111111" transform="translate(244,196)"/>
<path d="M0 0 C3.875 1.75 3.875 1.75 5 4 C5.57538625 11.01971231 5.57538625 11.01971231 3.3125 14.875 C0.93441522 17.0602671 -0.93132365 18.06234889 -4 19 C-4 18.01 -4 17.02 -4 16 C-3.175 15.608125 -2.35 15.21625 -1.5 14.8125 C-0.675 14.214375 0.15 13.61625 1 13 C1.51029698 8.40732719 1.63682175 4.95523262 -1 1 C-0.67 0.67 -0.34 0.34 0 0 Z " fill="#C7B8B5" transform="translate(211,195)"/>
<path d="M0 0 C0.99 0 1.98 0 3 0 C3.18451025 10.55808656 3.18451025 10.55808656 2 15 C-1.3 15 -4.6 15 -8 15 C-8 14.34 -8 13.68 -8 13 C-5.36 13 -2.72 13 0 13 C0 8.71 0 4.42 0 0 Z " fill="#131313" transform="translate(97,198)"/>
<path d="M0 0 C0.66 0.33 1.32 0.66 2 1 C0.86651632 4.40045103 0.1479514 4.87668187 -2.6875 6.875 C-5.34851636 8.78596328 -7.90227739 10.72586825 -10.375 12.875 C-13 15 -13 15 -15 15 C-11.98711066 8.26530618 -6.17473811 3.76508421 0 0 Z " fill="#1A1B1A" transform="translate(56,162)"/>
<path d="M0 0 C0.66 0.33 1.32 0.66 2 1 C-0.75452937 3.94537436 -3.4499779 6.04736782 -6.9375 8.0625 C-7.77152344 8.54847656 -8.60554687 9.03445312 -9.46484375 9.53515625 C-10.30144531 10.01855469 -11.13804687 10.50195312 -12 11 C-13.66829776 11.99727647 -15.33543895 12.99649898 -17 14 C-14.59570905 8.38998778 -10.6367433 5.54529319 -5.375 2.6875 C-4.41335937 2.15511719 -3.45171875 1.62273437 -2.4609375 1.07421875 C-1.64882812 0.71972656 -0.83671875 0.36523438 0 0 Z " fill="#110F01" transform="translate(244,162)"/>
<path d="M0 0 C0.33 0 0.66 0 1 0 C1.33 2.97 1.66 5.94 2 9 C2.33 9 2.66 9 3 9 C3.66 13.62 4.32 18.24 5 23 C4.34 23 3.68 23 3 23 C2.67 23.66 2.34 24.32 2 25 C0.30117812 16.58173087 -0.24911914 8.58077055 0 0 Z " fill="#2D2A16" transform="translate(85,70)"/>
<path d="M0 0 C0.99 0.66 1.98 1.32 3 2 C3.66920152 9.02661597 3.66920152 9.02661597 1.625 12 C0 13 0 13 -2 13 C-1.85915204 11.20793453 -1.71216299 9.41635083 -1.5625 7.625 C-1.48128906 6.62726563 -1.40007812 5.62953125 -1.31640625 4.6015625 C-1 2 -1 2 0 0 Z " fill="#BB0609" transform="translate(210,198)"/>
<path d="M0 0 C0.33 0 0.66 0 1 0 C1 3.96 1 7.92 1 12 C1.66 12 2.32 12 3 12 C2.77169299 13.62818946 2.51656424 15.2526349 2.25 16.875 C2.11078125 17.77992187 1.9715625 18.68484375 1.828125 19.6171875 C1 22 1 22 -1.078125 23.3203125 C-1.71234375 23.54460937 -2.3465625 23.76890625 -3 24 C-2.86722656 23.44054687 -2.73445312 22.88109375 -2.59765625 22.3046875 C-0.96815187 14.90649974 -0.41363558 7.55429188 0 0 Z " fill="#37362D" transform="translate(146,67)"/>
<path d="M0 0 C0.33 0 0.66 0 1 0 C0.76139128 2.11339151 0.52236522 4.22673673 0.28125 6.33984375 C0.09069615 8.14216558 -0.07524095 9.94722977 -0.21875 11.75390625 C-0.2909375 12.63949219 -0.363125 13.52507812 -0.4375 14.4375 C-0.49808594 15.26121094 -0.55867188 16.08492187 -0.62109375 16.93359375 C-1 19 -1 19 -3 21 C-3.08132187 18.43685501 -3.14064175 15.87631582 -3.1875 13.3125 C-3.21263672 12.59126953 -3.23777344 11.87003906 -3.26367188 11.12695312 C-3.3264142 6.54676323 -2.84865767 3.63795829 0 0 Z " fill="#0F0E07" transform="translate(89,60)"/>
<path d="M0 0 C3.3666837 0.30606215 5.56154387 0.7000037 8.375 2.625 C10.57205971 5.83608727 10.29257019 8.19658751 10 12 C6.11024581 8.40945767 3.10267805 4.26101118 0 0 Z " fill="#FFFDF1" transform="translate(231,41)"/>
<path d="M0 0 C-1.26190138 3.78570414 -2.54855815 4.21831571 -5.9375 6.1875 C-6.83339844 6.71730469 -7.72929687 7.24710938 -8.65234375 7.79296875 C-11 9 -11 9 -13 9 C-12.7734375 7.171875 -12.7734375 7.171875 -12 5 C-10.0390625 3.515625 -10.0390625 3.515625 -7.625 2.25 C-6.83351562 1.82203125 -6.04203125 1.3940625 -5.2265625 0.953125 C-3 0 -3 0 0 0 Z " fill="#2D3A41" transform="translate(152,215)"/>
<path d="M0 0 C2.46800047 1.15173355 4.04783565 2.04783565 6 4 C6.125 7.625 6.125 7.625 6 11 C5.34 11 4.68 11 4 11 C2.67578125 9.35546875 2.67578125 9.35546875 1.3125 7.1875 C0.85488281 6.47980469 0.39726562 5.77210938 -0.07421875 5.04296875 C-1 3 -1 3 0 0 Z " fill="#FFFCEA" transform="translate(161,250)"/>
<path d="M0 0 C1.66611905 -0.042721 3.33382885 -0.04063832 5 0 C6 1 6 1 6.09765625 3.28515625 C6.08605469 4.20167969 6.07445313 5.11820313 6.0625 6.0625 C6.05347656 6.98160156 6.04445313 7.90070313 6.03515625 8.84765625 C6.02355469 9.55792969 6.01195313 10.26820313 6 11 C5.01 10.67 4.02 10.34 3 10 C3 7.69 3 5.38 3 3 C0.03 3 -2.94 3 -6 3 C-6 2.67 -6 2.34 -6 2 C-4.02 1.67 -2.04 1.34 0 1 C0 0.67 0 0.34 0 0 Z " fill="#212323" transform="translate(68,209)"/>
<path d="M0 0 C0.33 0.99 0.66 1.98 1 3 C-0.14453125 4.97265625 -0.14453125 4.97265625 -1.8125 7.0625 C-2.35519531 7.75472656 -2.89789063 8.44695312 -3.45703125 9.16015625 C-5 11 -5 11 -7 13 C-7.99 13 -8.98 13 -10 13 C-8.59799333 8.5390697 -6.40216594 6.15322697 -3 3 C-2.401875 2.401875 -1.80375 1.80375 -1.1875 1.1875 C-0.795625 0.795625 -0.40375 0.40375 0 0 Z " fill="#1C1B16" transform="translate(246,166)"/>
<path d="M0 0 C-0.85714286 8.57142857 -0.85714286 8.57142857 -3 12 C-3.99 12 -4.98 12 -6 12 C-5.55149342 10.18504338 -5.09090429 8.37306866 -4.625 6.5625 C-4.36976563 5.55316406 -4.11453125 4.54382813 -3.8515625 3.50390625 C-2.6599064 0 -2.6599064 0 0 0 Z " fill="#14130E" transform="translate(195,288)"/>
<path d="M0 0 C-1.03204102 3.21079428 -2.58748662 4.59940291 -5.375 6.3125 C-9.07375628 8.03433482 -9.45858043 8.20907496 -13 7 C-11.40207898 5.82479354 -9.79643092 4.66008753 -8.1875 3.5 C-7.29417969 2.8503125 -6.40085937 2.200625 -5.48046875 1.53125 C-3 0 -3 0 0 0 Z " fill="#2F3D44" transform="translate(128,212)"/>
<path d="M0 0 C0.33 0 0.66 0 1 0 C1.2475 1.093125 1.495 2.18625 1.75 3.3125 C3.35265603 8.04033528 5.02308163 8.95662642 9.25 11.1875 C9.8275 11.455625 10.405 11.72375 11 12 C8.28503193 13.04421849 6.78658691 12.96158564 3.875 12.4375 C1 11 1 11 -0.4375 8.1875 C-0.99553544 5.02529919 -0.89789795 3.05285303 0 0 Z " fill="#CECECE" transform="translate(181,100)"/>
<path d="M0 0 C0.33 0 0.66 0 1 0 C1 2.64 1 5.28 1 8 C3.97 8.33 6.94 8.66 10 9 C10 9.33 10 9.66 10 10 C6.37 10 2.74 10 -1 10 C-1.09765625 3.06640625 -1.09765625 3.06640625 -1 1 C-0.67 0.67 -0.34 0.34 0 0 Z " fill="#010101" transform="translate(62,201)"/>
<path d="M0 0 C0.66 0 1.32 0 2 0 C1.01 4.29 0.02 8.58 -1 13 C-1.99 12.34 -2.98 11.68 -4 11 C-3.5247412 9.35303396 -3.04468109 7.70745272 -2.5625 6.0625 C-2.29566406 5.14597656 -2.02882812 4.22945313 -1.75390625 3.28515625 C-1 1 -1 1 0 0 Z " fill="#1F1D0F" transform="translate(236,93)"/>
<path d="M0 0 C0.33 0 0.66 0 1 0 C1 3.63 1 7.26 1 11 C-1.97 10.67 -4.94 10.34 -8 10 C-8 9.67 -8 9.34 -8 9 C-5.69 9 -3.38 9 -1 9 C-1.020625 7.700625 -1.04125 6.40125 -1.0625 5.0625 C-1.08399454 3.70834367 -1.07148199 2.35243917 -1 1 C-0.67 0.67 -0.34 0.34 0 0 Z " fill="#000101" transform="translate(74,187)"/>
<path d="M0 0 C2.46800047 1.15173355 4.04783565 2.04783565 6 4 C6 5.32 6 6.64 6 8 C1.125 6.125 1.125 6.125 0 5 C-0.04063832 3.33382885 -0.042721 1.66611905 0 0 Z " fill="#FFFCE9" transform="translate(152,45)"/>
<path d="M0 0 C0.33 0.66 0.66 1.32 1 2 C1.66 2 2.32 2 3 2 C2.67 7.28 2.34 12.56 2 18 C1.67 18 1.34 18 1 18 C0.90912109 16.96939453 0.90912109 16.96939453 0.81640625 15.91796875 C0.73261719 15.01691406 0.64882813 14.11585938 0.5625 13.1875 C0.48128906 12.29417969 0.40007813 11.40085938 0.31640625 10.48046875 C0.06510233 7.87256441 0.06510233 7.87256441 -1 5 C-0.5625 2.3125 -0.5625 2.3125 0 0 Z " fill="#343534" transform="translate(33,191)"/>
<path d="M0 0 C3.63 0.33 7.26 0.66 11 1 C11 1.99 11 2.98 11 4 C6.71 3.67 2.42 3.34 -2 3 C-1.34 2.01 -0.68 1.02 0 0 Z " fill="#020200" transform="translate(138,103)"/>
<path d="M0 0 C1.22589844 0.29197266 1.22589844 0.29197266 2.4765625 0.58984375 C3.41628906 0.82380859 3.41628906 0.82380859 4.375 1.0625 C4.375 2.0525 4.375 3.0425 4.375 4.0625 C2.91484709 3.78008359 1.45690207 3.48623386 0 3.1875 C-0.81210937 3.02507812 -1.62421875 2.86265625 -2.4609375 2.6953125 C-4.625 2.0625 -4.625 2.0625 -6.625 0.0625 C-3.99249612 -1.25375194 -2.82320944 -0.68563658 0 0 Z " fill="#1B1C1B" transform="translate(64.625,245.9375)"/>
<path d="M0 0 C0.99 0.33 1.98 0.66 3 1 C3.73046875 3.06640625 3.73046875 3.06640625 4.1875 5.5625 C4.34605469 6.38878906 4.50460938 7.21507813 4.66796875 8.06640625 C4.77753906 8.70449219 4.88710937 9.34257813 5 10 C4.01 10.33 3.02 10.66 2 11 C0.80712589 7.12315913 0 4.08378077 0 0 Z " fill="#1B1A0D" transform="translate(175,96)"/>
<path d="M0 0 C0.66 0.66 1.32 1.32 2 2 C4.19704511 2.67651207 4.19704511 2.67651207 6.625 3.125 C7.44226563 3.29257813 8.25953125 3.46015625 9.1015625 3.6328125 C9.72804688 3.75398437 10.35453125 3.87515625 11 4 C11 4.33 11 4.66 11 5 C7.37 5 3.74 5 0 5 C-0.33 3.68 -0.66 2.36 -1 1 C-0.67 0.67 -0.34 0.34 0 0 Z " fill="#010102" transform="translate(72,218)"/>
<path d="M0 0 C0.66 1.32 1.32 2.64 2 4 C0.30820672 6.04219706 -0.63727666 6.91793306 -3.26171875 7.51171875 C-4.06222656 7.56972656 -4.86273438 7.62773438 -5.6875 7.6875 C-6.49574219 7.75324219 -7.30398437 7.81898437 -8.13671875 7.88671875 C-9.05904297 7.94279297 -9.05904297 7.94279297 -10 8 C-10 7.34 -10 6.68 -10 6 C-8.72125 5.7525 -7.4425 5.505 -6.125 5.25 C-2.73252682 4.48009414 -2.73252682 4.48009414 -0.5 1.875 C-0.335 1.25625 -0.17 0.6375 0 0 Z " fill="#C7C7C7" transform="translate(137,97)"/>
<path d="M0 0 C-0.33 0.66 -0.66 1.32 -1 2 C-3.75078884 2.91692961 -5.35948913 3.10886083 -8.1875 3.0625 C-10.0746875 3.0315625 -10.0746875 3.0315625 -12 3 C-11 1 -11 1 -9.00390625 0.33203125 C-8.19824219 0.16058594 -7.39257812 -0.01085937 -6.5625 -0.1875 C-5.75941406 -0.36667969 -4.95632812 -0.54585938 -4.12890625 -0.73046875 C-2 -1 -2 -1 0 0 Z " fill="#070600" transform="translate(156,284)"/>
<path d="M0 0 C1.32 0.33 2.64 0.66 4 1 C4.66 3.31 5.32 5.62 6 8 C5.01 8.33 4.02 8.66 3 9 C2.01 6.03 1.02 3.06 0 0 Z " fill="#212121" transform="translate(244,196)"/>
<path d="M0 0 C3.81684226 1.55500981 6.19195732 4.03595495 9 7 C5.04179141 6.43454163 2.3340947 5.19097652 -1 3 C-0.67 2.01 -0.34 1.02 0 0 Z " fill="#8E918F" transform="translate(96,187)"/>
<path d="M0 0 C3.81684226 1.55500981 6.19195732 4.03595495 9 7 C8.01 7.33 7.02 7.66 6 8 C4.99403703 7.0479279 3.99538437 6.08812654 3 5.125 C2.443125 4.59132812 1.88625 4.05765625 1.3125 3.5078125 C0 2 0 2 0 0 Z " fill="#F1D938" transform="translate(210,130)"/>
<path d="M0 0 C0.99 0.33 1.98 0.66 3 1 C4.1875 4.5625 4.1875 4.5625 5 8 C4.01 8.33 3.02 8.66 2 9 C0.50178941 5.62902617 0 3.79557881 0 0 Z " fill="#191812" transform="translate(88,93)"/>
<path d="M0 0 C-0.99 1.485 -0.99 1.485 -2 3 C-5.625 3.6875 -5.625 3.6875 -9 4 C-8 1 -8 1 -5.625 -0.25 C-3 -1 -3 -1 0 0 Z " fill="#14130F" transform="translate(190,36)"/>
<path d="M0 0 C0 0.66 0 1.32 0 2 C-1.6796875 3.32421875 -1.6796875 3.32421875 -3.875 4.6875 C-4.59429687 5.14511719 -5.31359375 5.60273437 -6.0546875 6.07421875 C-7.01761719 6.53248047 -7.01761719 6.53248047 -8 7 C-8.66 6.67 -9.32 6.34 -10 6 C-4.15384615 0 -4.15384615 0 0 0 Z " fill="#090905" transform="translate(112,34)"/>
<path d="M0 0 C0.66 0 1.32 0 2 0 C1.65978036 3.17538332 0.97533396 4.02276865 -1.4375 6.25 C-4 8 -4 8 -6 8 C-6 7.01 -6 6.02 -6 5 C-4.36368108 3.95107762 -2.69514137 2.95093297 -1 2 C-0.67 1.34 -0.34 0.68 0 0 Z " fill="#CAC6C2" transform="translate(213,206)"/>
<path d="M0 0 C1.2380014 3.57644848 0.74926071 6.33694766 0 10 C-0.99 9.34 -1.98 8.68 -3 8 C-2.74438677 5.6568787 -2.40729228 3.32156597 -2 1 C-1.34 0.67 -0.68 0.34 0 0 Z " fill="#242214" transform="translate(179,70)"/>
<path d="M0 0 C0.33 0.99 0.66 1.98 1 3 C-0.65 4.65 -2.3 6.3 -4 8 C-4.99 7.67 -5.98 7.34 -7 7 C-2.25 1.125 -2.25 1.125 0 0 Z " fill="#282828" transform="translate(241,248)"/>
<path d="M0 0 C2 3.75 2 3.75 2 6 C0.35232753 5.71890887 -1.29313145 5.42481474 -2.9375 5.125 C-3.85402344 4.96257812 -4.77054688 4.80015625 -5.71484375 4.6328125 C-6.84599609 4.31957031 -6.84599609 4.31957031 -8 4 C-8.33 3.34 -8.66 2.68 -9 2 C-6.03 2.33 -3.06 2.66 0 3 C0 2.01 0 1.02 0 0 Z " fill="#DEC623" transform="translate(176,103)"/>
<path d="M0 0 C0.33 0.66 0.66 1.32 1 2 C-3.455 2.495 -3.455 2.495 -8 3 C-7.67 2.01 -7.34 1.02 -7 0 C-3.88407501 -1.03864166 -2.9737344 -1.09036928 0 0 Z " fill="#16150F" transform="translate(203,31)"/>
<path d="M0 0 C1.32 0 2.64 0 4 0 C4 1.65 4 3.3 4 5 C2.68 5 1.36 5 0 5 C0 3.35 0 1.7 0 0 Z " fill="#9DA9AC" transform="translate(184,242)"/>
<path d="M0 0 C0 3.60573896 -0.81707462 4.41336566 -3 7.1875 C-3.556875 7.90292969 -4.11375 8.61835938 -4.6875 9.35546875 C-5.120625 9.89816406 -5.55375 10.44085938 -6 11 C-6.71484375 9.234375 -6.71484375 9.234375 -7 7 C-5.56640625 5.078125 -5.56640625 5.078125 -3.5625 3.25 C-2.90378906 2.63640625 -2.24507813 2.0228125 -1.56640625 1.390625 C-1.04949219 0.93171875 -0.53257813 0.4728125 0 0 Z " fill="#F8DD28" transform="translate(90,122)"/>
<path d="M0 0 C-2.19963566 2.19963566 -2.99347539 2.57049648 -6 3 C-8.75 2.5625 -8.75 2.5625 -11 2 C-7.06425135 -0.62383243 -4.54354105 -1.51451368 0 0 Z " fill="#DEC41D" transform="translate(121,110)"/>
<path d="M0 0 C0.33 0.99 0.66 1.98 1 3 C-1.12780579 5.34058637 -3.11562221 6.70700306 -6 8 C-4.73058503 4.08597051 -3.48832306 2.20927127 0 0 Z " fill="#21201A" transform="translate(60,82)"/>
<path d="M0 0 C0.66 0 1.32 0 2 0 C1.67 2.97 1.34 5.94 1 9 C0.01 8.01 -0.98 7.02 -2 6 C-1.57894737 1.57894737 -1.57894737 1.57894737 0 0 Z " fill="#1F0606" transform="translate(207,202)"/>
<path d="M0 0 C1.2077558 3.62326739 0.54311128 4.64146369 -1 8 C-1.66 8 -2.32 8 -3 8 C-2.74438677 5.6568787 -2.40729228 3.32156597 -2 1 C-1.34 0.67 -0.68 0.34 0 0 Z " fill="#0E0E0E" transform="translate(37,185)"/>
<path d="M0 0 C2.74277578 3.19990508 4.6302836 6.00499382 6 10 C3.69 8.35 1.38 6.7 -1 5 C-0.67 3.35 -0.34 1.7 0 0 Z " fill="#464746" transform="translate(97,182)"/>
<path d="M0 0 C0 0.99 0 1.98 0 3 C-5.25714286 7 -5.25714286 7 -8 7 C-6.5361389 2.60841671 -4.02168662 2.12052567 0 0 Z " fill="#E5CC23" transform="translate(99,116)"/>
<path d="M0 0 C0.33 0.66 0.66 1.32 1 2 C-2.625 6.875 -2.625 6.875 -6 8 C-4.73058503 4.08597051 -3.48832306 2.20927127 0 0 Z " fill="#12110E" transform="translate(64,76)"/>
<path d="M0 0 C1.32 0 2.64 0 4 0 C4 0.66 4 1.32 4 2 C5.65 2 7.3 2 9 2 C9 2.33 9 2.66 9 3 C5.7 3.33 2.4 3.66 -1 4 C-0.67 2.68 -0.34 1.36 0 0 Z " fill="#232217" transform="translate(203,43)"/>
<path d="M0 0 C1.98 0.495 1.98 0.495 4 1 C4 2.32 4 3.64 4 5 C2.35 5 0.7 5 -1 5 C-0.67 3.35 -0.34 1.7 0 0 Z " fill="#0F1517" transform="translate(91,200)"/>
<path d="M0 0 C0.66 0.33 1.32 0.66 2 1 C0.68 2.32 -0.64 3.64 -2 5 C-2.99 4.67 -3.98 4.34 -5 4 C-3.36587557 2.29159719 -2.13093906 1.06546953 0 0 Z " fill="#080700" transform="translate(244,162)"/>
<path d="M0 0 C0.33 0.99 0.66 1.98 1 3 C-0.375 4.5 -0.375 4.5 -2 6 C-2.66 6 -3.32 6 -4 6 C-2.25 1.125 -2.25 1.125 0 0 Z " fill="#1B1A11" transform="translate(185,58)"/>
</svg>
