<?xml version="1.0" encoding="UTF-8"?>
<svg version="1.1" xmlns="http://www.w3.org/2000/svg" width="128" height="128">
<path d="M0 0 C5.57859511 2.93240769 9.43162653 7.37112086 13.35253906 12.20019531 C15.75396004 14.82368011 18.54556901 16.75431771 21.47412109 18.75146484 C21.97766113 19.16348145 22.48120117 19.57549805 23 20 C23 20.66 23 21.32 23 22 C24.485 22.495 24.485 22.495 26 23 C26 23.66 26 24.32 26 25 C26.53625 25.226875 27.0725 25.45375 27.625 25.6875 C30.82460161 27.45570089 33.29037223 29.53670203 36 32 C36 32.66 36 33.32 36 34 C36.58265625 34.27585938 37.1653125 34.55171875 37.765625 34.8359375 C39.92990554 35.96348226 41.81289146 37.14319475 43.75 38.625 C44.36359375 39.07101563 44.9771875 39.51703125 45.609375 39.9765625 C49.378191 45.46040152 46.35126342 54.70107083 45.25 60.8125 C43.42311985 71.30240784 41.81088176 81.81175826 40.30761719 92.3527832 C40.15067383 93.43906006 39.99373047 94.52533691 39.83203125 95.64453125 C39.69514893 96.60721924 39.5582666 97.56990723 39.41723633 98.56176758 C39 101 39 101 38 104 C35.68806318 105.13323465 33.49403546 106.05030916 31.08203125 106.91796875 C30.36641525 107.18116409 29.65079926 107.44435944 28.91349792 107.7155304 C-5.28278896 120.03654319 -30.61626531 117.00081227 -64 104 C-66.3508468 92.98765662 -68.10057804 81.96540555 -69.625 70.8125 C-69.94950577 68.45766017 -70.27532769 66.1030198 -70.60360718 63.748703 C-70.80522172 62.30104397 -71.00459104 60.85306982 -71.20132446 59.40473938 C-71.64367999 56.21231907 -72.16859471 53.11324663 -73 50 C-73.84432718 44.93403694 -73.84432718 44.93403694 -73 42 C-70.35115518 38.85983719 -67.39761684 36.30596378 -64 34 C-63.34 34 -62.68 34 -62 34 C-61.67 33.01 -61.34 32.02 -61 31 C-59.44140625 29.39453125 -59.44140625 29.39453125 -57.5625 27.8125 C-56.94503906 27.28269531 -56.32757813 26.75289062 -55.69140625 26.20703125 C-54 25 -54 25 -52 25 C-51.67 24.01 -51.34 23.02 -51 22 C-50.34 22 -49.68 22 -49 22 C-49 21.34 -49 20.68 -49 20 C-46.48458701 17.74702183 -43.816986 15.72807158 -41.14453125 13.6640625 C-38.88923021 11.85517297 -37.38853017 10.25318127 -35.51171875 7.9609375 C-26.50926184 -2.61250961 -13.08542005 -3.51092793 0 0 Z M-22 4 C-22 4.33 -22 4.66 -22 5 C-16.06 5 -10.12 5 -4 5 C-4 4.67 -4 4.34 -4 4 C-9.94 4 -15.88 4 -22 4 Z M-22 9 C-21.21247628 13.72514235 -20.43753563 16.70336909 -18.5625 20.9375 C-16.69887473 25.26261875 -15.14119177 29.43523292 -14 34 C-13.34 34 -12.68 34 -12 34 C-11.59007812 32.74703125 -11.18015625 31.4940625 -10.7578125 30.203125 C-10.21370183 28.55203054 -9.66942214 26.90099178 -9.125 25.25 C-8.85558594 24.425 -8.58617188 23.6 -8.30859375 22.75 C-7.91220703 21.55117188 -7.91220703 21.55117188 -7.5078125 20.328125 C-7.26691895 19.5949707 -7.02602539 18.86181641 -6.77783203 18.10644531 C-6 16 -6 16 -4.90576172 13.91699219 C-3.78639747 11.90128989 -3.78639747 11.90128989 -4 9 C-9.94 9 -15.88 9 -22 9 Z M-34.5625 16.875 C-35.17802734 17.33519531 -35.79355469 17.79539062 -36.42773438 18.26953125 C-37.99068297 19.46381091 -39.50007766 20.72746505 -41 22 C-41 22.66 -41 23.32 -41 24 C-41.7734375 24.3403125 -41.7734375 24.3403125 -42.5625 24.6875 C-45.89547005 26.48217618 -49.14703671 28.49965015 -52 31 C-52 31.66 -52 32.32 -52 33 C-52.7734375 33.3403125 -52.7734375 33.3403125 -53.5625 33.6875 C-56.90966116 35.48981755 -60.03890492 37.61282504 -63 40 C-63 40.33 -63 40.66 -63 41 C-51.6184852 41.10492107 -40.33439373 41.17759935 -29 40 C-27.77085408 30.63873691 -26.63200047 21.46576558 -27 12 C-29.52778593 12 -32.52993424 15.32005507 -34.5625 16.875 Z M1 12 C0.63200047 21.46576558 1.77085408 30.63873691 3 40 C14.33439373 41.17759935 25.6184852 41.10492107 37 41 C32.77692142 36.67287081 32.77692142 36.67287081 28 33 C27.34 33 26.68 33 26 33 C26 32.34 26 31.68 26 31 C24.05624046 29.18371224 24.05624046 29.18371224 21.625 27.375 C20.40683594 26.42753906 20.40683594 26.42753906 19.1640625 25.4609375 C17.15890121 23.81349192 17.15890121 23.81349192 15 24 C15 23.34 15 22.68 15 22 C12.88837497 20.20849615 10.77651833 18.53029747 8.5625 16.875 C7.95083984 16.40707031 7.33917969 15.93914063 6.70898438 15.45703125 C4.11446199 13.07236396 4.11446199 13.07236396 1 12 Z M-23 22 C-25.11925604 24.11925604 -24.41831017 28.6196093 -24.5625 31.5625 C-24.60568359 32.36880859 -24.64886719 33.17511719 -24.69335938 34.00585938 C-24.79975262 36.00368805 -24.90040888 38.0018207 -25 40 C-21.04 39.505 -21.04 39.505 -17 39 C-17.64916463 32.99522721 -19.85795003 27.599219 -22 22 C-22.33 22 -22.66 22 -23 22 Z M-4 22 C-4.83919398 24.26882087 -5.67151724 26.53977027 -6.5 28.8125 C-6.73847656 29.45509766 -6.97695312 30.09769531 -7.22265625 30.75976562 C-8.27068746 33.64933739 -9 35.90076061 -9 39 C-6.36 39.33 -3.72 39.66 -1 40 C-1.33 34.39 -1.66 28.78 -2 23 C-2.66 22.67 -3.32 22.34 -4 22 Z M-25 44 C-25.4683265 46.58605332 -25.4683265 46.58605332 -25.625 49.5625 C-25.69976562 50.57441406 -25.77453125 51.58632813 -25.8515625 52.62890625 C-25.90054688 53.41136719 -25.94953125 54.19382812 -26 55 C-22.72257902 51.89973691 -20.06895163 49.02901106 -18 45 C-18 44.34 -18 43.68 -18 43 C-21.62885324 42.84850702 -21.62885324 42.84850702 -25 44 Z M-8 43 C-6.48109469 47.55671592 -4.04597738 51.31723292 -1 55 C-0.67 55 -0.34 55 0 55 C-0.33 51.37 -0.66 47.74 -1 44 C-3.31 43.67 -5.62 43.34 -8 43 Z M-58 46 C-55.29546423 47.80302385 -53.2949243 48.68903014 -50.25390625 49.69140625 C-49.33416016 49.99626953 -48.41441406 50.30113281 -47.46679688 50.61523438 C-46.02916992 51.08413086 -46.02916992 51.08413086 -44.5625 51.5625 C-43.13067383 52.03719727 -43.13067383 52.03719727 -41.66992188 52.52148438 C-37.79014899 53.80026186 -33.96599945 55.00850014 -30 56 C-30 52.04 -30 48.08 -30 44 C-39.60151605 43.78423559 -48.53908883 44.53440933 -58 46 Z M4 44 C4 47.96 4 51.92 4 56 C7.29332291 55.17666927 10.42657614 54.22939204 13.640625 53.15234375 C14.71054688 52.79462891 15.78046875 52.43691406 16.8828125 52.06835938 C18.54957031 51.50858398 18.54957031 51.50858398 20.25 50.9375 C21.37664062 50.56044922 22.50328125 50.18339844 23.6640625 49.79492188 C26.44316319 48.86462969 29.22178708 47.93293937 32 47 C23.6825155 42.62929499 13.14353469 43.90168242 4 44 Z M-14 46 C-15.28406399 47.95224208 -16.47941678 49.96340762 -17.625 52 C-18.73875 53.98 -19.8525 55.96 -21 58 C-15.72 58 -10.44 58 -5 58 C-6.11375 56.02 -7.2275 54.04 -8.375 52 C-9.00148438 50.88625 -9.62796875 49.7725 -10.2734375 48.625 C-10.84320313 47.75875 -11.41296875 46.8925 -12 46 C-12.66 46 -13.32 46 -14 46 Z M-68 48 C-67.36860376 64.16374366 -63.91308556 80.12709368 -61 96 C-60.67 95.34 -60.34 94.68 -60 94 C-59.34 94 -58.68 94 -58 94 C-56.6559907 92.00715862 -55.32458708 90.00580329 -54 88 C-52.33909033 86.32759615 -50.67142175 84.66189798 -49 83 C-46.93637912 80.72379073 -44.93503762 78.39672949 -42.9375 76.0625 C-42.42123047 75.46759766 -41.90496094 74.87269531 -41.37304688 74.25976562 C-38.28332085 70.65836522 -35.54867902 67.00332077 -33 63 C-40.89625629 59.29916282 -48.91176266 55.93958672 -56.984375 52.6484375 C-60.67529773 51.14175648 -64.34023849 49.58078704 -68 48 Z M34.0625 51 C33.36189453 51.3081665 32.66128906 51.61633301 31.93945312 51.93383789 C23.61614552 55.59957656 15.30733366 59.29823674 7 63 C11.21808505 68.85845146 15.79397251 74.31638883 20.52197266 79.76269531 C24.09269807 83.8911021 27.47284812 88.11459319 30.6953125 92.5234375 C31.12585938 93.01070312 31.55640625 93.49796875 32 94 C32.66 94 33.32 94 34 94 C34.33 94.66 34.66 95.32 35 96 C37.20168336 86.1925014 38.75843305 76.32222632 40.1875 66.375 C40.45578613 64.52503418 40.45578613 64.52503418 40.72949219 62.63769531 C40.97747559 60.8795752 40.97747559 60.8795752 41.23046875 59.0859375 C41.37895264 58.0345459 41.52743652 56.9831543 41.68041992 55.89990234 C41.97402686 53.2356829 42.06074522 50.6771067 42 48 C39.3983336 48 36.45293288 49.94306143 34.0625 51 Z M-27 65 C-26.88630789 67.45933991 -26.75957349 69.9167909 -26.625 72.375 C-26.5940625 73.07367188 -26.563125 73.77234375 -26.53125 74.4921875 C-26.40500502 78.70185827 -26.40500502 78.70185827 -24 82 C-22.35 80.68 -20.7 79.36 -19 78 C-19.95098266 76.01729088 -20.91100703 74.03891621 -21.875 72.0625 C-22.40867187 70.96035156 -22.94234375 69.85820313 -23.4921875 68.72265625 C-24.71659845 65.90595489 -24.71659845 65.90595489 -27 65 Z M-20 65 C-18.14332089 69.42066456 -16.18740977 73.72934283 -14 78 C-13.34 78 -12.68 78 -12 78 C-10.99759911 76.02204824 -9.99813957 74.04260558 -9 72.0625 C-8.443125 70.96035156 -7.88625 69.85820313 -7.3125 68.72265625 C-5.92762617 66.35361757 -5.92762617 66.35361757 -6 65 C-10.62 65 -15.24 65 -20 65 Z M0 65 C-2.45170497 67.87487597 -3.84624859 70.7349963 -5.1875 74.25 C-5.53167969 75.14203125 -5.87585938 76.0340625 -6.23046875 76.953125 C-6.48441406 77.62859375 -6.73835938 78.3040625 -7 79 C-5.02 79.99 -3.04 80.98 -1 82 C0.52106634 78.95786733 0.37429338 75.71952428 0.5625 72.375 C0.62727539 71.31539063 0.62727539 71.31539063 0.69335938 70.234375 C0.79944751 68.48981463 0.90022889 66.74493303 1 65 C0.67 65 0.34 65 0 65 Z M-31 69 C-31 69.66 -31 70.32 -31 71 C-31.66 71 -32.32 71 -33 71 C-36.02517909 74.05558423 -36.02517909 74.05558423 -37 78 C-37.66 78 -38.32 78 -39 78 C-42.63633539 81.47998507 -42.63633539 81.47998507 -44 86 C-44.66 86 -45.32 86 -46 86 C-47.58455866 87.78723941 -47.58455866 87.78723941 -49.125 90 C-49.93324219 91.11375 -49.93324219 91.11375 -50.7578125 92.25 C-51.16773437 92.8275 -51.57765625 93.405 -52 94 C-46.90117545 92.4719611 -42.34334341 90.28963144 -37.625 87.875 C-36.88894531 87.50246094 -36.15289062 87.12992188 -35.39453125 86.74609375 C-33.59449642 85.8343878 -31.79698598 84.91770068 -30 84 C-30 79.05 -30 74.1 -30 69 C-30.33 69 -30.66 69 -31 69 Z M4 69 C4 73.95 4 78.9 4 84 C6.53919006 85.29673602 9.08114238 86.58747837 11.625 87.875 C12.33785156 88.23980469 13.05070312 88.60460937 13.78515625 88.98046875 C17.78751837 91.00000927 21.68917073 92.7081111 26 94 C25.04956626 92.66102417 24.08940853 91.32894573 23.125 90 C22.32449219 88.88625 22.32449219 88.88625 21.5078125 87.75 C21.01023437 87.1725 20.51265625 86.595 20 86 C19.34 86 18.68 86 18 86 C17.731875 85.4225 17.46375 84.845 17.1875 84.25 C15.97070811 81.94449957 14.69666121 79.97943808 13 78 C12.34 78 11.68 78 11 78 C10.71125 77.401875 10.4225 76.80375 10.125 76.1875 C8.95257974 73.80672208 8.95257974 73.80672208 7 71 C6.34 71 5.68 71 5 71 C4.67 70.34 4.34 69.68 4 69 Z M-14 82 C-14.85373239 89.02804699 -15.12109311 95.92278069 -15 103 C-13.68 103 -12.36 103 -11 103 C-10.87890689 95.92278069 -11.14626761 89.02804699 -12 82 C-12.66 82 -13.32 82 -14 82 Z M-25 87 C-25.78767853 92.41957078 -25.17927692 97.68358765 -24 103 C-22.68 103 -21.36 103 -20 103 C-18.67611771 96.56971459 -17.75205598 90.5705166 -18 84 C-21.3203746 84 -22.54305747 84.73702662 -25 87 Z M-8 84 C-8.24794402 90.5705166 -7.32388229 96.56971459 -6 103 C-4.68 103 -3.36 103 -2 103 C-0.82072308 97.68358765 -0.21232147 92.41957078 -1 87 C-3.45694253 84.73702662 -4.6796254 84 -8 84 Z M3 89 C3 93.29 3 97.58 3 102 C6.45906666 101.88649004 9.91675193 101.75973694 13.375 101.625 C14.35984375 101.5940625 15.3446875 101.563125 16.359375 101.53125 C17.30039063 101.49257812 18.24140625 101.45390625 19.2109375 101.4140625 C20.08024902 101.3826416 20.94956055 101.3512207 21.84521484 101.31884766 C24.20961794 101.18770567 24.20961794 101.18770567 26 99 C23.10485806 97.70677968 20.20876516 96.41570259 17.3125 95.125 C16.49587891 94.76019531 15.67925781 94.39539063 14.83789062 94.01953125 C14.04189453 93.66503906 13.24589844 93.31054688 12.42578125 92.9453125 C11.69786377 92.62062988 10.96994629 92.29594727 10.2199707 91.96142578 C7.8329686 90.92766198 5.41519019 89.96607607 3 89 Z M-38.8125 92.8125 C-39.63298828 93.16892578 -40.45347656 93.52535156 -41.29882812 93.89257812 C-42.49088867 94.41948242 -42.49088867 94.41948242 -43.70703125 94.95703125 C-44.4338208 95.27647705 -45.16061035 95.59592285 -45.90942383 95.92504883 C-48.14603948 97.07509189 -50.03193957 98.4403683 -52 100 C-49.59458071 101.20270964 -47.89633409 101.20316663 -45.2109375 101.31640625 C-44.26992188 101.35830078 -43.32890625 101.40019531 -42.359375 101.44335938 C-41.37453125 101.48267578 -40.3896875 101.52199219 -39.375 101.5625 C-38.38242187 101.60568359 -37.38984375 101.64886719 -36.3671875 101.69335938 C-33.91162967 101.79960947 -31.45583349 101.90032455 -29 102 C-29 97.71 -29 93.42 -29 89 C-32.18397099 89 -35.94476305 91.54412061 -38.8125 92.8125 Z M-41 106 C-34.79165024 109.16996748 -34.79165024 109.16996748 -28 110 C-28 108.68 -28 107.36 -28 106 C-32.29 106 -36.58 106 -41 106 Z M2 106 C2 107.32 2 108.64 2 110 C6.71403788 109.52060632 10.66579301 109.03165952 15 107 C15 106.67 15 106.34 15 106 C10.71 106 6.42 106 2 106 Z M-24 107 C-24 108.65 -24 110.3 -24 112 C-16.74 112 -9.48 112 -2 112 C-2 110.35 -2 108.7 -2 107 C-9.26 107 -16.52 107 -24 107 Z " fill="#7364C5" transform="translate(77,8)"/>
<path d="M0 0 C4.33683782 0.63976047 6.5521797 3.50598082 9.56640625 6.53125 C10.80180158 7.73084381 12.04006283 8.9274936 13.28125 10.12109375 C13.87534668 10.69327637 14.46944336 11.26545898 15.08154297 11.85498047 C17.14959902 13.77329114 19.3341403 15.45580436 21.62890625 17.09375 C22.66015625 17.856875 23.69140625 18.62 24.75390625 19.40625 C24.75390625 20.06625 24.75390625 20.72625 24.75390625 21.40625 C25.74390625 21.73625 26.73390625 22.06625 27.75390625 22.40625 C27.75390625 23.06625 27.75390625 23.72625 27.75390625 24.40625 C28.29015625 24.633125 28.82640625 24.86 29.37890625 25.09375 C32.57850786 26.86195089 35.04427848 28.94295203 37.75390625 31.40625 C37.75390625 32.06625 37.75390625 32.72625 37.75390625 33.40625 C38.3365625 33.68210938 38.91921875 33.95796875 39.51953125 34.2421875 C41.68381179 35.36973226 43.56679771 36.54944475 45.50390625 38.03125 C46.1175 38.47726563 46.73109375 38.92328125 47.36328125 39.3828125 C51.13209725 44.86665152 48.10516967 54.10732083 47.00390625 60.21875 C45.1770261 70.70865784 43.56478801 81.21800826 42.06152344 91.7590332 C41.90458008 92.84531006 41.74763672 93.93158691 41.5859375 95.05078125 C41.44905518 96.01346924 41.31217285 96.97615723 41.17114258 97.96801758 C40.75390625 100.40625 40.75390625 100.40625 39.75390625 103.40625 C37.49586452 104.46046025 35.35673913 105.30838511 33.0078125 106.10546875 C32.32267075 106.3453804 31.63752899 106.58529205 30.93162537 106.83247375 C29.47511632 107.33838748 28.01646005 107.83815436 26.5559082 108.33227539 C24.34944964 109.0825146 22.15448017 109.86092917 19.95898438 110.64257812 C12.42687012 113.26061366 5.82587651 115.0822278 -2.24609375 114.40625 C-1.58609375 111.76625 -0.92609375 109.12625 -0.24609375 106.40625 C-3.54609375 106.40625 -6.84609375 106.40625 -10.24609375 106.40625 C-9.49609375 103.96875 -9.49609375 103.96875 -8.24609375 101.40625 C-6.12109375 100.59375 -6.12109375 100.59375 -4.24609375 100.40625 C-4.24609375 101.06625 -4.24609375 101.72625 -4.24609375 102.40625 C-2.92609375 102.40625 -1.60609375 102.40625 -0.24609375 102.40625 C-0.24609375 97.12625 -0.24609375 91.84625 -0.24609375 86.40625 C-1.56609375 85.74625 -2.88609375 85.08625 -4.24609375 84.40625 C-5.49609375 81.78125 -5.49609375 81.78125 -6.24609375 79.40625 C-3.91276042 79.40625 -1.57942708 79.40625 0.75390625 79.40625 C1.08390625 74.78625 1.41390625 70.16625 1.75390625 65.40625 C0.76390625 67.38625 -0.22609375 69.36625 -1.24609375 71.40625 C-2.56609375 71.07625 -3.88609375 70.74625 -5.24609375 70.40625 C-4.91609375 68.75625 -4.58609375 67.10625 -4.24609375 65.40625 C-11.17609375 64.91125 -11.17609375 64.91125 -18.24609375 64.40625 C-18.24609375 64.07625 -18.24609375 63.74625 -18.24609375 63.40625 C-13.95609375 63.40625 -9.66609375 63.40625 -5.24609375 63.40625 C-5.24609375 62.74625 -5.24609375 62.08625 -5.24609375 61.40625 C-6.23609375 61.40625 -7.22609375 61.40625 -8.24609375 61.40625 C-8.74109375 59.92125 -8.74109375 59.92125 -9.24609375 58.40625 C-7.59609375 57.74625 -5.94609375 57.08625 -4.24609375 56.40625 C-5.19543888 54.73444726 -6.15582688 53.06891064 -7.12109375 51.40625 C-7.65476562 50.478125 -8.1884375 49.55 -8.73828125 48.59375 C-9.23585938 47.871875 -9.7334375 47.15 -10.24609375 46.40625 C-10.90609375 46.40625 -11.56609375 46.40625 -12.24609375 46.40625 C-12.74109375 47.23125 -13.23609375 48.05625 -13.74609375 48.90625 C-14.24109375 49.73125 -14.73609375 50.55625 -15.24609375 51.40625 C-15.90609375 51.40625 -16.56609375 51.40625 -17.24609375 51.40625 C-18.37109375 45.78125 -18.37109375 45.78125 -17.24609375 42.40625 C-17.63542231 40.26369207 -17.63542231 40.26369207 -18.24609375 38.40625 C-17.25609375 38.40625 -16.26609375 38.40625 -15.24609375 38.40625 C-15.43171875 37.643125 -15.61734375 36.88 -15.80859375 36.09375 C-16.24609375 33.40625 -16.24609375 33.40625 -15.24609375 30.40625 C-14.25609375 30.40625 -13.26609375 30.40625 -12.24609375 30.40625 C-12.24609375 31.39625 -12.24609375 32.38625 -12.24609375 33.40625 C-11.58609375 33.40625 -10.92609375 33.40625 -10.24609375 33.40625 C-10.17132813 32.85839844 -10.0965625 32.31054688 -10.01953125 31.74609375 C-8.63646241 23.40700219 -5.49593599 16.17761187 -2.24609375 8.40625 C-7.85609375 8.40625 -13.46609375 8.40625 -19.24609375 8.40625 C-19.57609375 7.41625 -19.90609375 6.42625 -20.24609375 5.40625 C-17.15346608 3.85993616 -13.87900465 4.01564284 -10.4609375 3.78515625 C-9.36458984 3.59759766 -9.36458984 3.59759766 -8.24609375 3.40625 C-7.91609375 2.74625 -7.58609375 2.08625 -7.24609375 1.40625 C-4.84585407 0.73951676 -2.44805546 0.44277873 0 0 Z M2.75390625 11.40625 C2.38590672 20.87201558 3.52476033 30.04498691 4.75390625 39.40625 C16.08829998 40.58384935 27.37239145 40.51117107 38.75390625 40.40625 C34.53082767 36.07912081 34.53082767 36.07912081 29.75390625 32.40625 C29.09390625 32.40625 28.43390625 32.40625 27.75390625 32.40625 C27.75390625 31.74625 27.75390625 31.08625 27.75390625 30.40625 C25.81014671 28.58996224 25.81014671 28.58996224 23.37890625 26.78125 C22.16074219 25.83378906 22.16074219 25.83378906 20.91796875 24.8671875 C18.91280746 23.21974192 18.91280746 23.21974192 16.75390625 23.40625 C16.75390625 22.74625 16.75390625 22.08625 16.75390625 21.40625 C14.64228122 19.61474615 12.53042458 17.93654747 10.31640625 16.28125 C9.70474609 15.81332031 9.09308594 15.34539063 8.46289062 14.86328125 C5.86836824 12.47861396 5.86836824 12.47861396 2.75390625 11.40625 Z M-2.24609375 21.40625 C-3.08528773 23.67507087 -3.91761099 25.94602027 -4.74609375 28.21875 C-4.98457031 28.86134766 -5.22304687 29.50394531 -5.46875 30.16601562 C-6.51678121 33.05558739 -7.24609375 35.30701061 -7.24609375 38.40625 C-4.60609375 38.73625 -1.96609375 39.06625 0.75390625 39.40625 C0.42390625 33.79625 0.09390625 28.18625 -0.24609375 22.40625 C-0.90609375 22.07625 -1.56609375 21.74625 -2.24609375 21.40625 Z M-6.24609375 42.40625 C-4.72718844 46.96296592 -2.29207113 50.72348292 0.75390625 54.40625 C1.08390625 54.40625 1.41390625 54.40625 1.75390625 54.40625 C1.42390625 50.77625 1.09390625 47.14625 0.75390625 43.40625 C-1.55609375 43.07625 -3.86609375 42.74625 -6.24609375 42.40625 Z M5.75390625 43.40625 C5.75390625 47.36625 5.75390625 51.32625 5.75390625 55.40625 C9.04722916 54.58291927 12.18048239 53.63564204 15.39453125 52.55859375 C16.46445313 52.20087891 17.534375 51.84316406 18.63671875 51.47460938 C20.30347656 50.91483398 20.30347656 50.91483398 22.00390625 50.34375 C23.13054687 49.96669922 24.2571875 49.58964844 25.41796875 49.20117188 C28.19706944 48.27087969 30.97569333 47.33918937 33.75390625 46.40625 C25.43642175 42.03554499 14.89744094 43.30793242 5.75390625 43.40625 Z M35.81640625 50.40625 C35.11580078 50.7144165 34.41519531 51.02258301 33.69335938 51.34008789 C25.37005177 55.00582656 17.06123991 58.70448674 8.75390625 62.40625 C12.9719913 68.26470146 17.54787876 73.72263883 22.27587891 79.16894531 C25.84660432 83.2973521 29.22675437 87.52084319 32.44921875 91.9296875 C32.87976563 92.41695312 33.3103125 92.90421875 33.75390625 93.40625 C34.41390625 93.40625 35.07390625 93.40625 35.75390625 93.40625 C36.08390625 94.06625 36.41390625 94.72625 36.75390625 95.40625 C38.95558961 85.5987514 40.5123393 75.72847632 41.94140625 65.78125 C42.20969238 63.93128418 42.20969238 63.93128418 42.48339844 62.04394531 C42.73138184 60.2858252 42.73138184 60.2858252 42.984375 58.4921875 C43.13285889 57.4407959 43.28134277 56.3894043 43.43432617 55.30615234 C43.72793311 52.6419329 43.81465147 50.0833567 43.75390625 47.40625 C41.15223985 47.40625 38.20683913 49.34931143 35.81640625 50.40625 Z M5.75390625 68.40625 C5.75390625 73.35625 5.75390625 78.30625 5.75390625 83.40625 C8.29309631 84.70298602 10.83504863 85.99372837 13.37890625 87.28125 C14.09175781 87.64605469 14.80460937 88.01085937 15.5390625 88.38671875 C19.54142462 90.40625927 23.44307698 92.1143611 27.75390625 93.40625 C26.80347251 92.06727417 25.84331478 90.73519573 24.87890625 89.40625 C24.07839844 88.2925 24.07839844 88.2925 23.26171875 87.15625 C22.76414062 86.57875 22.2665625 86.00125 21.75390625 85.40625 C21.09390625 85.40625 20.43390625 85.40625 19.75390625 85.40625 C19.48578125 84.82875 19.21765625 84.25125 18.94140625 83.65625 C17.72461436 81.35074957 16.45056746 79.38568808 14.75390625 77.40625 C14.09390625 77.40625 13.43390625 77.40625 12.75390625 77.40625 C12.46515625 76.808125 12.17640625 76.21 11.87890625 75.59375 C10.70648599 73.21297208 10.70648599 73.21297208 8.75390625 70.40625 C8.09390625 70.40625 7.43390625 70.40625 6.75390625 70.40625 C6.42390625 69.74625 6.09390625 69.08625 5.75390625 68.40625 Z M4.75390625 88.40625 C4.75390625 92.69625 4.75390625 96.98625 4.75390625 101.40625 C8.21297291 101.29274004 11.67065818 101.16598694 15.12890625 101.03125 C16.11375 101.0003125 17.09859375 100.969375 18.11328125 100.9375 C19.05429688 100.89882812 19.9953125 100.86015625 20.96484375 100.8203125 C21.83415527 100.7888916 22.7034668 100.7574707 23.59912109 100.72509766 C25.96352419 100.59395567 25.96352419 100.59395567 27.75390625 98.40625 C24.85876431 97.11302968 21.96267141 95.82195259 19.06640625 94.53125 C18.24978516 94.16644531 17.43316406 93.80164063 16.59179688 93.42578125 C15.79580078 93.07128906 14.99980469 92.71679688 14.1796875 92.3515625 C13.45177002 92.02687988 12.72385254 91.70219727 11.97387695 91.36767578 C9.58687485 90.33391198 7.16909644 89.37232607 4.75390625 88.40625 Z M3.75390625 105.40625 C3.75390625 106.72625 3.75390625 108.04625 3.75390625 109.40625 C8.46794413 108.92685632 12.41969926 108.43790952 16.75390625 106.40625 C16.75390625 106.07625 16.75390625 105.74625 16.75390625 105.40625 C12.46390625 105.40625 8.17390625 105.40625 3.75390625 105.40625 Z " fill="#9D4CBB" transform="translate(75.24609375,8.59375)"/>
<path d="M0 0 C4.46270981 0.43117969 7.06251385 3.54183211 10.125 6.5 C13.75767922 10.16207271 13.75767922 10.16207271 18 13 C18 13.66 18 14.32 18 15 C18.99 15.33 19.98 15.66 21 16 C21 16.66 21 17.32 21 18 C21.53625 18.226875 22.0725 18.45375 22.625 18.6875 C25.82460161 20.45570089 28.29037223 22.53670203 31 25 C31 25.66 31 26.32 31 27 C31.58265625 27.27585937 32.1653125 27.55171875 32.765625 27.8359375 C34.92990554 28.96348226 36.81289146 30.14319475 38.75 31.625 C39.67039062 32.29402344 39.67039062 32.29402344 40.609375 32.9765625 C44.378191 38.46040152 41.35126342 47.70107083 40.25 53.8125 C38.42311985 64.30240784 36.81088176 74.81175826 35.30761719 85.3527832 C35.15067383 86.43906006 34.99373047 87.52533691 34.83203125 88.64453125 C34.69514893 89.60721924 34.5582666 90.56990723 34.41723633 91.56176758 C34 94 34 94 33 97 C30.66036394 98.05190433 28.43441623 98.90215874 26.0078125 99.69921875 C25.30606903 99.9391304 24.60432556 100.17904205 23.88131714 100.42622375 C22.3952587 100.9317395 20.90724065 101.43152516 19.41748047 101.92602539 C17.13711573 102.68347562 14.86324222 103.45824949 12.58984375 104.23632812 C11.14618188 104.72498927 9.70218189 105.21265287 8.2578125 105.69921875 C7.23580246 106.04601936 7.23580246 106.04601936 6.19314575 106.39982605 C3.33107784 107.34550308 1.03683596 108 -2 108 C-2 106.68 -2 105.36 -2 104 C0.64 102.68 3.28 101.36 6 100 C6 99.67 6 99.34 6 99 C4.02 98.67 2.04 98.34 0 98 C0 97.34 0 96.68 0 96 C4.35590568 94.37150031 8.23934612 93.65881554 12.875 93.375 C14.60363281 93.26285156 14.60363281 93.26285156 16.3671875 93.1484375 C17.23601562 93.09945312 18.10484375 93.05046875 19 93 C18.175 92.38125 17.35 91.7625 16.5 91.125 C15.2625 90.073125 15.2625 90.073125 14 89 C14 88.34 14 87.68 14 87 C13.34 87 12.68 87 12 87 C11.67 86.01 11.34 85.02 11 84 C11.94875 84.165 12.8975 84.33 13.875 84.5 C16.80168901 85.0526635 16.80168901 85.0526635 19 85 C18.34 84.38125 17.68 83.7625 17 83.125 C15 81 15 81 15 79 C14.34 79 13.68 79 13 79 C9.35767388 75.17555757 7.3606611 72.19525146 6 67 C6.99 66.01 7.98 65.02 9 64 C11.00602639 66.28663127 13.00491565 68.57885562 15 70.875 C15.57234375 71.52597656 16.1446875 72.17695312 16.734375 72.84765625 C17.27578125 73.47285156 17.8171875 74.09804687 18.375 74.7421875 C19.12910156 75.60626221 19.12910156 75.60626221 19.8984375 76.48779297 C21 78 21 78 21 80 C22.485 80.495 22.485 80.495 24 81 C27 84.44444444 27 84.44444444 27 87 C28.485 86.505 28.485 86.505 30 86 C33.19329509 64.02586315 33.19329509 64.02586315 36 42 C34.28924023 42.74483518 32.5785851 43.48991148 30.8684082 44.23608398 C29.4077368 44.87329841 27.94663195 45.50952013 26.48510742 46.14477539 C21.3794945 48.37154177 16.33500166 50.70207005 11.33203125 53.15234375 C8.74573366 54.09242177 6.73067171 54.16005713 4 54 C5.82778987 46.77836494 5.82778987 46.77836494 8.84130859 44.77734375 C11.10102545 43.87040677 13.3423002 43.15411643 15.6875 42.5 C16.48478516 42.24992187 17.28207031 41.99984375 18.10351562 41.7421875 C20.06033886 41.13287727 22.02920395 40.56247585 24 40 C22.26043342 38.26043342 19.8063378 38.62809614 17.4375 38.4375 C16.42558594 38.35371094 15.41367188 38.26992188 14.37109375 38.18359375 C13.19740234 38.09271484 13.19740234 38.09271484 12 38 C11.67 36.68 11.34 35.36 11 34 C17.27 33.67 23.54 33.34 30 33 C28.515 31.88625 27.03 30.7725 25.5 29.625 C22.96875 27.7265625 22.96875 27.7265625 21 26 C21 25.34 21 24.68 21 24 C20.484375 23.773125 19.96875 23.54625 19.4375 23.3125 C16.10452995 21.51782382 12.85296329 19.50034985 10 17 C10 16.34 10 15.68 10 15 C9.44828125 14.75507813 8.8965625 14.51015625 8.328125 14.2578125 C5.52360509 12.74261886 3.21896877 10.88915874 0.75 8.875 C-0.14203125 8.15054687 -1.0340625 7.42609375 -1.953125 6.6796875 C-2.96632813 5.84824219 -2.96632813 5.84824219 -4 5 C-3.01 4.34 -2.02 3.68 -1 3 C-0.67 2.01 -0.34 1.02 0 0 Z " fill="#C733B1" transform="translate(82,15)"/>
<path d="M0 0 C2 3 2 3 2.6875 5.75 C1.6971113 10.43183749 -1.08706253 11.93051252 -4.8359375 14.6796875 C-7 16 -7 16 -9 16 C-9 16.66 -9 17.32 -9 18 C-11.86718324 20.51447419 -14.94687366 22.71015525 -18 25 C-12.39 25.33 -6.78 25.66 -1 26 C-1.33 27.32 -1.66 28.64 -2 30 C-2.63808594 30.06058594 -3.27617187 30.12117188 -3.93359375 30.18359375 C-5.17302734 30.30927734 -5.17302734 30.30927734 -6.4375 30.4375 C-7.67306641 30.55931641 -7.67306641 30.55931641 -8.93359375 30.68359375 C-10.98662025 30.78930815 -10.98662025 30.78930815 -12 32 C-11.36191406 32.19335938 -10.72382813 32.38671875 -10.06640625 32.5859375 C-8.82697266 32.97652344 -8.82697266 32.97652344 -7.5625 33.375 C-6.32693359 33.75785156 -6.32693359 33.75785156 -5.06640625 34.1484375 C-3 35 -3 35 -2 37 C-1.01 37.66 -0.02 38.32 1 39 C0.67 40.65 0.34 42.3 0 44 C-8.26101253 41.18562699 -16.125529 37.75570954 -24 34 C-22.2648197 48.7033699 -20.12177048 63.34835641 -18 78 C-17.01 78.33 -16.02 78.66 -15 79 C-14.71125 78.401875 -14.4225 77.80375 -14.125 77.1875 C-13 75 -13 75 -11 72 C-10.34 72 -9.68 72 -9 72 C-8.72744385 71.4112207 -8.4548877 70.82244141 -8.17407227 70.21582031 C-7.0283144 68.05343762 -5.80530178 66.398146 -4.21484375 64.546875 C-3.41916992 63.61875 -3.41916992 63.61875 -2.60742188 62.671875 C-2.05634766 62.03765625 -1.50527344 61.4034375 -0.9375 60.75 C-0.38255859 60.1003125 0.17238281 59.450625 0.74414062 58.78125 C2.1375964 57.16545231 3.56589919 55.57983418 5 54 C5.33 54 5.66 54 6 54 C6 56.97 6 59.94 6 63 C5.34 63 4.68 63 4 63 C3.731875 63.5775 3.46375 64.155 3.1875 64.75 C1.97070811 67.05550043 0.69666121 69.02056192 -1 71 C-1.66 71 -2.32 71 -3 71 C-3.28875 71.598125 -3.5775 72.19625 -3.875 72.8125 C-5 75 -5 75 -7 78 C-5.02 77.505 -5.02 77.505 -3 77 C-3.33 78.32 -3.66 79.64 -4 81 C-4.66 81 -5.32 81 -6 81 C-7.35852368 84.66801395 -6.47642805 86.49348338 -5 90 C-5.33 90.66 -5.66 91.32 -6 92 C-7.37577361 91.88382356 -8.75061045 91.75654223 -10.125 91.625 C-10.89070313 91.55539063 -11.65640625 91.48578125 -12.4453125 91.4140625 C-15.43417446 90.92962922 -18.1398524 89.98091705 -21 89 C-23.3508468 77.98765662 -25.10057804 66.96540555 -26.625 55.8125 C-26.94950577 53.45766017 -27.27532769 51.1030198 -27.60360718 48.748703 C-27.80522172 47.30104397 -28.00459104 45.85306982 -28.20132446 44.40473938 C-28.64367999 41.21231907 -29.16859471 38.11324663 -30 35 C-30.84432718 29.93403694 -30.84432718 29.93403694 -30 27 C-27.35115518 23.85983719 -24.39761684 21.30596378 -21 19 C-20.34 19 -19.68 19 -19 19 C-18.67 18.01 -18.34 17.02 -18 16 C-16.44140625 14.39453125 -16.44140625 14.39453125 -14.5625 12.8125 C-13.94503906 12.28269531 -13.32757812 11.75289062 -12.69140625 11.20703125 C-11 10 -11 10 -9 10 C-8.67 9.01 -8.34 8.02 -8 7 C-7.34 7 -6.68 7 -6 7 C-6 6.34 -6 5.68 -6 5 C-4.04072937 3.2856382 -2.04119788 1.61594832 0 0 Z " fill="#4286D1" transform="translate(34,23)"/>
<path d="M0 0 C2.78712092 1.39356046 3.26463329 3.16505673 4.625 5.9375 C5.07101563 6.83339844 5.51703125 7.72929688 5.9765625 8.65234375 C7 11 7 11 7 13 C7.66 13 8.32 13 9 13 C9.268125 12.071875 9.53625 11.14375 9.8125 10.1875 C10.91148371 7.23759634 11.62418561 5.94384814 14 4 C14.99 4.99 15.98 5.98 17 7 C16.77183594 7.61488281 16.54367188 8.22976562 16.30859375 8.86328125 C15.87740234 10.07564453 15.87740234 10.07564453 15.4375 11.3125 C15.14746094 12.11300781 14.85742188 12.91351563 14.55859375 13.73828125 C13.75084375 16.1433174 13.75084375 16.1433174 15 19 C14.34 19 13.68 19 13 19 C13.66 24.61 14.32 30.22 15 36 C13.68 36.66 12.36 37.32 11 38 C10.67 38.99 10.34 39.98 10 41 C11.32 41.66 12.64 42.32 14 43 C12.10424749 43.02721176 10.20838021 43.04649136 8.3125 43.0625 C7.25675781 43.07410156 6.20101562 43.08570313 5.11328125 43.09765625 C2.27589738 43.00865425 -0.2438919 42.64939838 -3 42 C-3 43.65 -3 45.3 -3 47 C3.93 47 10.86 47 18 47 C18 47.66 18 48.32 18 49 C19.65 49.33 21.3 49.66 23 50 C23 50.33 23 50.66 23 51 C18.78250781 51.07419134 14.56536189 51.1286204 10.34741211 51.16479492 C8.91277448 51.17987589 7.47818292 51.2003438 6.04370117 51.22631836 C3.98084141 51.26273437 1.91859142 51.27973243 -0.14453125 51.29296875 C-1.38565674 51.3086792 -2.62678223 51.32438965 -3.90551758 51.34057617 C-7 51 -7 51 -8.9284668 49.60668945 C-10 48 -10 48 -10 46 C-8.02 45.505 -8.02 45.505 -6 45 C-6.33 43.35 -6.66 41.7 -7 40 C-7.99 40 -8.98 40 -10 40 C-10 39.34 -10 38.68 -10 38 C-7.69 37.34 -5.38 36.68 -3 36 C-3 36.66 -3 37.32 -3 38 C-1.68 38 -0.36 38 1 38 C1.66 31.73 2.32 25.46 3 19 C2.01 18.67 1.02 18.34 0 18 C0.226875 17.29875 0.45375 16.5975 0.6875 15.875 C1.28908731 12.88132069 1.28908731 12.88132069 -0.5625 10.125 C-2 7 -2 7 -1.1875 3.125 C-0.795625 2.09375 -0.40375 1.0625 0 0 Z M7 17 C6.14626761 24.02804699 5.87890689 30.92278069 6 38 C7.32 38 8.64 38 10 38 C10.12109311 30.92278069 9.85373239 24.02804699 9 17 C8.34 17 7.68 17 7 17 Z M14 1 C14.99 1.495 14.99 1.495 16 2 C15.34 2.66 14.68 3.32 14 4 C14 3.01 14 2.02 14 1 Z " fill="#825DC2" transform="translate(56,73)"/>
<path d="M0 0 C3.89410173 0.56986855 5.70917366 2.72074294 8.5625 5.375 C7.5725 5.87 7.5725 5.87 6.5625 6.375 C5.91036708 8.39963255 5.91036708 8.39963255 5.5625 10.375 C4.5725 10.375 3.5825 10.375 2.5625 10.375 C2.5625 14.005 2.5625 17.635 2.5625 21.375 C0.9125 22.035 -0.7375 22.695 -2.4375 23.375 C-3.62848646 25.9922295 -4.48102159 28.2669751 -5.25 31 C-5.57387695 32.05960938 -5.57387695 32.05960938 -5.90429688 33.140625 C-6.43319015 34.8800962 -6.93774861 36.62693344 -7.4375 38.375 C-6.1175 38.375 -4.7975 38.375 -3.4375 38.375 C-3.870625 39.2 -4.30375 40.025 -4.75 40.875 C-5.77311793 44.21878889 -5.77311793 44.21878889 -4.421875 46.44921875 C-3.48641227 47.83956308 -2.51399363 49.20585569 -1.50390625 50.54296875 C-0.97603516 51.44982422 -0.97603516 51.44982422 -0.4375 52.375 C-0.7675 53.365 -1.0975 54.355 -1.4375 55.375 C-2.7575 55.375 -4.0775 55.375 -5.4375 55.375 C-7.0875 52.405 -8.7375 49.435 -10.4375 46.375 C-11.0975 46.375 -11.7575 46.375 -12.4375 46.375 C-12.9325 47.2 -13.4275 48.025 -13.9375 48.875 C-14.4325 49.7 -14.9275 50.525 -15.4375 51.375 C-16.0975 51.375 -16.7575 51.375 -17.4375 51.375 C-18.5625 45.75 -18.5625 45.75 -17.4375 42.375 C-17.82682856 40.23244207 -17.82682856 40.23244207 -18.4375 38.375 C-17.4475 38.375 -16.4575 38.375 -15.4375 38.375 C-15.623125 37.611875 -15.80875 36.84875 -16 36.0625 C-16.4375 33.375 -16.4375 33.375 -15.4375 30.375 C-14.4475 30.375 -13.4575 30.375 -12.4375 30.375 C-12.4375 31.365 -12.4375 32.355 -12.4375 33.375 C-11.7775 33.375 -11.1175 33.375 -10.4375 33.375 C-10.36273438 32.82714844 -10.28796875 32.27929688 -10.2109375 31.71484375 C-8.82786866 23.37575219 -5.68734224 16.14636187 -2.4375 8.375 C-8.0475 8.375 -13.6575 8.375 -19.4375 8.375 C-19.7675 7.385 -20.0975 6.395 -20.4375 5.375 C-17.34487233 3.82868616 -14.0704109 3.98439284 -10.65234375 3.75390625 C-9.55599609 3.56634766 -9.55599609 3.56634766 -8.4375 3.375 C-8.1075 2.715 -7.7775 2.055 -7.4375 1.375 C-4.97295793 0.69040498 -2.5252881 0.38850586 0 0 Z " fill="#9452BD" transform="translate(75.4375,8.625)"/>
<path d="M0 0 C5.53904963 0.67885333 8.35397803 3.19517123 12.171875 7.1015625 C15.49350115 12.36790139 14.68985196 18.01276631 14 24 C12.55560547 24.41572266 12.55560547 24.41572266 11.08203125 24.83984375 C7.80112925 25.6805376 7.80112925 25.6805376 6.6875 28.5625 C6.460625 29.366875 6.23375 30.17125 6 31 C5 32 5 32 1.40234375 32.09765625 C-0.08596867 32.0909822 -1.57426432 32.07902183 -3.0625 32.0625 C-4.20041992 32.05573242 -4.20041992 32.05573242 -5.36132812 32.04882812 C-7.24091871 32.0370068 -9.12046899 32.01907078 -11 32 C-10.49545889 25.32453295 -8.64040944 19.90048128 -6.0625 13.75 C-5.70220703 12.86570312 -5.34191406 11.98140625 -4.97070312 11.0703125 C-3.42890447 7.31093604 -1.85273832 3.61815601 0 0 Z M1 9 C0.30093058 10.59915881 -0.38389468 12.20455045 -1.0625 13.8125 C-1.44535156 14.70582031 -1.82820312 15.59914063 -2.22265625 16.51953125 C-3.29461205 19.0919236 -3.29461205 19.0919236 -2 22 C0.31 20.02 2.62 18.04 5 16 C4.34414811 12.39007621 4.34414811 12.39007621 3 9 C2.34 9 1.68 9 1 9 Z " fill="#4283D1" transform="translate(11,5)"/>
<path d="M0 0 C2.32421875 1.1484375 2.32421875 1.1484375 3.73046875 3.88671875 C4.09140625 5.06621094 4.45234375 6.24570313 4.82421875 7.4609375 C5.23116433 8.73800672 5.64138737 10.01403564 6.0546875 11.2890625 C6.26013184 11.93423828 6.46557617 12.57941406 6.67724609 13.24414062 C7.99084647 17.11058701 9.72964331 20.80785629 11.40625 24.52734375 C12.35944479 27.24901908 12.50522287 29.28857244 12.32421875 32.1484375 C9.7189477 32.25636587 7.11813564 32.33568628 4.51171875 32.3984375 C3.77373047 32.43195312 3.03574219 32.46546875 2.27539062 32.5 C-3.1963226 32.59903553 -3.1963226 32.59903553 -5.6875 30.2578125 C-6.67578125 28.1484375 -6.67578125 28.1484375 -6.67578125 26.1484375 C-8.65578125 25.4884375 -10.63578125 24.8284375 -12.67578125 24.1484375 C-13.48697967 17.89319637 -14.14148382 12.42934989 -10.625 6.95703125 C-4.16701846 0.23116307 -4.16701846 0.23116307 0 0 Z M-1.67578125 9.1484375 C-2.98006476 11.29666916 -3.7391587 12.57804041 -3.45703125 15.1171875 C-2.4780663 17.66249638 -1.37424323 18.41853511 0.88671875 19.8984375 C1.52738281 20.32640625 2.16804688 20.754375 2.828125 21.1953125 C3.32183594 21.50984375 3.81554687 21.824375 4.32421875 22.1484375 C3.60413469 17.53989953 2.01125936 13.47606341 0.32421875 9.1484375 C-0.33578125 9.1484375 -0.99578125 9.1484375 -1.67578125 9.1484375 Z " fill="#CD31AC" transform="translate(115.67578125,4.8515625)"/>
<path d="M0 0 C0.66 0 1.32 0 2 0 C1.1875 3.4375 1.1875 3.4375 0 7 C-0.99 7.33 -1.98 7.66 -3 8 C-3 12.62 -3 17.24 -3 22 C-7 24 -7 24 -10 24 C-10 24.66 -10 25.32 -10 26 C-9.01 26.33 -8.02 26.66 -7 27 C-9.97 27.33 -12.94 27.66 -16 28 C-13.03 28.99 -10.06 29.98 -7 31 C-6.67 30.01 -6.34 29.02 -6 28 C-6 29.32 -6 30.64 -6 32 C-7.32 32 -8.64 32 -10 32 C-9.67 33.32 -9.34 34.64 -9 36 C-16.6805543 33.71143755 -24.34249954 31.36446331 -32 29 C-30.68 28.67 -29.36 28.34 -28 28 C-28 26.02 -28 24.04 -28 22 C-25.79173622 21.97277483 -23.58337362 21.95350271 -21.375 21.9375 C-20.14523438 21.92589844 -18.91546875 21.91429688 -17.6484375 21.90234375 C-14.32276209 21.99136076 -11.25952412 22.36313913 -8 23 C-8.33 19.04 -8.66 15.08 -9 11 C-14.94 13.64 -20.88 16.28 -27 19 C-27.33 18.34 -27.66 17.68 -28 17 C-27.34 16.67 -26.68 16.34 -26 16 C-25.93941406 15.38640625 -25.87882812 14.7728125 -25.81640625 14.140625 C-25 12 -25 12 -21.83984375 10.296875 C-20.54530142 9.76578071 -19.24410842 9.25067498 -17.9375 8.75 C-17.27427734 8.481875 -16.61105469 8.21375 -15.92773438 7.9375 C-14.29061873 7.27794262 -12.64596647 6.63714831 -11 6 C-11 6.66 -11 7.32 -11 8 C-10.34 8 -9.68 8 -9 8 C-8.67 7.01 -8.34 6.02 -8 5 C-7.34 4.67 -6.68 4.34 -6 4 C-5.34 3.01 -4.68 2.02 -4 1 C-3.01 1 -2.02 1 -1 1 C-0.67 0.67 -0.34 0.34 0 0 Z " fill="#7368BD" transform="translate(56,87)"/>
<path d="M0 0 C0.33 0 0.66 0 1 0 C1 2.97 1 5.94 1 9 C0.34 9 -0.32 9 -1 9 C-1.268125 9.5775 -1.53625 10.155 -1.8125 10.75 C-3.02929189 13.05550043 -4.30333879 15.02056192 -6 17 C-6.66 17 -7.32 17 -8 17 C-8.433125 17.8971875 -8.433125 17.8971875 -8.875 18.8125 C-10 21 -10 21 -12 24 C-10.68 23.67 -9.36 23.34 -8 23 C-8.33 24.32 -8.66 25.64 -9 27 C-9.66 27 -10.32 27 -11 27 C-12.35852368 30.66801395 -11.47642805 32.49348338 -10 36 C-10.33 36.66 -10.66 37.32 -11 38 C-21.25835866 37.1337386 -21.25835866 37.1337386 -26 35 C-27.28317892 31.15046324 -27.06643637 28.05261865 -27 24 C-24.69 24.33 -22.38 24.66 -20 25 C-19.71125 24.401875 -19.4225 23.80375 -19.125 23.1875 C-18 21 -18 21 -16 18 C-15.34 18 -14.68 18 -14 18 C-13.72744385 17.4112207 -13.4548877 16.82244141 -13.17407227 16.21582031 C-12.0283144 14.05343762 -10.80530178 12.398146 -9.21484375 10.546875 C-8.68439453 9.928125 -8.15394531 9.309375 -7.60742188 8.671875 C-7.05634766 8.03765625 -6.50527344 7.4034375 -5.9375 6.75 C-5.38255859 6.1003125 -4.82761719 5.450625 -4.25585938 4.78125 C-2.8624036 3.16545231 -1.43410081 1.57983418 0 0 Z " fill="#4E7DCE" transform="translate(39,77)"/>
<path d="M0 0 C0.45375 0.474375 0.9075 0.94875 1.375 1.4375 C2.93258204 3.09027808 2.93258204 3.09027808 5 4 C4.01 6.64 3.02 9.28 2 12 C3.32 12 4.64 12 6 12 C5.566875 12.825 5.13375 13.65 4.6875 14.5 C3.66438207 17.84378889 3.66438207 17.84378889 5.015625 20.07421875 C5.95108773 21.46456308 6.92350637 22.83085569 7.93359375 24.16796875 C8.28550781 24.77253906 8.63742188 25.37710938 9 26 C8.67 26.99 8.34 27.98 8 29 C6.68 29 5.36 29 4 29 C2.35 26.03 0.7 23.06 -1 20 C-1.66 20 -2.32 20 -3 20 C-3.7425 21.2375 -3.7425 21.2375 -4.5 22.5 C-5.2425 23.7375 -5.2425 23.7375 -6 25 C-6.66 25 -7.32 25 -8 25 C-9.125 19.375 -9.125 19.375 -8 16 C-8.38932856 13.85744207 -8.38932856 13.85744207 -9 12 C-8.01 12 -7.02 12 -6 12 C-6.185625 11.236875 -6.37125 10.47375 -6.5625 9.6875 C-7 7 -7 7 -6 4 C-5.01 4 -4.02 4 -3 4 C-3 4.99 -3 5.98 -3 7 C-2.34 7 -1.68 7 -1 7 C-0.67 4.69 -0.34 2.38 0 0 Z " fill="#865BC0" transform="translate(66,35)"/>
<path d="M0 0 C0.66 1.32 1.32 2.64 2 4 C3.32 4 4.64 4 6 4 C5.67 3.01 5.34 2.02 5 1 C6.32 1 7.64 1 9 1 C10.88654385 5.63775363 12.21225675 8.95005809 12 14 C9.39472895 14.10792837 6.79391689 14.18724878 4.1875 14.25 C3.44951172 14.28351562 2.71152344 14.31703125 1.95117188 14.3515625 C-3.49398568 14.45011739 -3.49398568 14.45011739 -6.015625 12.20703125 C-7.52653366 8.81947811 -6.95912366 6.51678676 -6 3 C-3.92839358 0.92839358 -2.94846185 0 0 0 Z " fill="#D32CB2" transform="translate(116,23)"/>
<path d="M0 0 C4.46270981 0.43117969 7.06251385 3.54183211 10.125 6.5 C13.75767922 10.16207271 13.75767922 10.16207271 18 13 C18 13.66 18 14.32 18 15 C18.99 15.33 19.98 15.66 21 16 C21 16.99 21 17.98 21 19 C20.34 19 19.68 19 19 19 C19.33 20.65 19.66 22.3 20 24 C19.44570312 23.57847656 18.89140625 23.15695313 18.3203125 22.72265625 C17.59585938 22.17480469 16.87140625 21.62695312 16.125 21.0625 C15.40570313 20.51722656 14.68640625 19.97195312 13.9453125 19.41015625 C12.05642921 17.96035376 12.05642921 17.96035376 10 17 C10 16.34 10 15.68 10 15 C9.44828125 14.75507813 8.8965625 14.51015625 8.328125 14.2578125 C5.52360509 12.74261886 3.21896877 10.88915874 0.75 8.875 C-0.14203125 8.15054687 -1.0340625 7.42609375 -1.953125 6.6796875 C-2.96632813 5.84824219 -2.96632813 5.84824219 -4 5 C-3.01 4.34 -2.02 3.68 -1 3 C-0.67 2.01 -0.34 1.02 0 0 Z " fill="#A646B5" transform="translate(82,15)"/>
<path d="M0 0 C4.62 0 9.24 0 14 0 C14 0.66 14 1.32 14 2 C15.32 2 16.64 2 18 2 C18 2.66 18 3.32 18 4 C18.99 4.33 19.98 4.66 21 5 C16.545 5.495 16.545 5.495 12 6 C14.97 6.99 17.94 7.98 21 9 C21.33 8.01 21.66 7.02 22 6 C22 7.32 22 8.64 22 10 C20.68 10 19.36 10 18 10 C18.33 11.32 18.66 12.64 19 14 C11.3194457 11.71143755 3.65750046 9.36446331 -4 7 C-2.68 6.67 -1.36 6.34 0 6 C0 4.02 0 2.04 0 0 Z " fill="#5B72CB" transform="translate(28,109)"/>
<path d="M0 0 C0.33 0.99 0.66 1.98 1 3 C1.66 3.66 2.32 4.32 3 5 C2.84381448 7.62182161 2.56871617 10.08805052 2.171875 12.67578125 C2.06280823 13.43795456 1.95374146 14.20012787 1.84136963 14.98539734 C1.60774045 16.60098833 1.36863055 18.21579469 1.12451172 19.82983398 C0.75333153 22.29041506 0.40065738 24.75310638 0.05078125 27.21679688 C-0.17858768 28.78661942 -0.40902246 30.35628668 -0.640625 31.92578125 C-0.74594543 32.65928299 -0.85126587 33.39278473 -0.95977783 34.14851379 C-1.55226143 38.01213377 -2.36830537 41.44187828 -4 45 C-4.33 44.34 -4.66 43.68 -5 43 C-4.67 42.34 -4.34 41.68 -4 41 C-5.485 41.495 -5.485 41.495 -7 42 C-6.26923398 33.83958208 -5.20262996 25.73730019 -4.0625 17.625 C-3.89298828 16.36816406 -3.72347656 15.11132812 -3.54882812 13.81640625 C-3.37931641 12.61113281 -3.20980469 11.40585938 -3.03515625 10.1640625 C-2.8844165 9.07561035 -2.73367676 7.9871582 -2.57836914 6.86572266 C-2.04624937 4.22915792 -1.33961264 2.31276377 0 0 Z " fill="#CB31AB" transform="translate(120,57)"/>
<path d="M0 0 C0 0.66 0 1.32 0 2 C0.66 2 1.32 2 2 2 C2 2.66 2 3.32 2 4 C2.66 4.33 3.32 4.66 4 5 C3.154375 5.31453125 2.30875 5.6290625 1.4375 5.953125 C-6.17652286 8.80486107 -6.17652286 8.80486107 -13.5 12.3125 C-16.7695203 13.88887586 -18.45639717 14.44295035 -22 14 C-20.15845539 6.78293449 -20.15845539 6.78293449 -17.19091797 4.77734375 C-14.96288583 3.86715155 -12.7536212 3.15351138 -10.4375 2.5 C-9.65697266 2.24992187 -8.87644531 1.99984375 -8.07226562 1.7421875 C-2.52502576 0 -2.52502576 0 0 0 Z " fill="#BD39AF" transform="translate(108,55)"/>
<path d="M0 0 C0 0.99 0 1.98 0 3 C0.66 3 1.32 3 2 3 C2 3.66 2 4.32 2 5 C4.97 5.495 4.97 5.495 8 6 C3.93355042 8.10499901 -0.25138023 9.60428433 -4.5625 11.125 C-5.33013672 11.40214844 -6.09777344 11.67929688 -6.88867188 11.96484375 C-7.62794922 12.22652344 -8.36722656 12.48820312 -9.12890625 12.7578125 C-10.13546265 13.11576904 -10.13546265 13.11576904 -11.16235352 13.48095703 C-13 14 -13 14 -16 14 C-16 12.68 -16 11.36 -16 10 C-13.36 8.68 -10.72 7.36 -8 6 C-8 5.67 -8 5.34 -8 5 C-10.97 4.505 -10.97 4.505 -14 4 C-14 3.34 -14 2.68 -14 2 C-9.07262981 0.02905192 -5.21979128 -0.1799928 0 0 Z " fill="#B041B6" transform="translate(96,109)"/>
<path d="M0 0 C3.625 0.375 3.625 0.375 7 1 C7.12375 2.11375 7.2475 3.2275 7.375 4.375 C7.6465813 8.03103677 7.6465813 8.03103677 10 10 C8.625 11.5 8.625 11.5 7 13 C6.34 13 5.68 13 5 13 C5 14.65 5 16.3 5 18 C-0.875 17.125 -0.875 17.125 -2 16 C-2.12557162 13.69006618 -2.17575729 11.37581464 -2.1875 9.0625 C-2.20167969 7.79535156 -2.21585937 6.52820312 -2.23046875 5.22265625 C-2 2 -2 2 0 0 Z " fill="#C535B3" transform="translate(105,13)"/>
<path d="M0 0 C0.33 0 0.66 0 1 0 C1 2.97 1 5.94 1 9 C0.34 9 -0.32 9 -1 9 C-1.268125 9.5775 -1.53625 10.155 -1.8125 10.75 C-3.02929189 13.05550043 -4.30333879 15.02056192 -6 17 C-6.66 17 -7.32 17 -8 17 C-8.268125 17.61875 -8.53625 18.2375 -8.8125 18.875 C-10 21 -10 21 -13 23 C-13 22.34 -13 21.68 -13 21 C-14.65 21.33 -16.3 21.66 -18 22 C-17.34 20.68 -16.68 19.36 -16 18 C-15.34 18 -14.68 18 -14 18 C-13.72744385 17.4112207 -13.4548877 16.82244141 -13.17407227 16.21582031 C-12.0283144 14.05343762 -10.80530178 12.398146 -9.21484375 10.546875 C-8.68439453 9.928125 -8.15394531 9.309375 -7.60742188 8.671875 C-7.05634766 8.03765625 -6.50527344 7.4034375 -5.9375 6.75 C-5.38255859 6.1003125 -4.82761719 5.450625 -4.25585938 4.78125 C-2.8624036 3.16545231 -1.43410081 1.57983418 0 0 Z " fill="#5B6FC6" transform="translate(39,77)"/>
<path d="M0 0 C2 3 2 3 2.6875 5.75 C1.6971113 10.43183749 -1.08706253 11.93051252 -4.8359375 14.6796875 C-7 16 -7 16 -9 16 C-9 16.66 -9 17.32 -9 18 C-10.65 17.67 -12.3 17.34 -14 17 C-13.75 14.625 -13.75 14.625 -13 12 C-11 10.875 -11 10.875 -9 10 C-8.67 9.01 -8.34 8.02 -8 7 C-7.34 7 -6.68 7 -6 7 C-6 6.34 -6 5.68 -6 5 C-4.04072937 3.2856382 -2.04119788 1.61594832 0 0 Z " fill="#557ACC" transform="translate(34,23)"/>
<path d="M0 0 C1.64846769 0.44876616 3.29373455 0.90930488 4.9375 1.375 C5.85402344 1.63023438 6.77054688 1.88546875 7.71484375 2.1484375 C10 3 10 3 11 5 C11.99 5.66 12.98 6.32 14 7 C13.67 8.65 13.34 10.3 13 12 C11.24890978 11.37806106 9.49916969 10.75232002 7.75 10.125 C6.77546875 9.77695313 5.8009375 9.42890625 4.796875 9.0703125 C2.43705673 8.16725355 0.23094884 7.17921582 -2 6 C-1.34 4.02 -0.68 2.04 0 0 Z " fill="#5579CF" transform="translate(21,55)"/>
<path d="M0 0 C6.6 0 13.2 0 20 0 C20 0.66 20 1.32 20 2 C22.475 2.495 22.475 2.495 25 3 C25 3.33 25 3.66 25 4 C15.1 4 5.2 4 -5 4 C-5 3.67 -5 3.34 -5 3 C-3.35 3 -1.7 3 0 3 C0 2.01 0 1.02 0 0 Z " fill="#7C64A6" transform="translate(54,120)"/>
<path d="M0 0 C1.5 1.375 1.5 1.375 3 3 C3 3.66 3 4.32 3 5 C-2.94 7.64 -8.88 10.28 -15 13 C-15.33 12.34 -15.66 11.68 -16 11 C-15.34 10.67 -14.68 10.34 -14 10 C-13.92910156 9.38640625 -13.85820312 8.7728125 -13.78515625 8.140625 C-13 6 -13 6 -10.05859375 4.296875 C-8.86363281 3.78640625 -7.66867188 3.2759375 -6.4375 2.75 C-4.64119141 1.96882813 -4.64119141 1.96882813 -2.80859375 1.171875 C-1.41833984 0.59179688 -1.41833984 0.59179688 0 0 Z " fill="#6E6BC3" transform="translate(44,93)"/>
<path d="M0 0 C0.515625 0.37125 1.03125 0.7425 1.5625 1.125 C1.5625 1.785 1.5625 2.445 1.5625 3.125 C2.5525 3.455 3.5425 3.785 4.5625 4.125 C4.5625 5.115 4.5625 6.105 4.5625 7.125 C3.9025 7.125 3.2425 7.125 2.5625 7.125 C2.8925 8.775 3.2225 10.425 3.5625 12.125 C3.00820312 11.70347656 2.45390625 11.28195313 1.8828125 10.84765625 C1.15835938 10.29980469 0.43390625 9.75195312 -0.3125 9.1875 C-1.03179687 8.64222656 -1.75109375 8.09695312 -2.4921875 7.53515625 C-4.38107079 6.08535376 -4.38107079 6.08535376 -6.4375 5.125 C-6.4375 4.465 -6.4375 3.805 -6.4375 3.125 C-7.4275 2.795 -8.4175 2.465 -9.4375 2.125 C-9.4375 1.795 -9.4375 1.465 -9.4375 1.125 C-3.0375 -1.09038462 -3.0375 -1.09038462 0 0 Z " fill="#B33EAF" transform="translate(98.4375,26.875)"/>
<path d="M0 0 C8.58 0 17.16 0 26 0 C18.02068121 3.9896594 10.60354012 5.47869293 1.875 3 C0.92625 2.67 -0.0225 2.34 -1 2 C-0.67 1.34 -0.34 0.68 0 0 Z " fill="#815FB5" transform="translate(51,8)"/>
<path d="M0 0 C5.61 0 11.22 0 17 0 C16.67 1.32 16.34 2.64 16 4 C14.22932584 4.16834933 12.45845388 4.33461909 10.6875 4.5 C9.70136719 4.5928125 8.71523438 4.685625 7.69921875 4.78125 C5.12106113 4.99018897 2.58458415 5 0 5 C0 3.35 0 1.7 0 0 Z " fill="#4D79CE" transform="translate(16,49)"/>
<path d="M0 0 C0 1.98 0 3.96 0 6 C-3.85756507 8.15305957 -6.55129785 9.39253254 -11 9 C-8.86654867 1.54159292 -8.86654867 1.54159292 -5.5 -0.5625 C-3 -1 -3 -1 0 0 Z " fill="#B03FB8" transform="translate(97,60)"/>
<path d="M0 0 C2.93200474 2.85276137 5.64315404 5.65079784 8 9 C7.34 9 6.68 9 6 9 C6.33 10.98 6.66 12.96 7 15 C6.34 15 5.68 15 5 15 C1.44708742 11.26944179 -0.96476617 8.17616915 -2 3 C-1.34 2.01 -0.68 1.02 0 0 Z " fill="#AF42AF" transform="translate(90,79)"/>
<path d="M0 0 C3.26627133 2.30560329 4.41383704 4.88754487 6.125 8.5 C5.795 9.49 5.465 10.48 5.125 11.5 C3.805 11.5 2.485 11.5 1.125 11.5 C0.28651196 10.04462432 -0.54563934 8.58559627 -1.375 7.125 C-2.07109375 5.90683594 -2.07109375 5.90683594 -2.78125 4.6640625 C-3.875 2.5 -3.875 2.5 -3.875 0.5 C-1.875 -0.5 -1.875 -0.5 0 0 Z " fill="#9055C0" transform="translate(68.875,52.5)"/>
<path d="M0 0 C0.33 0.66 0.66 1.32 1 2 C1.99 2 2.98 2 4 2 C4 5.96 4 9.92 4 14 C6.64 13.67 9.28 13.34 12 13 C11.67 13.66 11.34 14.32 11 15 C9.35 15 7.7 15 6 15 C6 15.66 6 16.32 6 17 C7.98 17 9.96 17 12 17 C12 17.33 12 17.66 12 18 C9.36 18 6.72 18 4 18 C3.01 15.36 2.02 12.72 1 10 C0.67 10 0.34 10 0 10 C0 6.7 0 3.4 0 0 Z " fill="#9555AA" transform="translate(76,96)"/>
<path d="M0 0 C1.09570312 0.00902344 2.19140625 0.01804688 3.3203125 0.02734375 C4.16335937 0.03894531 5.00640625 0.05054688 5.875 0.0625 C5.875 1.3825 5.875 2.7025 5.875 4.0625 C0.925 4.3925 -4.025 4.7225 -9.125 5.0625 C-8.795 3.7425 -8.465 2.4225 -8.125 1.0625 C-5.36047967 -0.31976016 -3.0788637 -0.03275387 0 0 Z " fill="#636FC1" transform="translate(41.125,47.9375)"/>
<path d="M0 0 C2.93814003 1.46907001 3.3286226 3.59447806 4.625 6.5625 C5.07101563 7.57441406 5.51703125 8.58632812 5.9765625 9.62890625 C6.31429687 10.41136719 6.65203125 11.19382812 7 12 C6.01 12.66 5.02 13.32 4 14 C1 13 1 13 -0.8125 10.375 C-2.29275886 6.1679485 -1.55612169 4.09505707 0 0 Z " fill="#7C60B9" transform="translate(56,73)"/>
<path d="M0 0 C4.455 0.99 4.455 0.99 9 2 C8.938125 2.94875 8.87625 3.8975 8.8125 4.875 C8.874375 5.90625 8.93625 6.9375 9 8 C9.99 8.66 10.98 9.32 12 10 C9 11 9 11 5.8125 9.5625 C4.884375 9.046875 3.95625 8.53125 3 8 C3.061875 7.236875 3.12375 6.47375 3.1875 5.6875 C3.2682814 2.61210269 3.2682814 2.61210269 0 0 Z " fill="#606EC4" transform="translate(31,59)"/>
<path d="M0 0 C2.86740309 2.06094597 3.30668487 4.04025585 4 7.4375 C3.01 8.9225 3.01 8.9225 2 10.4375 C-1.53586014 7.26429218 -3.58578031 5.27006305 -4 0.4375 C-2 -0.5625 -2 -0.5625 0 0 Z " fill="#C037B0" transform="translate(105,33.5625)"/>
<path d="M0 0 C0.33 0 0.66 0 1 0 C1.19448477 2.12437212 1.38038289 4.24953191 1.5625 6.375 C1.66691406 7.55835937 1.77132813 8.74171875 1.87890625 9.9609375 C2 13 2 13 1 15 C0.01 15 -0.98 15 -2 15 C-2.33 11.7 -2.66 8.4 -3 5 C-2.34 4.67 -1.68 4.34 -1 4 C-0.34786708 1.97536745 -0.34786708 1.97536745 0 0 Z " fill="#4981C0" transform="translate(11,73)"/>
<path d="M0 0 C0.66 0.33 1.32 0.66 2 1 C1.67 1.99 1.34 2.98 1 4 C-0.32 4 -1.64 4 -3 4 C-2.67 5.32 -2.34 6.64 -2 8 C-5.3 7.01 -8.6 6.02 -12 5 C-11.01 4.67 -10.02 4.34 -9 4 C-8.67 3.01 -8.34 2.02 -8 1 C-5.36 1.66 -2.72 2.32 0 3 C0 2.01 0 1.02 0 0 Z " fill="#6E6CC2" transform="translate(49,115)"/>
<path d="M0 0 C3.96 0 7.92 0 12 0 C11.67 1.32 11.34 2.64 11 4 C7.7 4 4.4 4 1 4 C0.67 2.68 0.34 1.36 0 0 Z " fill="#BE38B9" transform="translate(93,49)"/>
<path d="M0 0 C2.29013653 3.4352048 2.17842973 4.985331 2 9 C0.02 9.99 0.02 9.99 -2 11 C-2 10.01 -2 9.02 -2 8 C-3.32 7.34 -4.64 6.68 -6 6 C-4 4 -2 2 0 0 Z " fill="#5871C0" transform="translate(34,23)"/>
<path d="M0 0 C0 0.99 0 1.98 0 3 C0.99 3.66 1.98 4.32 3 5 C1.73160474 5.50615298 0.46016898 6.00469099 -0.8125 6.5 C-1.87404297 6.91765625 -1.87404297 6.91765625 -2.95703125 7.34375 C-5 8 -5 8 -8 8 C-8 6.68 -8 5.36 -8 4 C-5.36 2.68 -2.72 1.36 0 0 Z " fill="#A649B6" transform="translate(88,115)"/>
<path d="M0 0 C3.71888239 0.50712033 6.73454239 1.11608215 10 3 C9.34 4.65 8.68 6.3 8 8 C5.5 6.625 5.5 6.625 3 5 C3 4.34 3 3.68 3 3 C2.34 3 1.68 3 1 3 C0.67 2.01 0.34 1.02 0 0 Z " fill="#B63CB3" transform="translate(93,99)"/>
<path d="M0 0 C2.96175123 0.61277612 4.38058783 1.25372522 7 3 C6.67 3.99 6.34 4.98 6 6 C6.66 6 7.32 6 8 6 C8 6.66 8 7.32 8 8 C4.27566618 6.7874262 0.62197194 5.49140021 -3 4 C-2.01 3.67 -1.02 3.34 0 3 C0 2.01 0 1.02 0 0 Z " fill="#A347A9" transform="translate(88,96)"/>
<path d="M0 0 C0.33 0.66 0.66 1.32 1 2 C3.52733235 2.65555119 3.52733235 2.65555119 6 3 C6 3.33 6 3.66 6 4 C-0.93 3.67 -7.86 3.34 -15 3 C-15 2.34 -15 1.68 -15 1 C-14.00419922 1.01740234 -14.00419922 1.01740234 -12.98828125 1.03515625 C-6.43693213 1.11893409 -6.43693213 1.11893409 0 0 Z " fill="#875CAF" transform="translate(73,120)"/>
<path d="M0 0 C2.86724686 0.57344937 3.8614515 0.8614515 6 3 C4.35 4.32 2.7 5.64 1 7 C1 6.34 1 5.68 1 5 C-0.65 5.33 -2.3 5.66 -4 6 C-3.34 4.68 -2.68 3.36 -2 2 C-1.34 2 -0.68 2 0 2 C0 1.34 0 0.68 0 0 Z " fill="#4F73C1" transform="translate(25,93)"/>
<path d="M0 0 C1.2065625 0.0309375 1.2065625 0.0309375 2.4375 0.0625 C1.7775 2.3725 1.1175 4.6825 0.4375 7.0625 C-1.2125 6.7325 -2.8625 6.4025 -4.5625 6.0625 C-3.48963568 0.08511307 -3.48963568 0.08511307 0 0 Z " fill="#4D76D9" transform="translate(24.5625,33.9375)"/>
<path d="M0 0 C0.99 0.33 1.98 0.66 3 1 C3 3.64 3 6.28 3 9 C1.68 9 0.36 9 -1 9 C-1.125 2.25 -1.125 2.25 0 0 Z " fill="#3B86D6" transform="translate(8,68)"/>
<path d="M0 0 C0.66 0.33 1.32 0.66 2 1 C1.34 2.32 0.68 3.64 0 5 C0.66 5 1.32 5 2 5 C2 5.66 2 6.32 2 7 C0.35 7.66 -1.3 8.32 -3 9 C-3.79953138 5.71303767 -4.09658936 4.28976808 -3 1 C-2.01 0.67 -1.02 0.34 0 0 Z " fill="#B33AA9" transform="translate(100,57)"/>
<path d="M0 0 C0.66 0.66 1.32 1.32 2 2 C1.01 2 0.02 2 -1 2 C-1 2.99 -1 3.98 -1 5 C-3.64 5.99 -6.28 6.98 -9 8 C-9 7.34 -9 6.68 -9 6 C-8.34 5.67 -7.68 5.34 -7 5 C-6.34786708 2.97536745 -6.34786708 2.97536745 -6 1 C-3.125 0.375 -3.125 0.375 0 0 Z " fill="#5C74C4" transform="translate(37,98)"/>
<path d="M0 0 C0.66 0.66 1.32 1.32 2 2 C1.625 4.625 1.625 4.625 1 7 C-0.625 7.6875 -0.625 7.6875 -3 8 C-6.25 6.5625 -6.25 6.5625 -9 5 C-5.71023192 3.90341064 -4.28696233 4.20046862 -1 5 C-0.67 3.35 -0.34 1.7 0 0 Z " fill="#4883D2" transform="translate(19,52)"/>
<path d="M0 0 C2.125 0.375 2.125 0.375 4 1 C3.690625 1.5775 3.38125 2.155 3.0625 2.75 C2.07416636 4.84294184 1.4831387 6.74535275 1 9 C0.34 9 -0.32 9 -1 9 C-1.625 5.625 -1.625 5.625 -2 2 C-1.34 1.34 -0.68 0.68 0 0 Z " fill="#636DCA" transform="translate(37,21)"/>
<path d="M0 0 C4.875 1.75 4.875 1.75 6 4 C5.67 4.99 5.34 5.98 5 7 C3.125 6.8125 3.125 6.8125 1 6 C-0.25 3.4375 -0.25 3.4375 -1 1 C-0.67 0.67 -0.34 0.34 0 0 Z M6 1 C6.99 1.495 6.99 1.495 8 2 C7.01 2.495 7.01 2.495 6 3 C6 2.34 6 1.68 6 1 Z " fill="#9553B9" transform="translate(70,87)"/>
<path d="M0 0 C0.99 0 1.98 0 3 0 C3.125 3.375 3.125 3.375 3 7 C2.34 7.66 1.68 8.32 1 9 C1 8.34 1 7.68 1 7 C0.34 7 -0.32 7 -1 7 C-1.04254356 5.00045254 -1.04080783 2.99958364 -1 1 C-0.67 0.67 -0.34 0.34 0 0 Z " fill="#3D84D4" transform="translate(12,94)"/>
<path d="M0 0 C1.32 0 2.64 0 4 0 C4.66 2.31 5.32 4.62 6 7 C4.35 7.33 2.7 7.66 1 8 C1.020625 7.236875 1.04125 6.47375 1.0625 5.6875 C1.12942841 2.89814214 1.12942841 2.89814214 0 0 Z " fill="#D829A7" transform="translate(121,24)"/>
<path d="M0 0 C-0.66 2.31 -1.32 4.62 -2 7 C-3.32 7.33 -4.64 7.66 -6 8 C-6.25 5.6875 -6.25 5.6875 -6 3 C-3.95575462 1.02389614 -2.8823175 0 0 0 Z " fill="#7263B6" transform="translate(58,87)"/>
<path d="M0 0 C5.94 0 11.88 0 18 0 C12.87984027 2.56007987 8.62902877 3.65132704 3.0625 2.0625 C2.051875 1.711875 1.04125 1.36125 0 1 C0 0.67 0 0.34 0 0 Z " fill="#8460A3" transform="translate(59,8)"/>
<path d="M0 0 C0.33 0.66 0.66 1.32 1 2 C2.32 2 3.64 2 5 2 C5 2.66 5 3.32 5 4 C5.99 4.33 6.98 4.66 8 5 C4.7 5 1.4 5 -2 5 C-2 4.34 -2 3.68 -2 3 C-1.34 3 -0.68 3 0 3 C0 2.01 0 1.02 0 0 Z " fill="#6B6EC6" transform="translate(41,109)"/>
<path d="M0 0 C0 0.99 0 1.98 0 3 C0.99 3.33 1.98 3.66 3 4 C0.69 4.66 -1.62 5.32 -4 6 C-4 4 -4 4 -3 3 C-4.32 2.67 -5.64 2.34 -7 2 C-4.35261084 0.5393715 -3.10551666 0 0 0 Z " fill="#606BB4" transform="translate(40,96)"/>
<path d="M0 0 C0.99 0.66 1.98 1.32 3 2 C3.1875 4.625 3.1875 4.625 3 7 C1.0625 6.6875 1.0625 6.6875 -1 6 C-1.33 5.01 -1.66 4.02 -2 3 C-1.34 2.01 -0.68 1.02 0 0 Z " fill="#B43DC0" transform="translate(90,79)"/>
<path d="M0 0 C0.33 0.99 0.66 1.98 1 3 C1.99 2.67 2.98 2.34 4 2 C4.33 2.99 4.66 3.98 5 5 C3.625 6.5 3.625 6.5 2 8 C1.34 8 0.68 8 0 8 C0 5.36 0 2.72 0 0 Z " fill="#7568CF" transform="translate(47,53)"/>
<path d="M0 0 C1.125 1.5625 1.125 1.5625 2 4 C1.125 7.75 1.125 7.75 0 11 C-0.33 10.01 -0.66 9.02 -1 8 C-1.66 8 -2.32 8 -3 8 C-3.33 8.66 -3.66 9.32 -4 10 C-4 8.68 -4 7.36 -4 6 C-3.01 5.34 -2.02 4.68 -1 4 C-0.27617533 1.94074861 -0.27617533 1.94074861 0 0 Z " fill="#C336A9" transform="translate(117,6)"/>
<path d="M0 0 C0.33 0.99 0.66 1.98 1 3 C1.66 3.66 2.32 4.32 3 5 C2.34 5 1.68 5 1 5 C1 6.65 1 8.3 1 10 C0.01 10.495 0.01 10.495 -1 11 C-1.02688151 9.35425434 -1.04634123 7.70838587 -1.0625 6.0625 C-1.07410156 5.14597656 -1.08570312 4.22945312 -1.09765625 3.28515625 C-1 1 -1 1 0 0 Z " fill="#D52BA9" transform="translate(120,57)"/>
<path d="M0 0 C0.33 0.99 0.66 1.98 1 3 C1.66 3 2.32 3 3 3 C3 3.66 3 4.32 3 5 C1.35 5.66 -0.3 6.32 -2 7 C-2.125 4.625 -2.125 4.625 -2 2 C-1.34 1.34 -0.68 0.68 0 0 Z " fill="#3788D5" transform="translate(11,7)"/>
<path d="M0 0 C0.99 1.32 1.98 2.64 3 4 C2.34 5.32 1.68 6.64 1 8 C1 7.34 1 6.68 1 6 C0.01 5.67 -0.98 5.34 -2 5 C-1.34 3.35 -0.68 1.7 0 0 Z " fill="#7362B2" transform="translate(56,56)"/>
<path d="M0 0 C0.99 0.495 0.99 0.495 2 1 C1.34 1.66 0.68 2.32 0 3 C0 2.01 0 1.02 0 0 Z M-1 3 C-0.01 3.33 0.98 3.66 2 4 C2.33 4.99 2.66 5.98 3 7 C2.34 7.66 1.68 8.32 1 9 C0.34 8.34 -0.32 7.68 -1 7 C-1.99 7.495 -1.99 7.495 -3 8 C-2.34 6.35 -1.68 4.7 -1 3 Z " fill="#8D57BB" transform="translate(70,74)"/>
<path d="M0 0 C2.64 0 5.28 0 8 0 C7.67 0.99 7.34 1.98 7 3 C4.36 2.67 1.72 2.34 -1 2 C-0.67 1.34 -0.34 0.68 0 0 Z " fill="#7867AC" transform="translate(51,8)"/>
<path d="M0 0 C0.33 0 0.66 0 1 0 C1 1.65 1 3.3 1 5 C0.34 5 -0.32 5 -1 5 C-1 5.66 -1 6.32 -1 7 C-1.66 7 -2.32 7 -3 7 C-3 5.02 -3 3.04 -3 1 C-2.01 1.495 -2.01 1.495 -1 2 C-0.67 1.34 -0.34 0.68 0 0 Z " fill="#4888C7" transform="translate(9,63)"/>
</svg>
